<svg width="21" height="20" viewBox="0 0 21 20" fill="none" xmlns="http://www.w3.org/2000/svg">
<path d="M16.2804 13.079C16.4435 12.9156 16.5352 12.6941 16.5352 12.4632C16.5352 12.2322 16.4435 12.0108 16.2804 11.8473L11.3604 6.92234C11.1704 6.73234 10.9137 6.64734 10.6654 6.67067C10.4404 6.67067 10.2162 6.75484 10.0454 6.92567L5.12288 11.8482C5.04206 11.929 4.97795 12.0249 4.93421 12.1305C4.89048 12.2361 4.86796 12.3493 4.86796 12.4636C4.86796 12.5779 4.89048 12.6911 4.93421 12.7966C4.97795 12.9022 5.04206 12.9982 5.12288 13.079C5.2037 13.1598 5.29964 13.2239 5.40523 13.2677C5.51083 13.3114 5.624 13.3339 5.73829 13.3339C5.85259 13.3339 5.96576 13.3114 6.07136 13.2677C6.17695 13.2239 6.27289 13.1598 6.35371 13.079L10.7037 8.72901L15.0504 13.079C15.1311 13.1598 15.227 13.224 15.3325 13.2677C15.438 13.3115 15.5511 13.334 15.6654 13.334C15.7796 13.334 15.8927 13.3115 15.9983 13.2677C16.1038 13.224 16.1997 13.1598 16.2804 13.079Z" fill="#0E0E10"/>
</svg>
