<svg width="640" height="280" viewBox="0 0 640 280" fill="none" xmlns="http://www.w3.org/2000/svg">
<rect x="0.5" y="0.5" width="639" height="279" rx="15.5" stroke="#99999B" stroke-dasharray="16 8"/>
<path d="M332 144H308C286.28 144 277 134.72 277 113V89C277 67.28 286.28 58 308 58H332C353.72 58 363 67.28 363 89V113C363 134.72 353.72 144 332 144ZM308 64C289.56 64 283 70.56 283 89V113C283 131.44 289.56 138 308 138H332C350.44 138 357 131.44 357 113V89C357 70.56 350.44 64 332 64H308Z" fill="#BABABC"/>
<path d="M315.039 118.479C313.359 118.479 311.799 118.079 310.399 117.279C307.199 115.439 305.359 111.679 305.359 106.919V95.0792C305.359 90.3592 307.199 86.5592 310.399 84.7192C313.599 82.8792 317.759 83.1592 321.879 85.5592L332.159 91.4792C336.239 93.8392 338.599 97.3192 338.599 100.999C338.599 104.679 336.239 108.159 332.159 110.519L321.879 116.439C319.559 117.799 317.199 118.479 315.039 118.479ZM315.079 89.5192C314.439 89.5192 313.879 89.6392 313.439 89.9192C312.159 90.6792 311.399 92.5592 311.399 95.0792V106.919C311.399 109.439 312.119 111.319 313.439 112.079C314.719 112.839 316.719 112.519 318.919 111.239L329.199 105.319C331.399 104.039 332.639 102.479 332.639 100.999C332.639 99.5192 331.399 97.9192 329.199 96.6792L318.919 90.7592C317.479 89.9192 316.159 89.5192 315.079 89.5192Z" fill="#BABABC"/>
<path d="M232.543 192.42C230.966 192.42 229.57 192.098 228.357 191.454C227.153 190.801 226.21 189.891 225.529 188.724C224.848 187.548 224.507 186.167 224.507 184.58V171.854L227.475 171.84V184.426C227.475 185.285 227.62 186.041 227.909 186.694C228.198 187.347 228.586 187.893 229.071 188.332C229.556 188.771 230.098 189.102 230.695 189.326C231.302 189.55 231.918 189.662 232.543 189.662C233.178 189.662 233.794 189.55 234.391 189.326C234.998 189.093 235.544 188.757 236.029 188.318C236.514 187.879 236.897 187.333 237.177 186.68C237.466 186.027 237.611 185.275 237.611 184.426V171.84H240.579V184.58C240.579 186.157 240.238 187.534 239.557 188.71C238.876 189.886 237.928 190.801 236.715 191.454C235.511 192.098 234.12 192.42 232.543 192.42ZM251.593 192.42C250.146 192.42 248.933 192.07 247.953 191.37C246.973 190.661 246.231 189.704 245.727 188.5C245.223 187.296 244.971 185.938 244.971 184.426C244.971 182.914 245.218 181.556 245.713 180.352C246.217 179.148 246.954 178.201 247.925 177.51C248.905 176.81 250.109 176.46 251.537 176.46C252.956 176.46 254.178 176.81 255.205 177.51C256.241 178.201 257.039 179.148 257.599 180.352C258.159 181.547 258.439 182.905 258.439 184.426C258.439 185.938 258.159 187.301 257.599 188.514C257.048 189.718 256.26 190.67 255.233 191.37C254.216 192.07 253.002 192.42 251.593 192.42ZM244.481 198.72V176.88H247.085V187.758H247.421V198.72H244.481ZM251.187 189.774C252.12 189.774 252.89 189.536 253.497 189.06C254.113 188.584 254.57 187.945 254.869 187.142C255.177 186.33 255.331 185.425 255.331 184.426C255.331 183.437 255.177 182.541 254.869 181.738C254.57 180.935 254.108 180.296 253.483 179.82C252.858 179.344 252.06 179.106 251.089 179.106C250.174 179.106 249.418 179.33 248.821 179.778C248.233 180.226 247.794 180.851 247.505 181.654C247.225 182.457 247.085 183.381 247.085 184.426C247.085 185.471 247.225 186.395 247.505 187.198C247.785 188.001 248.228 188.631 248.835 189.088C249.442 189.545 250.226 189.774 251.187 189.774ZM261.81 192V171.42H264.736V192H261.81ZM275.506 192.42C273.994 192.42 272.683 192.079 271.572 191.398C270.462 190.717 269.603 189.779 268.996 188.584C268.399 187.38 268.1 185.994 268.1 184.426C268.1 182.849 268.408 181.463 269.024 180.268C269.64 179.064 270.504 178.131 271.614 177.468C272.725 176.796 274.022 176.46 275.506 176.46C277.018 176.46 278.33 176.801 279.44 177.482C280.551 178.163 281.41 179.101 282.016 180.296C282.623 181.491 282.926 182.867 282.926 184.426C282.926 186.003 282.618 187.394 282.002 188.598C281.396 189.793 280.537 190.731 279.426 191.412C278.316 192.084 277.009 192.42 275.506 192.42ZM275.506 189.662C276.953 189.662 278.031 189.177 278.74 188.206C279.459 187.226 279.818 185.966 279.818 184.426C279.818 182.849 279.454 181.589 278.726 180.646C278.008 179.694 276.934 179.218 275.506 179.218C274.526 179.218 273.719 179.442 273.084 179.89C272.45 180.329 271.978 180.94 271.67 181.724C271.362 182.499 271.208 183.399 271.208 184.426C271.208 186.013 271.572 187.282 272.3 188.234C273.028 189.186 274.097 189.662 275.506 189.662ZM290.273 192.42C289.153 192.42 288.215 192.215 287.459 191.804C286.703 191.384 286.129 190.833 285.737 190.152C285.354 189.461 285.163 188.705 285.163 187.884C285.163 187.119 285.298 186.447 285.569 185.868C285.84 185.289 286.241 184.799 286.773 184.398C287.305 183.987 287.958 183.656 288.733 183.404C289.405 183.208 290.166 183.035 291.015 182.886C291.864 182.737 292.756 182.597 293.689 182.466C294.632 182.335 295.565 182.205 296.489 182.074L295.425 182.662C295.444 181.477 295.192 180.599 294.669 180.03C294.156 179.451 293.269 179.162 292.009 179.162C291.216 179.162 290.488 179.349 289.825 179.722C289.162 180.086 288.7 180.693 288.439 181.542L285.709 180.702C286.082 179.405 286.792 178.373 287.837 177.608C288.892 176.843 290.292 176.46 292.037 176.46C293.39 176.46 294.566 176.693 295.565 177.16C296.573 177.617 297.31 178.345 297.777 179.344C298.02 179.839 298.169 180.361 298.225 180.912C298.281 181.463 298.309 182.055 298.309 182.69V192H295.719V188.542L296.223 188.99C295.598 190.147 294.8 191.011 293.829 191.58C292.868 192.14 291.682 192.42 290.273 192.42ZM290.791 190.026C291.622 190.026 292.336 189.881 292.933 189.592C293.53 189.293 294.011 188.915 294.375 188.458C294.739 188.001 294.977 187.525 295.089 187.03C295.248 186.582 295.336 186.078 295.355 185.518C295.383 184.958 295.397 184.51 295.397 184.174L296.349 184.524C295.425 184.664 294.585 184.79 293.829 184.902C293.073 185.014 292.387 185.126 291.771 185.238C291.164 185.341 290.623 185.467 290.147 185.616C289.746 185.756 289.386 185.924 289.069 186.12C288.761 186.316 288.514 186.554 288.327 186.834C288.15 187.114 288.061 187.455 288.061 187.856C288.061 188.248 288.159 188.612 288.355 188.948C288.551 189.275 288.85 189.536 289.251 189.732C289.652 189.928 290.166 190.026 290.791 190.026ZM307.95 192.42C306.541 192.42 305.323 192.07 304.296 191.37C303.279 190.67 302.49 189.718 301.93 188.514C301.38 187.301 301.104 185.938 301.104 184.426C301.104 182.905 301.384 181.547 301.944 180.352C302.504 179.148 303.298 178.201 304.324 177.51C305.36 176.81 306.588 176.46 308.006 176.46C309.434 176.46 310.634 176.81 311.604 177.51C312.584 178.201 313.322 179.148 313.816 180.352C314.32 181.556 314.572 182.914 314.572 184.426C314.572 185.938 314.32 187.296 313.816 188.5C313.312 189.704 312.57 190.661 311.59 191.37C310.61 192.07 309.397 192.42 307.95 192.42ZM308.356 189.774C309.318 189.774 310.102 189.545 310.708 189.088C311.315 188.631 311.758 188.001 312.038 187.198C312.318 186.395 312.458 185.471 312.458 184.426C312.458 183.381 312.314 182.457 312.024 181.654C311.744 180.851 311.306 180.226 310.708 179.778C310.12 179.33 309.369 179.106 308.454 179.106C307.484 179.106 306.686 179.344 306.06 179.82C305.435 180.296 304.968 180.935 304.66 181.738C304.362 182.541 304.212 183.437 304.212 184.426C304.212 185.425 304.362 186.33 304.66 187.142C304.968 187.945 305.426 188.584 306.032 189.06C306.648 189.536 307.423 189.774 308.356 189.774ZM312.458 192V181.122H312.122V171.84H315.062V192H312.458ZM328.855 192.42C327.735 192.42 326.797 192.215 326.041 191.804C325.285 191.384 324.711 190.833 324.319 190.152C323.936 189.461 323.745 188.705 323.745 187.884C323.745 187.119 323.88 186.447 324.151 185.868C324.422 185.289 324.823 184.799 325.355 184.398C325.887 183.987 326.54 183.656 327.315 183.404C327.987 183.208 328.748 183.035 329.597 182.886C330.446 182.737 331.338 182.597 332.271 182.466C333.214 182.335 334.147 182.205 335.071 182.074L334.007 182.662C334.026 181.477 333.774 180.599 333.251 180.03C332.738 179.451 331.851 179.162 330.591 179.162C329.798 179.162 329.07 179.349 328.407 179.722C327.744 180.086 327.282 180.693 327.021 181.542L324.291 180.702C324.664 179.405 325.374 178.373 326.419 177.608C327.474 176.843 328.874 176.46 330.619 176.46C331.972 176.46 333.148 176.693 334.147 177.16C335.155 177.617 335.892 178.345 336.359 179.344C336.602 179.839 336.751 180.361 336.807 180.912C336.863 181.463 336.891 182.055 336.891 182.69V192H334.301V188.542L334.805 188.99C334.18 190.147 333.382 191.011 332.411 191.58C331.45 192.14 330.264 192.42 328.855 192.42ZM329.373 190.026C330.204 190.026 330.918 189.881 331.515 189.592C332.112 189.293 332.593 188.915 332.957 188.458C333.321 188.001 333.559 187.525 333.671 187.03C333.83 186.582 333.918 186.078 333.937 185.518C333.965 184.958 333.979 184.51 333.979 184.174L334.931 184.524C334.007 184.664 333.167 184.79 332.411 184.902C331.655 185.014 330.969 185.126 330.353 185.238C329.746 185.341 329.205 185.467 328.729 185.616C328.328 185.756 327.968 185.924 327.651 186.12C327.343 186.316 327.096 186.554 326.909 186.834C326.732 187.114 326.643 187.455 326.643 187.856C326.643 188.248 326.741 188.612 326.937 188.948C327.133 189.275 327.432 189.536 327.833 189.732C328.234 189.928 328.748 190.026 329.373 190.026ZM350.22 192L344.732 176.88H347.686L351.704 188.332L355.722 176.88H358.676L353.188 192H350.22ZM361.478 174.402V171.56H364.404V174.402H361.478ZM361.478 192V176.88H364.404V192H361.478ZM374.614 192.42C373.205 192.42 371.987 192.07 370.96 191.37C369.943 190.67 369.154 189.718 368.594 188.514C368.044 187.301 367.768 185.938 367.768 184.426C367.768 182.905 368.048 181.547 368.608 180.352C369.168 179.148 369.962 178.201 370.988 177.51C372.024 176.81 373.252 176.46 374.67 176.46C376.098 176.46 377.298 176.81 378.268 177.51C379.248 178.201 379.986 179.148 380.48 180.352C380.984 181.556 381.236 182.914 381.236 184.426C381.236 185.938 380.984 187.296 380.48 188.5C379.976 189.704 379.234 190.661 378.254 191.37C377.274 192.07 376.061 192.42 374.614 192.42ZM375.02 189.774C375.982 189.774 376.766 189.545 377.372 189.088C377.979 188.631 378.422 188.001 378.702 187.198C378.982 186.395 379.122 185.471 379.122 184.426C379.122 183.381 378.978 182.457 378.688 181.654C378.408 180.851 377.97 180.226 377.372 179.778C376.784 179.33 376.033 179.106 375.118 179.106C374.148 179.106 373.35 179.344 372.724 179.82C372.099 180.296 371.632 180.935 371.324 181.738C371.026 182.541 370.876 183.437 370.876 184.426C370.876 185.425 371.026 186.33 371.324 187.142C371.632 187.945 372.09 188.584 372.696 189.06C373.312 189.536 374.087 189.774 375.02 189.774ZM379.122 192V181.122H378.786V171.84H381.726V192H379.122ZM392.35 192.42C390.847 192.42 389.526 192.093 388.388 191.44C387.258 190.777 386.376 189.858 385.742 188.682C385.116 187.497 384.804 186.125 384.804 184.566C384.804 182.914 385.112 181.481 385.728 180.268C386.353 179.055 387.221 178.117 388.332 177.454C389.442 176.791 390.735 176.46 392.21 176.46C393.75 176.46 395.061 176.819 396.144 177.538C397.226 178.247 398.034 179.26 398.566 180.576C399.107 181.892 399.322 183.455 399.21 185.266H396.284V184.202C396.265 182.447 395.929 181.15 395.276 180.31C394.632 179.47 393.647 179.05 392.322 179.05C390.856 179.05 389.755 179.512 389.018 180.436C388.28 181.36 387.912 182.695 387.912 184.44C387.912 186.101 388.28 187.389 389.018 188.304C389.755 189.209 390.819 189.662 392.21 189.662C393.124 189.662 393.913 189.457 394.576 189.046C395.248 188.626 395.77 188.029 396.144 187.254L399.014 188.164C398.426 189.517 397.534 190.567 396.34 191.314C395.145 192.051 393.815 192.42 392.35 192.42ZM386.96 185.266V182.984H397.754V185.266H386.96ZM408.917 192.42C407.405 192.42 406.093 192.079 404.983 191.398C403.872 190.717 403.013 189.779 402.407 188.584C401.809 187.38 401.511 185.994 401.511 184.426C401.511 182.849 401.819 181.463 402.435 180.268C403.051 179.064 403.914 178.131 405.025 177.468C406.135 176.796 407.433 176.46 408.917 176.46C410.429 176.46 411.74 176.801 412.851 177.482C413.961 178.163 414.82 179.101 415.427 180.296C416.033 181.491 416.337 182.867 416.337 184.426C416.337 186.003 416.029 187.394 415.413 188.598C414.806 189.793 413.947 190.731 412.837 191.412C411.726 192.084 410.419 192.42 408.917 192.42ZM408.917 189.662C410.363 189.662 411.441 189.177 412.151 188.206C412.869 187.226 413.229 185.966 413.229 184.426C413.229 182.849 412.865 181.589 412.137 180.646C411.418 179.694 410.345 179.218 408.917 179.218C407.937 179.218 407.129 179.442 406.495 179.89C405.86 180.329 405.389 180.94 405.081 181.724C404.773 182.499 404.619 183.399 404.619 184.426C404.619 186.013 404.983 187.282 405.711 188.234C406.439 189.186 407.507 189.662 408.917 189.662Z" fill="#4D4E51"/>
<path d="M168.784 219.24C167.637 219.24 166.669 218.987 165.88 218.48C165.091 217.968 164.493 217.261 164.088 216.36C163.683 215.459 163.48 214.419 163.48 213.24C163.48 212.061 163.683 211.021 164.088 210.12C164.493 209.219 165.091 208.515 165.88 208.008C166.669 207.496 167.637 207.24 168.784 207.24C170.123 207.24 171.216 207.584 172.064 208.272C172.912 208.955 173.493 209.872 173.808 211.024L172.608 211.336C172.363 210.424 171.923 209.701 171.288 209.168C170.653 208.635 169.819 208.368 168.784 208.368C167.883 208.368 167.133 208.573 166.536 208.984C165.939 209.395 165.488 209.968 165.184 210.704C164.885 211.435 164.731 212.28 164.72 213.24C164.715 214.2 164.861 215.045 165.16 215.776C165.464 216.507 165.917 217.08 166.52 217.496C167.128 217.907 167.883 218.112 168.784 218.112C169.819 218.112 170.653 217.845 171.288 217.312C171.923 216.773 172.363 216.051 172.608 215.144L173.808 215.456C173.493 216.608 172.912 217.528 172.064 218.216C171.216 218.899 170.123 219.24 168.784 219.24ZM175.733 219V207.24H176.909V219H175.733ZM179.468 208.72V207.4H180.644V208.72H179.468ZM179.468 219V210.36H180.644V219H179.468ZM186.626 219.24C185.757 219.24 185.021 219.045 184.418 218.656C183.815 218.267 183.357 217.731 183.042 217.048C182.733 216.36 182.573 215.571 182.562 214.68C182.573 213.773 182.738 212.979 183.058 212.296C183.378 211.608 183.839 211.075 184.442 210.696C185.045 210.312 185.775 210.12 186.634 210.12C187.509 210.12 188.269 210.333 188.914 210.76C189.565 211.187 190.01 211.771 190.25 212.512L189.098 212.88C188.895 212.363 188.573 211.963 188.13 211.68C187.693 211.392 187.191 211.248 186.626 211.248C185.991 211.248 185.466 211.395 185.05 211.688C184.634 211.976 184.325 212.379 184.122 212.896C183.919 213.413 183.815 214.008 183.81 214.68C183.821 215.715 184.061 216.547 184.53 217.176C184.999 217.8 185.698 218.112 186.626 218.112C187.213 218.112 187.711 217.979 188.122 217.712C188.538 217.44 188.853 217.045 189.066 216.528L190.25 216.88C189.93 217.648 189.461 218.235 188.842 218.64C188.223 219.04 187.485 219.24 186.626 219.24ZM191.893 219L191.901 207.48H193.085V214.52L196.941 210.36H198.509L194.461 214.68L199.037 219H197.325L193.085 214.84V219H191.893ZM207.746 219C207.261 219.101 206.781 219.141 206.306 219.12C205.837 219.099 205.415 218.997 205.042 218.816C204.674 218.635 204.394 218.352 204.202 217.968C204.047 217.648 203.962 217.325 203.946 217C203.935 216.669 203.93 216.293 203.93 215.872V207.96H205.098V215.824C205.098 216.187 205.101 216.491 205.106 216.736C205.117 216.976 205.173 217.189 205.274 217.376C205.466 217.733 205.77 217.947 206.186 218.016C206.607 218.085 207.127 218.069 207.746 217.968V219ZM202.082 211.368V210.36H207.746V211.368H202.082ZM212.744 219.24C211.885 219.24 211.152 219.045 210.544 218.656C209.936 218.267 209.469 217.728 209.144 217.04C208.818 216.352 208.656 215.563 208.656 214.672C208.656 213.765 208.821 212.971 209.152 212.288C209.482 211.605 209.952 211.075 210.56 210.696C211.173 210.312 211.901 210.12 212.744 210.12C213.608 210.12 214.344 210.315 214.952 210.704C215.565 211.088 216.032 211.624 216.352 212.312C216.677 212.995 216.84 213.781 216.84 214.672C216.84 215.579 216.677 216.376 216.352 217.064C216.026 217.747 215.557 218.28 214.944 218.664C214.33 219.048 213.597 219.24 212.744 219.24ZM212.744 218.112C213.704 218.112 214.418 217.795 214.888 217.16C215.357 216.52 215.592 215.691 215.592 214.672C215.592 213.627 215.354 212.795 214.88 212.176C214.41 211.557 213.698 211.248 212.744 211.248C212.098 211.248 211.565 211.395 211.144 211.688C210.728 211.976 210.416 212.379 210.208 212.896C210.005 213.408 209.904 214 209.904 214.672C209.904 215.712 210.144 216.547 210.624 217.176C211.104 217.8 211.81 218.112 212.744 218.112ZM225.688 219.24C224.893 219.24 224.221 219.04 223.672 218.64C223.122 218.235 222.706 217.688 222.424 217C222.141 216.307 222 215.531 222 214.672C222 213.797 222.141 213.019 222.424 212.336C222.712 211.648 223.133 211.107 223.688 210.712C224.242 210.317 224.925 210.12 225.736 210.12C226.525 210.12 227.202 210.32 227.768 210.72C228.333 211.12 228.765 211.664 229.064 212.352C229.368 213.04 229.52 213.813 229.52 214.672C229.52 215.536 229.368 216.312 229.064 217C228.76 217.688 228.322 218.235 227.752 218.64C227.181 219.04 226.493 219.24 225.688 219.24ZM221.8 219V207.48H222.984V212.496H222.856V219H221.8ZM225.568 218.144C226.17 218.144 226.672 217.992 227.072 217.688C227.472 217.384 227.77 216.971 227.968 216.448C228.17 215.92 228.272 215.328 228.272 214.672C228.272 214.021 228.173 213.435 227.976 212.912C227.778 212.389 227.477 211.976 227.072 211.672C226.672 211.368 226.162 211.216 225.544 211.216C224.941 211.216 224.44 211.363 224.04 211.656C223.645 211.949 223.349 212.357 223.152 212.88C222.954 213.397 222.856 213.995 222.856 214.672C222.856 215.339 222.954 215.936 223.152 216.464C223.349 216.987 223.648 217.397 224.048 217.696C224.448 217.995 224.954 218.144 225.568 218.144ZM231.276 219V210.36H232.332V212.44L232.124 212.168C232.22 211.912 232.346 211.677 232.5 211.464C232.655 211.245 232.823 211.067 233.004 210.928C233.228 210.731 233.49 210.581 233.788 210.48C234.087 210.373 234.388 210.312 234.692 210.296C234.996 210.275 235.274 210.296 235.524 210.36V211.464C235.21 211.384 234.866 211.365 234.492 211.408C234.119 211.451 233.775 211.6 233.46 211.856C233.172 212.08 232.956 212.349 232.812 212.664C232.668 212.973 232.572 213.304 232.524 213.656C232.476 214.003 232.452 214.347 232.452 214.688V219H231.276ZM240.494 219.24C239.635 219.24 238.902 219.045 238.294 218.656C237.686 218.267 237.219 217.728 236.894 217.04C236.568 216.352 236.406 215.563 236.406 214.672C236.406 213.765 236.571 212.971 236.902 212.288C237.232 211.605 237.702 211.075 238.31 210.696C238.923 210.312 239.651 210.12 240.494 210.12C241.358 210.12 242.094 210.315 242.702 210.704C243.315 211.088 243.782 211.624 244.102 212.312C244.427 212.995 244.59 213.781 244.59 214.672C244.59 215.579 244.427 216.376 244.102 217.064C243.776 217.747 243.307 218.28 242.694 218.664C242.08 219.048 241.347 219.24 240.494 219.24ZM240.494 218.112C241.454 218.112 242.168 217.795 242.638 217.16C243.107 216.52 243.342 215.691 243.342 214.672C243.342 213.627 243.104 212.795 242.63 212.176C242.16 211.557 241.448 211.248 240.494 211.248C239.848 211.248 239.315 211.395 238.894 211.688C238.478 211.976 238.166 212.379 237.958 212.896C237.755 213.408 237.654 214 237.654 214.672C237.654 215.712 237.894 216.547 238.374 217.176C238.854 217.8 239.56 218.112 240.494 218.112ZM247.882 219L245.242 210.352L246.418 210.36L248.466 217.072L250.522 210.36H251.594L253.65 217.072L255.714 210.36H256.882L254.242 219H253.218L251.058 212.12L248.906 219H247.882ZM261.235 219.232C260.221 219.232 259.387 219.013 258.731 218.576C258.08 218.139 257.68 217.531 257.531 216.752L258.731 216.552C258.859 217.043 259.149 217.435 259.603 217.728C260.061 218.016 260.627 218.16 261.299 218.16C261.955 218.16 262.472 218.024 262.851 217.752C263.229 217.475 263.419 217.099 263.419 216.624C263.419 216.357 263.357 216.141 263.235 215.976C263.117 215.805 262.875 215.648 262.507 215.504C262.139 215.36 261.589 215.189 260.859 214.992C260.075 214.779 259.461 214.565 259.019 214.352C258.576 214.139 258.261 213.893 258.075 213.616C257.888 213.333 257.795 212.989 257.795 212.584C257.795 212.093 257.933 211.664 258.211 211.296C258.488 210.923 258.872 210.635 259.363 210.432C259.853 210.224 260.424 210.12 261.075 210.12C261.725 210.12 262.307 210.227 262.819 210.44C263.336 210.648 263.752 210.941 264.067 211.32C264.381 211.699 264.568 212.139 264.627 212.64L263.427 212.856C263.347 212.349 263.093 211.949 262.667 211.656C262.245 211.357 261.709 211.203 261.059 211.192C260.445 211.176 259.947 211.293 259.563 211.544C259.179 211.789 258.987 212.117 258.987 212.528C258.987 212.757 259.056 212.955 259.195 213.12C259.333 213.28 259.584 213.432 259.947 213.576C260.315 213.72 260.837 213.877 261.515 214.048C262.309 214.251 262.933 214.464 263.387 214.688C263.84 214.912 264.163 215.176 264.355 215.48C264.547 215.784 264.643 216.16 264.643 216.608C264.643 217.424 264.339 218.067 263.731 218.536C263.128 219 262.296 219.232 261.235 219.232ZM270.073 219.24C269.23 219.24 268.5 219.053 267.881 218.68C267.268 218.307 266.79 217.781 266.449 217.104C266.108 216.427 265.937 215.632 265.937 214.72C265.937 213.776 266.105 212.96 266.441 212.272C266.777 211.584 267.249 211.053 267.857 210.68C268.47 210.307 269.193 210.12 270.025 210.12C270.878 210.12 271.606 210.317 272.209 210.712C272.812 211.101 273.268 211.661 273.577 212.392C273.886 213.123 274.028 213.995 274.001 215.008H272.801V214.592C272.78 213.472 272.537 212.627 272.073 212.056C271.614 211.485 270.942 211.2 270.057 211.2C269.129 211.2 268.417 211.501 267.921 212.104C267.43 212.707 267.185 213.565 267.185 214.68C267.185 215.768 267.43 216.613 267.921 217.216C268.417 217.813 269.118 218.112 270.025 218.112C270.644 218.112 271.182 217.971 271.641 217.688C272.105 217.4 272.47 216.987 272.737 216.448L273.833 216.872C273.492 217.624 272.988 218.208 272.321 218.624C271.66 219.035 270.91 219.24 270.073 219.24ZM266.769 215.008V214.024H273.369V215.008H266.769ZM282.587 219.24C281.729 219.24 280.995 219.045 280.387 218.656C279.779 218.267 279.313 217.728 278.987 217.04C278.662 216.352 278.499 215.563 278.499 214.672C278.499 213.765 278.665 212.971 278.995 212.288C279.326 211.605 279.795 211.075 280.403 210.696C281.017 210.312 281.745 210.12 282.587 210.12C283.451 210.12 284.187 210.315 284.795 210.704C285.409 211.088 285.875 211.624 286.195 212.312C286.521 212.995 286.683 213.781 286.683 214.672C286.683 215.579 286.521 216.376 286.195 217.064C285.87 217.747 285.401 218.28 284.787 218.664C284.174 219.048 283.441 219.24 282.587 219.24ZM282.587 218.112C283.547 218.112 284.262 217.795 284.731 217.16C285.201 216.52 285.435 215.691 285.435 214.672C285.435 213.627 285.198 212.795 284.723 212.176C284.254 211.557 283.542 211.248 282.587 211.248C281.942 211.248 281.409 211.395 280.987 211.688C280.571 211.976 280.259 212.379 280.051 212.896C279.849 213.408 279.747 214 279.747 214.672C279.747 215.712 279.987 216.547 280.467 217.176C280.947 217.8 281.654 218.112 282.587 218.112ZM288.448 219V210.36H289.504V212.44L289.296 212.168C289.392 211.912 289.517 211.677 289.672 211.464C289.827 211.245 289.995 211.067 290.176 210.928C290.4 210.731 290.661 210.581 290.96 210.48C291.259 210.373 291.56 210.312 291.864 210.296C292.168 210.275 292.445 210.296 292.696 210.36V211.464C292.381 211.384 292.037 211.365 291.664 211.408C291.291 211.451 290.947 211.6 290.632 211.856C290.344 212.08 290.128 212.349 289.984 212.664C289.84 212.973 289.744 213.304 289.696 213.656C289.648 214.003 289.624 214.347 289.624 214.688V219H288.448ZM300.769 219.24C299.964 219.24 299.276 219.04 298.705 218.64C298.134 218.235 297.697 217.688 297.393 217C297.089 216.312 296.937 215.536 296.937 214.672C296.937 213.813 297.086 213.04 297.385 212.352C297.689 211.664 298.124 211.12 298.689 210.72C299.254 210.32 299.932 210.12 300.721 210.12C301.532 210.12 302.214 210.317 302.769 210.712C303.324 211.107 303.742 211.648 304.025 212.336C304.313 213.019 304.457 213.797 304.457 214.672C304.457 215.531 304.316 216.307 304.033 217C303.75 217.688 303.334 218.235 302.785 218.64C302.236 219.04 301.564 219.24 300.769 219.24ZM300.889 218.144C301.502 218.144 302.009 217.995 302.409 217.696C302.809 217.397 303.108 216.987 303.305 216.464C303.502 215.936 303.601 215.339 303.601 214.672C303.601 213.995 303.502 213.397 303.305 212.88C303.108 212.357 302.809 211.949 302.409 211.656C302.014 211.363 301.516 211.216 300.913 211.216C300.294 211.216 299.782 211.368 299.377 211.672C298.972 211.976 298.67 212.389 298.473 212.912C298.281 213.435 298.185 214.021 298.185 214.672C298.185 215.328 298.284 215.92 298.481 216.448C298.684 216.971 298.985 217.384 299.385 217.688C299.785 217.992 300.286 218.144 300.889 218.144ZM303.601 219V212.496H303.473V207.48H304.657V219H303.601ZM306.901 219V210.36H307.957V212.44L307.749 212.168C307.845 211.912 307.971 211.677 308.125 211.464C308.28 211.245 308.448 211.067 308.629 210.928C308.853 210.731 309.115 210.581 309.413 210.48C309.712 210.373 310.013 210.312 310.317 210.296C310.621 210.275 310.899 210.296 311.149 210.36V211.464C310.835 211.384 310.491 211.365 310.117 211.408C309.744 211.451 309.4 211.6 309.085 211.856C308.797 212.08 308.581 212.349 308.437 212.664C308.293 212.973 308.197 213.304 308.149 213.656C308.101 214.003 308.077 214.347 308.077 214.688V219H306.901ZM314.811 219.24C314.16 219.24 313.613 219.123 313.171 218.888C312.733 218.653 312.405 218.341 312.187 217.952C311.968 217.563 311.859 217.139 311.859 216.68C311.859 216.211 311.952 215.811 312.139 215.48C312.331 215.144 312.589 214.869 312.915 214.656C313.245 214.443 313.627 214.28 314.059 214.168C314.496 214.061 314.979 213.968 315.507 213.888C316.04 213.803 316.56 213.731 317.067 213.672C317.579 213.608 318.027 213.547 318.411 213.488L317.995 213.744C318.011 212.891 317.845 212.259 317.499 211.848C317.152 211.437 316.549 211.232 315.691 211.232C315.099 211.232 314.597 211.365 314.187 211.632C313.781 211.899 313.496 212.32 313.331 212.896L312.187 212.56C312.384 211.787 312.781 211.187 313.379 210.76C313.976 210.333 314.752 210.12 315.707 210.12C316.496 210.12 317.165 210.269 317.715 210.568C318.269 210.861 318.661 211.288 318.891 211.848C318.997 212.099 319.067 212.379 319.099 212.688C319.131 212.997 319.147 213.312 319.147 213.632V219H318.099V216.832L318.403 216.96C318.109 217.701 317.653 218.267 317.035 218.656C316.416 219.045 315.675 219.24 314.811 219.24ZM314.947 218.224C315.496 218.224 315.976 218.125 316.387 217.928C316.797 217.731 317.128 217.461 317.379 217.12C317.629 216.773 317.792 216.384 317.867 215.952C317.931 215.675 317.965 215.371 317.971 215.04C317.976 214.704 317.979 214.453 317.979 214.288L318.427 214.52C318.027 214.573 317.592 214.627 317.123 214.68C316.659 214.733 316.2 214.795 315.747 214.864C315.299 214.933 314.893 215.016 314.531 215.112C314.285 215.181 314.048 215.28 313.819 215.408C313.589 215.531 313.4 215.696 313.251 215.904C313.107 216.112 313.035 216.371 313.035 216.68C313.035 216.931 313.096 217.173 313.219 217.408C313.347 217.643 313.549 217.837 313.827 217.992C314.109 218.147 314.483 218.224 314.947 218.224ZM324.661 223.08C324.219 223.08 323.781 223.013 323.349 222.88C322.923 222.752 322.528 222.547 322.165 222.264C321.803 221.987 321.499 221.624 321.253 221.176L322.317 220.584C322.557 221.064 322.893 221.408 323.325 221.616C323.763 221.829 324.208 221.936 324.661 221.936C325.285 221.936 325.789 221.819 326.173 221.584C326.563 221.355 326.845 221.013 327.021 220.56C327.197 220.107 327.283 219.541 327.277 218.864V216.56H327.413V210.36H328.461V218.88C328.461 219.125 328.453 219.36 328.437 219.584C328.427 219.813 328.403 220.037 328.365 220.256C328.264 220.901 328.053 221.432 327.733 221.848C327.419 222.264 327.003 222.573 326.485 222.776C325.973 222.979 325.365 223.08 324.661 223.08ZM324.581 219.24C323.776 219.24 323.088 219.04 322.517 218.64C321.947 218.235 321.509 217.688 321.205 217C320.901 216.312 320.749 215.536 320.749 214.672C320.749 213.813 320.899 213.04 321.197 212.352C321.501 211.664 321.936 211.12 322.501 210.72C323.067 210.32 323.744 210.12 324.533 210.12C325.344 210.12 326.027 210.317 326.581 210.712C327.136 211.107 327.555 211.648 327.837 212.336C328.125 213.019 328.269 213.797 328.269 214.672C328.269 215.531 328.128 216.307 327.845 217C327.563 217.688 327.147 218.235 326.597 218.64C326.048 219.04 325.376 219.24 324.581 219.24ZM324.701 218.144C325.315 218.144 325.821 217.995 326.221 217.696C326.621 217.397 326.92 216.987 327.117 216.464C327.315 215.936 327.413 215.339 327.413 214.672C327.413 213.995 327.315 213.397 327.117 212.88C326.92 212.357 326.621 211.949 326.221 211.656C325.827 211.363 325.328 211.216 324.725 211.216C324.107 211.216 323.595 211.368 323.189 211.672C322.784 211.976 322.483 212.389 322.285 212.912C322.093 213.435 321.997 214.021 321.997 214.672C321.997 215.328 322.096 215.92 322.293 216.448C322.496 216.971 322.797 217.384 323.197 217.688C323.597 217.992 324.099 218.144 324.701 218.144ZM336.373 219.24C335.723 219.24 335.176 219.123 334.733 218.888C334.296 218.653 333.968 218.341 333.749 217.952C333.531 217.563 333.421 217.139 333.421 216.68C333.421 216.211 333.515 215.811 333.701 215.48C333.893 215.144 334.152 214.869 334.477 214.656C334.808 214.443 335.189 214.28 335.621 214.168C336.059 214.061 336.541 213.968 337.069 213.888C337.603 213.803 338.123 213.731 338.629 213.672C339.141 213.608 339.589 213.547 339.973 213.488L339.557 213.744C339.573 212.891 339.408 212.259 339.061 211.848C338.715 211.437 338.112 211.232 337.253 211.232C336.661 211.232 336.16 211.365 335.749 211.632C335.344 211.899 335.059 212.32 334.893 212.896L333.749 212.56C333.947 211.787 334.344 211.187 334.941 210.76C335.539 210.333 336.315 210.12 337.269 210.12C338.059 210.12 338.728 210.269 339.277 210.568C339.832 210.861 340.224 211.288 340.453 211.848C340.56 212.099 340.629 212.379 340.661 212.688C340.693 212.997 340.709 213.312 340.709 213.632V219H339.661V216.832L339.965 216.96C339.672 217.701 339.216 218.267 338.597 218.656C337.979 219.045 337.237 219.24 336.373 219.24ZM336.509 218.224C337.059 218.224 337.539 218.125 337.949 217.928C338.36 217.731 338.691 217.461 338.941 217.12C339.192 216.773 339.355 216.384 339.429 215.952C339.493 215.675 339.528 215.371 339.533 215.04C339.539 214.704 339.541 214.453 339.541 214.288L339.989 214.52C339.589 214.573 339.155 214.627 338.685 214.68C338.221 214.733 337.763 214.795 337.309 214.864C336.861 214.933 336.456 215.016 336.093 215.112C335.848 215.181 335.611 215.28 335.381 215.408C335.152 215.531 334.963 215.696 334.813 215.904C334.669 216.112 334.597 216.371 334.597 216.68C334.597 216.931 334.659 217.173 334.781 217.408C334.909 217.643 335.112 217.837 335.389 217.992C335.672 218.147 336.045 218.224 336.509 218.224ZM349.032 219V214.592C349.032 214.112 348.987 213.672 348.896 213.272C348.805 212.867 348.659 212.515 348.456 212.216C348.259 211.912 348 211.677 347.68 211.512C347.365 211.347 346.981 211.264 346.528 211.264C346.112 211.264 345.744 211.336 345.424 211.48C345.109 211.624 344.843 211.832 344.624 212.104C344.411 212.371 344.248 212.696 344.136 213.08C344.024 213.464 343.968 213.901 343.968 214.392L343.136 214.208C343.136 213.323 343.291 212.579 343.6 211.976C343.909 211.373 344.336 210.917 344.88 210.608C345.424 210.299 346.048 210.144 346.752 210.144C347.269 210.144 347.72 210.224 348.104 210.384C348.493 210.544 348.821 210.76 349.088 211.032C349.36 211.304 349.579 211.616 349.744 211.968C349.909 212.315 350.029 212.685 350.104 213.08C350.179 213.469 350.216 213.859 350.216 214.248V219H349.032ZM342.784 219V210.36H343.848V212.488H343.968V219H342.784ZM355.597 219.24C354.792 219.24 354.104 219.04 353.533 218.64C352.962 218.235 352.525 217.688 352.221 217C351.917 216.312 351.765 215.536 351.765 214.672C351.765 213.813 351.914 213.04 352.213 212.352C352.517 211.664 352.952 211.12 353.517 210.72C354.082 210.32 354.76 210.12 355.549 210.12C356.36 210.12 357.042 210.317 357.597 210.712C358.152 211.107 358.57 211.648 358.853 212.336C359.141 213.019 359.285 213.797 359.285 214.672C359.285 215.531 359.144 216.307 358.861 217C358.578 217.688 358.162 218.235 357.613 218.64C357.064 219.04 356.392 219.24 355.597 219.24ZM355.717 218.144C356.33 218.144 356.837 217.995 357.237 217.696C357.637 217.397 357.936 216.987 358.133 216.464C358.33 215.936 358.429 215.339 358.429 214.672C358.429 213.995 358.33 213.397 358.133 212.88C357.936 212.357 357.637 211.949 357.237 211.656C356.842 211.363 356.344 211.216 355.741 211.216C355.122 211.216 354.61 211.368 354.205 211.672C353.8 211.976 353.498 212.389 353.301 212.912C353.109 213.435 353.013 214.021 353.013 214.672C353.013 215.328 353.112 215.92 353.309 216.448C353.512 216.971 353.813 217.384 354.213 217.688C354.613 217.992 355.114 218.144 355.717 218.144ZM358.429 219V212.496H358.301V207.48H359.485V219H358.429ZM368.285 219.24C367.479 219.24 366.791 219.04 366.221 218.64C365.65 218.235 365.213 217.688 364.909 217C364.605 216.312 364.453 215.536 364.453 214.672C364.453 213.813 364.602 213.04 364.901 212.352C365.205 211.664 365.639 211.12 366.205 210.72C366.77 210.32 367.447 210.12 368.237 210.12C369.047 210.12 369.73 210.317 370.285 210.712C370.839 211.107 371.258 211.648 371.541 212.336C371.829 213.019 371.973 213.797 371.973 214.672C371.973 215.531 371.831 216.307 371.549 217C371.266 217.688 370.85 218.235 370.301 218.64C369.751 219.04 369.079 219.24 368.285 219.24ZM368.405 218.144C369.018 218.144 369.525 217.995 369.925 217.696C370.325 217.397 370.623 216.987 370.821 216.464C371.018 215.936 371.117 215.339 371.117 214.672C371.117 213.995 371.018 213.397 370.821 212.88C370.623 212.357 370.325 211.949 369.925 211.656C369.53 211.363 369.031 211.216 368.429 211.216C367.81 211.216 367.298 211.368 366.893 211.672C366.487 211.976 366.186 212.389 365.989 212.912C365.797 213.435 365.701 214.021 365.701 214.672C365.701 215.328 365.799 215.92 365.997 216.448C366.199 216.971 366.501 217.384 366.901 217.688C367.301 217.992 367.802 218.144 368.405 218.144ZM371.117 219V212.496H370.989V207.48H372.173V219H371.117ZM374.417 219V210.36H375.473V212.44L375.265 212.168C375.361 211.912 375.486 211.677 375.641 211.464C375.796 211.245 375.964 211.067 376.145 210.928C376.369 210.731 376.63 210.581 376.929 210.48C377.228 210.373 377.529 210.312 377.833 210.296C378.137 210.275 378.414 210.296 378.665 210.36V211.464C378.35 211.384 378.006 211.365 377.633 211.408C377.26 211.451 376.916 211.6 376.601 211.856C376.313 212.08 376.097 212.349 375.953 212.664C375.809 212.973 375.713 213.304 375.665 213.656C375.617 214.003 375.593 214.347 375.593 214.688V219H374.417ZM383.634 219.24C382.776 219.24 382.042 219.045 381.434 218.656C380.826 218.267 380.36 217.728 380.034 217.04C379.709 216.352 379.546 215.563 379.546 214.672C379.546 213.765 379.712 212.971 380.042 212.288C380.373 211.605 380.842 211.075 381.45 210.696C382.064 210.312 382.792 210.12 383.634 210.12C384.498 210.12 385.234 210.315 385.842 210.704C386.456 211.088 386.922 211.624 387.242 212.312C387.568 212.995 387.73 213.781 387.73 214.672C387.73 215.579 387.568 216.376 387.242 217.064C386.917 217.747 386.448 218.28 385.834 218.664C385.221 219.048 384.488 219.24 383.634 219.24ZM383.634 218.112C384.594 218.112 385.309 217.795 385.778 217.16C386.248 216.52 386.482 215.691 386.482 214.672C386.482 213.627 386.245 212.795 385.77 212.176C385.301 211.557 384.589 211.248 383.634 211.248C382.989 211.248 382.456 211.395 382.034 211.688C381.618 211.976 381.306 212.379 381.098 212.896C380.896 213.408 380.794 214 380.794 214.672C380.794 215.712 381.034 216.547 381.514 217.176C381.994 217.8 382.701 218.112 383.634 218.112ZM393.375 219.24C392.58 219.24 391.908 219.04 391.359 218.64C390.81 218.235 390.394 217.688 390.111 217C389.828 216.307 389.687 215.531 389.687 214.672C389.687 213.797 389.828 213.019 390.111 212.336C390.399 211.648 390.82 211.107 391.375 210.712C391.93 210.317 392.612 210.12 393.423 210.12C394.212 210.12 394.89 210.32 395.455 210.72C396.02 211.12 396.452 211.664 396.751 212.352C397.055 213.04 397.207 213.813 397.207 214.672C397.207 215.536 397.055 216.312 396.751 217C396.447 217.688 396.01 218.235 395.439 218.64C394.868 219.04 394.18 219.24 393.375 219.24ZM389.487 222.84V210.36H390.543V216.864H390.671V222.84H389.487ZM393.255 218.144C393.858 218.144 394.359 217.992 394.759 217.688C395.159 217.384 395.458 216.971 395.655 216.448C395.858 215.92 395.959 215.328 395.959 214.672C395.959 214.021 395.86 213.435 395.663 212.912C395.466 212.389 395.164 211.976 394.759 211.672C394.359 211.368 393.85 211.216 393.231 211.216C392.628 211.216 392.127 211.363 391.727 211.656C391.332 211.949 391.036 212.357 390.839 212.88C390.642 213.397 390.543 213.995 390.543 214.672C390.543 215.339 390.642 215.936 390.839 216.464C391.036 216.987 391.335 217.397 391.735 217.696C392.135 217.995 392.642 218.144 393.255 218.144ZM404.639 219.24C403.988 219.24 403.442 219.123 402.999 218.888C402.562 218.653 402.234 218.341 402.015 217.952C401.796 217.563 401.687 217.139 401.687 216.68C401.687 216.211 401.78 215.811 401.967 215.48C402.159 215.144 402.418 214.869 402.743 214.656C403.074 214.443 403.455 214.28 403.887 214.168C404.324 214.061 404.807 213.968 405.335 213.888C405.868 213.803 406.388 213.731 406.895 213.672C407.407 213.608 407.855 213.547 408.239 213.488L407.823 213.744C407.839 212.891 407.674 212.259 407.327 211.848C406.98 211.437 406.378 211.232 405.519 211.232C404.927 211.232 404.426 211.365 404.015 211.632C403.61 211.899 403.324 212.32 403.159 212.896L402.015 212.56C402.212 211.787 402.61 211.187 403.207 210.76C403.804 210.333 404.58 210.12 405.535 210.12C406.324 210.12 406.994 210.269 407.543 210.568C408.098 210.861 408.49 211.288 408.719 211.848C408.826 212.099 408.895 212.379 408.927 212.688C408.959 212.997 408.975 213.312 408.975 213.632V219H407.927V216.832L408.231 216.96C407.938 217.701 407.482 218.267 406.863 218.656C406.244 219.045 405.503 219.24 404.639 219.24ZM404.775 218.224C405.324 218.224 405.804 218.125 406.215 217.928C406.626 217.731 406.956 217.461 407.207 217.12C407.458 216.773 407.62 216.384 407.695 215.952C407.759 215.675 407.794 215.371 407.799 215.04C407.804 214.704 407.807 214.453 407.807 214.288L408.255 214.52C407.855 214.573 407.42 214.627 406.951 214.68C406.487 214.733 406.028 214.795 405.575 214.864C405.127 214.933 404.722 215.016 404.359 215.112C404.114 215.181 403.876 215.28 403.647 215.408C403.418 215.531 403.228 215.696 403.079 215.904C402.935 216.112 402.863 216.371 402.863 216.68C402.863 216.931 402.924 217.173 403.047 217.408C403.175 217.643 403.378 217.837 403.655 217.992C403.938 218.147 404.311 218.224 404.775 218.224ZM415.117 219V209.72C415.117 209.496 415.127 209.275 415.149 209.056C415.175 208.837 415.226 208.629 415.301 208.432C415.375 208.229 415.493 208.043 415.653 207.872C415.829 207.68 416.021 207.541 416.229 207.456C416.437 207.365 416.653 207.307 416.877 207.28C417.106 207.253 417.33 207.24 417.549 207.24H418.653V208.232H417.629C417.181 208.232 416.845 208.341 416.621 208.56C416.402 208.779 416.293 209.123 416.293 209.592V219H415.117ZM413.621 211.368V210.36H418.653V211.368H413.621ZM420.333 208.72V207.4H421.509V208.72H420.333ZM420.333 219V210.36H421.509V219H420.333ZM424.061 219V207.24H425.237V219H424.061ZM431.292 219.24C430.449 219.24 429.718 219.053 429.1 218.68C428.486 218.307 428.009 217.781 427.668 217.104C427.326 216.427 427.156 215.632 427.156 214.72C427.156 213.776 427.324 212.96 427.66 212.272C427.996 211.584 428.468 211.053 429.076 210.68C429.689 210.307 430.412 210.12 431.244 210.12C432.097 210.12 432.825 210.317 433.428 210.712C434.03 211.101 434.486 211.661 434.796 212.392C435.105 213.123 435.246 213.995 435.22 215.008H434.02V214.592C433.998 213.472 433.756 212.627 433.292 212.056C432.833 211.485 432.161 211.2 431.276 211.2C430.348 211.2 429.636 211.501 429.14 212.104C428.649 212.707 428.404 213.565 428.404 214.68C428.404 215.768 428.649 216.613 429.14 217.216C429.636 217.813 430.337 218.112 431.244 218.112C431.862 218.112 432.401 217.971 432.86 217.688C433.324 217.4 433.689 216.987 433.956 216.448L435.052 216.872C434.71 217.624 434.206 218.208 433.54 218.624C432.878 219.035 432.129 219.24 431.292 219.24ZM427.988 215.008V214.024H434.588V215.008H427.988ZM449.641 219V214.592C449.641 214.112 449.596 213.672 449.505 213.272C449.415 212.867 449.268 212.515 449.065 212.216C448.868 211.912 448.609 211.677 448.289 211.512C447.975 211.347 447.591 211.264 447.137 211.264C446.721 211.264 446.353 211.336 446.033 211.48C445.719 211.624 445.452 211.832 445.233 212.104C445.02 212.371 444.857 212.696 444.745 213.08C444.633 213.464 444.577 213.901 444.577 214.392L443.745 214.208C443.745 213.323 443.9 212.579 444.209 211.976C444.519 211.373 444.945 210.917 445.489 210.608C446.033 210.299 446.657 210.144 447.361 210.144C447.879 210.144 448.329 210.224 448.713 210.384C449.103 210.544 449.431 210.76 449.697 211.032C449.969 211.304 450.188 211.616 450.353 211.968C450.519 212.315 450.639 212.685 450.713 213.08C450.788 213.469 450.825 213.859 450.825 214.248V219H449.641ZM443.393 219V207.48H444.457V213.984H444.577V219H443.393ZM456.557 219.24C455.715 219.24 454.984 219.053 454.365 218.68C453.752 218.307 453.275 217.781 452.933 217.104C452.592 216.427 452.421 215.632 452.421 214.72C452.421 213.776 452.589 212.96 452.925 212.272C453.261 211.584 453.733 211.053 454.341 210.68C454.955 210.307 455.677 210.12 456.509 210.12C457.363 210.12 458.091 210.317 458.693 210.712C459.296 211.101 459.752 211.661 460.061 212.392C460.371 213.123 460.512 213.995 460.485 215.008H459.285V214.592C459.264 213.472 459.021 212.627 458.557 212.056C458.099 211.485 457.427 211.2 456.541 211.2C455.613 211.2 454.901 211.501 454.405 212.104C453.915 212.707 453.669 213.565 453.669 214.68C453.669 215.768 453.915 216.613 454.405 217.216C454.901 217.813 455.603 218.112 456.509 218.112C457.128 218.112 457.667 217.971 458.125 217.688C458.589 217.4 458.955 216.987 459.221 216.448L460.317 216.872C459.976 217.624 459.472 218.208 458.805 218.624C458.144 219.035 457.395 219.24 456.557 219.24ZM453.253 215.008V214.024H459.853V215.008H453.253ZM462.261 219V210.36H463.317V212.44L463.109 212.168C463.205 211.912 463.33 211.677 463.485 211.464C463.639 211.245 463.807 211.067 463.989 210.928C464.213 210.731 464.474 210.581 464.773 210.48C465.071 210.373 465.373 210.312 465.677 210.296C465.981 210.275 466.258 210.296 466.509 210.36V211.464C466.194 211.384 465.85 211.365 465.477 211.408C465.103 211.451 464.759 211.6 464.445 211.856C464.157 212.08 463.941 212.349 463.797 212.664C463.653 212.973 463.557 213.304 463.509 213.656C463.461 214.003 463.437 214.347 463.437 214.688V219H462.261ZM471.526 219.24C470.683 219.24 469.953 219.053 469.334 218.68C468.721 218.307 468.243 217.781 467.902 217.104C467.561 216.427 467.39 215.632 467.39 214.72C467.39 213.776 467.558 212.96 467.894 212.272C468.23 211.584 468.702 211.053 469.31 210.68C469.923 210.307 470.646 210.12 471.478 210.12C472.331 210.12 473.059 210.317 473.662 210.712C474.265 211.101 474.721 211.661 475.03 212.392C475.339 213.123 475.481 213.995 475.454 215.008H474.254V214.592C474.233 213.472 473.99 212.627 473.526 212.056C473.067 211.485 472.395 211.2 471.51 211.2C470.582 211.2 469.87 211.501 469.374 212.104C468.883 212.707 468.638 213.565 468.638 214.68C468.638 215.768 468.883 216.613 469.374 217.216C469.87 217.813 470.571 218.112 471.478 218.112C472.097 218.112 472.635 217.971 473.094 217.688C473.558 217.4 473.923 216.987 474.19 216.448L475.286 216.872C474.945 217.624 474.441 218.208 473.774 218.624C473.113 219.035 472.363 219.24 471.526 219.24ZM468.222 215.008V214.024H474.822V215.008H468.222Z" fill="#6A6B6E"/>
<path d="M225.756 249.392C225.127 248.672 224.585 247.869 224.132 246.984C223.684 246.093 223.337 245.16 223.092 244.184C222.852 243.208 222.735 242.227 222.74 241.24C222.735 240.253 222.852 239.272 223.092 238.296C223.337 237.315 223.684 236.381 224.132 235.496C224.585 234.611 225.127 233.808 225.756 233.088L226.62 233.76C226.001 234.501 225.484 235.28 225.068 236.096C224.652 236.907 224.34 237.744 224.132 238.608C223.929 239.472 223.825 240.349 223.82 241.24C223.825 242.12 223.932 242.997 224.14 243.872C224.353 244.741 224.665 245.587 225.076 246.408C225.492 247.224 226.007 247.989 226.62 248.704L225.756 249.392ZM228.433 247V235.48H229.513L234.041 245.168L238.545 235.48H239.641V246.992H238.521V238.104L234.417 247H233.657L229.561 238.104V247H228.433ZM241.886 247V235.48H246.334C246.446 235.48 246.571 235.485 246.71 235.496C246.854 235.501 246.998 235.517 247.142 235.544C247.744 235.635 248.254 235.845 248.67 236.176C249.091 236.501 249.408 236.912 249.622 237.408C249.84 237.904 249.95 238.453 249.95 239.056C249.95 239.653 249.84 240.2 249.622 240.696C249.403 241.192 249.083 241.605 248.662 241.936C248.246 242.261 247.739 242.469 247.142 242.56C246.998 242.581 246.854 242.597 246.71 242.608C246.571 242.619 246.446 242.624 246.334 242.624H243.062V247H241.886ZM243.062 241.504H246.302C246.398 241.504 246.51 241.499 246.638 241.488C246.766 241.477 246.891 241.459 247.014 241.432C247.408 241.347 247.731 241.184 247.982 240.944C248.238 240.704 248.427 240.419 248.55 240.088C248.678 239.757 248.742 239.413 248.742 239.056C248.742 238.699 248.678 238.355 248.55 238.024C248.427 237.688 248.238 237.4 247.982 237.16C247.731 236.92 247.408 236.757 247.014 236.672C246.891 236.645 246.766 236.629 246.638 236.624C246.51 236.613 246.398 236.608 246.302 236.608H243.062V241.504ZM255.817 247V244.768H250.425V243.648L254.281 235.48H255.601L251.745 243.648H255.817V240.288H257.001V243.648H258.257V244.768H257.001V247H255.817ZM259.71 248.672L259.782 248.088C259.995 248.104 260.15 248.061 260.246 247.96C260.342 247.859 260.401 247.723 260.422 247.552C260.443 247.381 260.449 247.197 260.438 247H259.71V245.312H261.078V247.32C261.078 247.811 260.953 248.179 260.702 248.424C260.457 248.669 260.126 248.752 259.71 248.672ZM266.523 247L270.491 235.48H272.051L276.019 247H274.795L271.027 236.136H271.491L267.747 247H266.523ZM268.291 244.208V243.104H274.243V244.208H268.291ZM279.267 247L275.299 235.48H276.523L280.035 245.664L283.571 235.48H284.795L280.827 247H279.267ZM286.155 247V235.48H287.331V247H286.155ZM289.569 248.672L289.641 248.088C289.855 248.104 290.009 248.061 290.105 247.96C290.201 247.859 290.26 247.723 290.281 247.552C290.303 247.381 290.308 247.197 290.297 247H289.569V245.312H290.937V247.32C290.937 247.811 290.812 248.179 290.561 248.424C290.316 248.669 289.985 248.752 289.569 248.672ZM297.183 247V235.48H298.263L302.791 245.168L307.295 235.48H308.391V246.992H307.271V238.104L303.167 247H302.407L298.311 238.104V247H297.183ZM315.3 247.24C314.153 247.24 313.185 246.987 312.396 246.48C311.606 245.968 311.009 245.261 310.604 244.36C310.198 243.459 309.996 242.419 309.996 241.24C309.996 240.061 310.198 239.021 310.604 238.12C311.009 237.219 311.606 236.515 312.396 236.008C313.185 235.496 314.153 235.24 315.3 235.24C316.452 235.24 317.42 235.496 318.204 236.008C318.993 236.515 319.59 237.219 319.996 238.12C320.406 239.021 320.612 240.061 320.612 241.24C320.612 242.419 320.406 243.459 319.996 244.36C319.59 245.261 318.993 245.968 318.204 246.48C317.42 246.987 316.452 247.24 315.3 247.24ZM315.3 246.112C316.201 246.112 316.953 245.907 317.556 245.496C318.158 245.085 318.609 244.515 318.908 243.784C319.212 243.048 319.364 242.2 319.364 241.24C319.364 240.28 319.212 239.435 318.908 238.704C318.609 237.973 318.158 237.403 317.556 236.992C316.953 236.581 316.201 236.373 315.3 236.368C314.398 236.368 313.649 236.573 313.052 236.984C312.454 237.395 312.004 237.968 311.7 238.704C311.401 239.435 311.249 240.28 311.244 241.24C311.238 242.2 311.385 243.045 311.684 243.776C311.988 244.501 312.441 245.072 313.044 245.488C313.646 245.899 314.398 246.107 315.3 246.112ZM324.657 247L320.689 235.48H321.913L325.425 245.664L328.961 235.48H330.185L326.217 247H324.657ZM330.273 248.672L330.345 248.088C330.558 248.104 330.713 248.061 330.809 247.96C330.905 247.859 330.963 247.723 330.985 247.552C331.006 247.381 331.011 247.197 331.001 247H330.273V245.312H331.641V247.32C331.641 247.811 331.515 248.179 331.265 248.424C331.019 248.669 330.689 248.752 330.273 248.672ZM337.886 247V235.48H338.966L343.494 245.168L347.998 235.48H349.094V246.992H347.974V238.104L343.87 247H343.11L339.014 238.104V247H337.886ZM351.339 247V235.48H352.515V240.92L357.771 235.48H359.275L353.907 241.04L359.715 247H358.179L352.515 241.24V247H351.339ZM363.175 247L360.039 238.36H361.231L363.783 245.464L366.319 238.36H367.527L364.391 247H363.175ZM367.523 248.672L367.595 248.088C367.808 248.104 367.963 248.061 368.059 247.96C368.155 247.859 368.213 247.723 368.235 247.552C368.256 247.381 368.261 247.197 368.251 247H367.523V245.312H368.891V247.32C368.891 247.811 368.765 248.179 368.515 248.424C368.269 248.669 367.939 248.752 367.523 248.672ZM377.608 247L374.28 235.48H375.504L378.2 244.992L380.88 235.488L382.112 235.48L384.808 244.992L387.488 235.48H388.72L385.4 247H384.216L381.496 237.552L378.792 247H377.608ZM390.104 247V235.48H391.184L395.712 245.168L400.216 235.48H401.312V246.992H400.192V238.104L396.088 247H395.328L391.232 238.104V247H390.104ZM406.486 247L402.518 235.48H403.742L407.254 245.664L410.79 235.48H412.014L408.046 247H406.486ZM413.654 249.392L412.79 248.704C413.403 247.989 413.915 247.224 414.326 246.408C414.742 245.587 415.054 244.741 415.262 243.872C415.475 242.997 415.584 242.12 415.59 241.24C415.584 240.349 415.478 239.472 415.27 238.608C415.067 237.744 414.758 236.907 414.342 236.096C413.926 235.28 413.408 234.501 412.79 233.76L413.654 233.088C414.283 233.808 414.822 234.611 415.27 235.496C415.723 236.381 416.07 237.315 416.31 238.296C416.555 239.272 416.675 240.253 416.67 241.24C416.675 242.227 416.555 243.208 416.31 244.184C416.07 245.16 415.723 246.093 415.27 246.984C414.822 247.869 414.283 248.672 413.654 249.392Z" fill="#CACACA"/>
</svg>
