<svg width="38" height="38" viewBox="0 0 38 38" fill="none" xmlns="http://www.w3.org/2000/svg">
<g id="vuesax/outline/command-square">
<g id="command-square">
<path id="Vector" d="M22.8032 23.9906H15.2031C14.554 23.9906 14.0156 23.4523 14.0156 22.8031V15.2031C14.0156 14.554 14.554 14.0156 15.2031 14.0156H22.8032C23.4524 14.0156 23.9907 14.554 23.9907 15.2031V22.8031C23.9907 23.4523 23.4524 23.9906 22.8032 23.9906ZM16.3906 21.6156H21.6157V16.3906H16.3906V21.6156Z" fill="#FC8D55"/>
<path id="Vector_2" d="M12.35 29.6844C10.1175 29.6844 8.3125 27.8794 8.3125 25.6469C8.3125 23.4144 10.1175 21.6094 12.35 21.6094H15.2C15.8491 21.6094 16.3875 22.1477 16.3875 22.7969V25.6469C16.3875 27.8794 14.5825 29.6844 12.35 29.6844ZM12.35 23.9844C11.4316 23.9844 10.6875 24.7286 10.6875 25.6469C10.6875 26.5652 11.4316 27.3094 12.35 27.3094C13.2683 27.3094 14.0125 26.5652 14.0125 25.6469V23.9844H12.35Z" fill="#FC8D55"/>
<path id="Vector_3" d="M15.2 16.3875H12.35C10.1175 16.3875 8.3125 14.5825 8.3125 12.35C8.3125 10.1175 10.1175 8.3125 12.35 8.3125C14.5825 8.3125 16.3875 10.1175 16.3875 12.35V15.2C16.3875 15.8492 15.8491 16.3875 15.2 16.3875ZM12.35 10.6875C11.4316 10.6875 10.6875 11.4316 10.6875 12.35C10.6875 13.2683 11.4316 14.0125 12.35 14.0125H14.0125V12.35C14.0125 11.4316 13.2683 10.6875 12.35 10.6875Z" fill="#FC8D55"/>
<path id="Vector_4" d="M25.6469 16.3875H22.7969C22.1477 16.3875 21.6094 15.8492 21.6094 15.2V12.35C21.6094 10.1175 23.4144 8.3125 25.6469 8.3125C27.8794 8.3125 29.6843 10.1175 29.6843 12.35C29.6843 14.5825 27.8794 16.3875 25.6469 16.3875ZM23.9844 14.0125H25.6469C26.5652 14.0125 27.3093 13.2683 27.3093 12.35C27.3093 11.4316 26.5652 10.6875 25.6469 10.6875C24.7285 10.6875 23.9844 11.4316 23.9844 12.35V14.0125Z" fill="#FC8D55"/>
<path id="Vector_5" d="M25.6469 29.6844C23.4144 29.6844 21.6094 27.8794 21.6094 25.6469V22.7969C21.6094 22.1477 22.1477 21.6094 22.7969 21.6094H25.6469C27.8794 21.6094 29.6843 23.4144 29.6843 25.6469C29.6843 27.8794 27.8794 29.6844 25.6469 29.6844ZM23.9844 23.9844V25.6469C23.9844 26.5652 24.7285 27.3094 25.6469 27.3094C26.5652 27.3094 27.3093 26.5652 27.3093 25.6469C27.3093 24.7286 26.5652 23.9844 25.6469 23.9844H23.9844Z" fill="#FC8D55"/>
</g>
</g>
</svg>
