<svg width="32" height="32" viewBox="0 0 32 32" fill="none" xmlns="http://www.w3.org/2000/svg">
<g id="vuesax/outline/cpu">
<g id="cpu">
<path id="Vector" d="M19.2026 27.6693H12.8026C6.94927 27.6693 4.33594 25.0559 4.33594 19.2026V12.8026C4.33594 6.94927 6.94927 4.33594 12.8026 4.33594H19.2026C25.0559 4.33594 27.6693 6.94927 27.6693 12.8026V19.2026C27.6693 25.0559 25.0559 27.6693 19.2026 27.6693ZM12.8026 6.33594C8.02927 6.33594 6.33594 8.02927 6.33594 12.8026V19.2026C6.33594 23.9759 8.02927 25.6693 12.8026 25.6693H19.2026C23.9759 25.6693 25.6693 23.9759 25.6693 19.2026V12.8026C25.6693 8.02927 23.9759 6.33594 19.2026 6.33594H12.8026Z" fill="#FFC62B"/>
<path id="Vector_2" d="M18.0026 23.6693H14.0026C10.1359 23.6693 8.33594 21.8693 8.33594 18.0026V14.0026C8.33594 10.1359 10.1359 8.33594 14.0026 8.33594H18.0026C21.8693 8.33594 23.6693 10.1359 23.6693 14.0026V18.0026C23.6693 21.8693 21.8693 23.6693 18.0026 23.6693ZM14.0026 10.3359C11.2293 10.3359 10.3359 11.2293 10.3359 14.0026V18.0026C10.3359 20.7759 11.2293 21.6693 14.0026 21.6693H18.0026C20.7759 21.6693 21.6693 20.7759 21.6693 18.0026V14.0026C21.6693 11.2293 20.7759 10.3359 18.0026 10.3359H14.0026Z" fill="#FFC62B"/>
<path id="Vector_3" d="M10.6797 6.33073C10.1197 6.33073 9.67969 5.8774 9.67969 5.33073V2.66406C9.67969 2.1174 10.133 1.66406 10.6797 1.66406C11.2264 1.66406 11.6797 2.1174 11.6797 2.66406V5.33073C11.6797 5.8774 11.2264 6.33073 10.6797 6.33073Z" fill="#FFC62B"/>
<path id="Vector_4" d="M16 6.33073C15.4533 6.33073 15 5.8774 15 5.33073V2.66406C15 2.1174 15.4533 1.66406 16 1.66406C16.5467 1.66406 17 2.1174 17 2.66406V5.33073C17 5.8774 16.5467 6.33073 16 6.33073Z" fill="#FFC62B"/>
<path id="Vector_5" d="M21.3359 6.33073C20.7893 6.33073 20.3359 5.8774 20.3359 5.33073V2.66406C20.3359 2.1174 20.7893 1.66406 21.3359 1.66406C21.8826 1.66406 22.3359 2.1174 22.3359 2.66406V5.33073C22.3359 5.8774 21.8826 6.33073 21.3359 6.33073Z" fill="#FFC62B"/>
<path id="Vector_6" d="M29.3307 11.6641H26.6641C26.1174 11.6641 25.6641 11.2107 25.6641 10.6641C25.6641 10.1174 26.1174 9.66406 26.6641 9.66406H29.3307C29.8774 9.66406 30.3307 10.1174 30.3307 10.6641C30.3307 11.2107 29.8907 11.6641 29.3307 11.6641Z" fill="#FFC62B"/>
<path id="Vector_7" d="M29.3307 17H26.6641C26.1174 17 25.6641 16.5467 25.6641 16C25.6641 15.4533 26.1174 15 26.6641 15H29.3307C29.8774 15 30.3307 15.4533 30.3307 16C30.3307 16.5467 29.8907 17 29.3307 17Z" fill="#FFC62B"/>
<path id="Vector_8" d="M29.3307 22.3359H26.6641C26.1174 22.3359 25.6641 21.8826 25.6641 21.3359C25.6641 20.7893 26.1174 20.3359 26.6641 20.3359H29.3307C29.8774 20.3359 30.3307 20.7893 30.3307 21.3359C30.3307 21.8826 29.8907 22.3359 29.3307 22.3359Z" fill="#FFC62B"/>
<path id="Vector_9" d="M21.3359 30.3307C20.7893 30.3307 20.3359 29.8774 20.3359 29.3307V26.6641C20.3359 26.1174 20.7893 25.6641 21.3359 25.6641C21.8826 25.6641 22.3359 26.1174 22.3359 26.6641V29.3307C22.3359 29.8774 21.8826 30.3307 21.3359 30.3307Z" fill="#FFC62B"/>
<path id="Vector_10" d="M16.0156 30.3307C15.469 30.3307 15.0156 29.8774 15.0156 29.3307V26.6641C15.0156 26.1174 15.469 25.6641 16.0156 25.6641C16.5623 25.6641 17.0156 26.1174 17.0156 26.6641V29.3307C17.0156 29.8774 16.5623 30.3307 16.0156 30.3307Z" fill="#FFC62B"/>
<path id="Vector_11" d="M10.6797 30.3307C10.133 30.3307 9.67969 29.8774 9.67969 29.3307V26.6641C9.67969 26.1174 10.133 25.6641 10.6797 25.6641C11.2264 25.6641 11.6797 26.1174 11.6797 26.6641V29.3307C11.6797 29.8774 11.2264 30.3307 10.6797 30.3307Z" fill="#FFC62B"/>
<path id="Vector_12" d="M5.33073 11.6641H2.66406C2.1174 11.6641 1.66406 11.2241 1.66406 10.6641C1.66406 10.1041 2.1174 9.66406 2.66406 9.66406H5.33073C5.8774 9.66406 6.33073 10.1174 6.33073 10.6641C6.33073 11.2107 5.89073 11.6641 5.33073 11.6641Z" fill="#FFC62B"/>
<path id="Vector_13" d="M5.33073 17H2.66406C2.1174 17 1.66406 16.5467 1.66406 16C1.66406 15.4533 2.1174 15 2.66406 15H5.33073C5.8774 15 6.33073 15.4533 6.33073 16C6.33073 16.5467 5.89073 17 5.33073 17Z" fill="#FFC62B"/>
<path id="Vector_14" d="M5.33073 22.3359H2.66406C2.1174 22.3359 1.66406 21.8826 1.66406 21.3359C1.66406 20.7893 2.1174 20.3359 2.66406 20.3359H5.33073C5.8774 20.3359 6.33073 20.7893 6.33073 21.3359C6.33073 21.8826 5.89073 22.3359 5.33073 22.3359Z" fill="#FFC62B"/>
</g>
</g>
</svg>
