<svg width="20" height="20" viewBox="0 0 20 20" fill="none" xmlns="http://www.w3.org/2000/svg">
<path d="M10.0001 18.3332C14.6025 18.3332 18.3334 14.6022 18.3334 9.99984C18.3334 5.39746 14.6025 1.6665 10.0001 1.6665C5.39771 1.6665 1.66675 5.39746 1.66675 9.99984C1.66675 14.6022 5.39771 18.3332 10.0001 18.3332Z" stroke="#4D4E51" stroke-width="1.2" stroke-linecap="round" stroke-linejoin="round"/>
<path d="M7.57495 7.4995C7.77087 6.94255 8.15758 6.47292 8.66658 6.17378C9.17558 5.87463 9.77403 5.76528 10.3559 5.86509C10.9378 5.9649 11.4656 6.26744 11.8458 6.7191C12.2261 7.17077 12.4342 7.74243 12.4333 8.33283C12.4333 9.9995 9.93328 10.8328 9.93328 10.8328" stroke="#4D4E51" stroke-width="1.2" stroke-linecap="round" stroke-linejoin="round"/>
<path d="M10 14.1665H10.0083" stroke="#4D4E51" stroke-width="1.2" stroke-linecap="round" stroke-linejoin="round"/>
</svg>
