<svg width="38" height="38" viewBox="0 0 38 38" fill="none" xmlns="http://www.w3.org/2000/svg">
<g id="vuesax/outline/language-square">
<g id="language-square">
<path id="Vector" d="M26.8993 15.375H11.0977C10.4485 15.375 9.91016 14.8367 9.91016 14.1875C9.91016 13.5383 10.4485 13 11.0977 13H26.8993C27.5485 13 28.0868 13.5383 28.0868 14.1875C28.0868 14.8367 27.5485 15.375 26.8993 15.375Z" fill="#6BC497"/>
<path id="Vector_2" d="M19 15.3709C18.3508 15.3709 17.8125 14.8326 17.8125 14.1834V11.5234C17.8125 10.8743 18.3508 10.3359 19 10.3359C19.6492 10.3359 20.1875 10.8743 20.1875 11.5234V14.1834C20.1875 14.8326 19.6492 15.3709 19 15.3709Z" fill="#6BC497"/>
<path id="Vector_3" d="M11.082 27.662C10.4329 27.662 9.89453 27.1237 9.89453 26.4745C9.89453 25.8254 10.4329 25.287 11.082 25.287C16.972 25.287 21.7695 20.2996 21.7695 14.1562C21.7695 13.5071 22.3079 12.9688 22.957 12.9688C23.6062 12.9688 24.1445 13.5071 24.1445 14.1562C24.1445 21.6138 18.2862 27.662 11.082 27.662Z" fill="#6BC497"/>
<path id="Vector_4" d="M26.9153 27.6612C23.7962 27.6612 20.8986 26.1096 18.777 23.2754C18.3811 22.7529 18.492 22.0088 19.0145 21.613C19.537 21.2171 20.2812 21.3279 20.677 21.8504C22.3553 24.0671 24.572 25.2862 26.9312 25.2862C27.5804 25.2862 28.1187 25.8245 28.1187 26.4737C28.1187 27.1229 27.5645 27.6612 26.9153 27.6612Z" fill="#6BC497"/>
</g>
</g>
</svg>
