<svg width="96" height="96" viewBox="0 0 96 96" fill="none" xmlns="http://www.w3.org/2000/svg">
<path d="M60.0078 90.9961H36.0078C14.2878 90.9961 5.00781 81.7161 5.00781 59.9961V35.9961C5.00781 14.2761 14.2878 4.99609 36.0078 4.99609H60.0078C81.7278 4.99609 91.0078 14.2761 91.0078 35.9961V59.9961C91.0078 81.7161 81.7278 90.9961 60.0078 90.9961ZM36.0078 10.9961C17.5678 10.9961 11.0078 17.5561 11.0078 35.9961V59.9961C11.0078 78.4361 17.5678 84.9961 36.0078 84.9961H60.0078C78.4478 84.9961 85.0078 78.4361 85.0078 59.9961V35.9961C85.0078 17.5561 78.4478 10.9961 60.0078 10.9961H36.0078Z" fill="#C7C7C7"/>
<path d="M38.48 72.1982C32.16 72.1982 27 67.0383 27 60.7183C27 54.3983 32.16 49.2383 38.48 49.2383C44.8 49.2383 49.96 54.3983 49.96 60.7183C49.96 67.0383 44.8 72.1982 38.48 72.1982ZM38.48 55.2783C35.48 55.2783 33 57.7183 33 60.7583C33 63.7583 35.44 66.2383 38.48 66.2383C41.48 66.2383 43.96 63.7983 43.96 60.7583C43.96 57.7183 41.48 55.2783 38.48 55.2783Z" fill="#C7C7C7"/>
<path d="M46.9687 63.718C45.3287 63.718 43.9688 62.358 43.9688 60.718V31.0781C43.9688 29.4381 45.3287 28.0781 46.9687 28.0781C48.6087 28.0781 49.9687 29.4381 49.9687 31.0781V60.718C49.9687 62.398 48.6087 63.718 46.9687 63.718Z" fill="#C7C7C7"/>
<path d="M62.0889 45.7169C61.2489 45.7169 60.3688 45.5569 59.4888 45.2769L50.1289 42.1568C46.6089 40.9968 43.9688 37.317 43.9688 33.597V31.117C43.9688 28.597 45.0089 26.397 46.8489 25.077C48.6889 23.757 51.0888 23.4369 53.4888 24.2369L62.8489 27.357C66.3689 28.517 69.0088 32.1968 69.0088 35.9168V38.3968C69.0088 40.9168 67.9689 43.1169 66.1289 44.4369C64.9689 45.2769 63.5689 45.7169 62.0889 45.7169ZM50.8489 29.797C50.6489 29.797 50.4489 29.8368 50.3289 29.9168C50.0889 30.0768 49.9287 30.517 49.9287 31.077V33.557C49.9287 34.677 50.9688 36.0769 52.0088 36.4369L61.3689 39.557C61.8889 39.717 62.3689 39.717 62.6089 39.557C62.8489 39.397 63.0088 38.9568 63.0088 38.3968V35.9168C63.0088 34.7968 61.9687 33.397 60.9287 33.037L51.5688 29.9168C51.3288 29.8368 51.0489 29.797 50.8489 29.797Z" fill="#C7C7C7"/>
</svg>
