<svg width="30" height="31" viewBox="0 0 30 31" fill="none" xmlns="http://www.w3.org/2000/svg">
<path d="M15 28.9375C7.5875 28.9375 1.5625 22.9125 1.5625 15.5C1.5625 8.0875 7.5875 2.0625 15 2.0625C22.4125 2.0625 28.4375 8.0875 28.4375 15.5C28.4375 22.9125 22.4125 28.9375 15 28.9375ZM15 3.9375C8.625 3.9375 3.4375 9.125 3.4375 15.5C3.4375 21.875 8.625 27.0625 15 27.0625C21.375 27.0625 26.5625 21.875 26.5625 15.5C26.5625 9.125 21.375 3.9375 15 3.9375Z" fill="#292D32"/>
<path d="M11.4617 19.9742C11.2242 19.9742 10.9867 19.8867 10.7992 19.6992C10.4367 19.3367 10.4367 18.7367 10.7992 18.3742L17.8742 11.2992C18.2367 10.9367 18.8367 10.9367 19.1992 11.2992C19.5617 11.6617 19.5617 12.2617 19.1992 12.6242L12.1242 19.6992C11.9492 19.8867 11.6992 19.9742 11.4617 19.9742Z" fill="#292D32"/>
<path d="M18.5367 19.9742C18.2992 19.9742 18.0617 19.8867 17.8742 19.6992L10.7992 12.6242C10.4367 12.2617 10.4367 11.6617 10.7992 11.2992C11.1617 10.9367 11.7617 10.9367 12.1242 11.2992L19.1992 18.3742C19.5617 18.7367 19.5617 19.3367 19.1992 19.6992C19.0117 19.8867 18.7742 19.9742 18.5367 19.9742Z" fill="#292D32"/>
</svg>
