<svg width="25" height="25" viewBox="0 0 25 25" fill="none" xmlns="http://www.w3.org/2000/svg">
<g clip-path="url(#clip0_5392_40071)">
<path d="M16.4428 16.6167L12.4428 12.6167M12.4428 12.6167L8.44283 16.6167M12.4428 12.6167V21.6167M20.8328 19.0067C21.8082 18.475 22.5787 17.6336 23.0227 16.6153C23.4667 15.5971 23.559 14.4599 23.285 13.3834C23.011 12.3068 22.3863 11.3522 21.5095 10.6701C20.6327 9.98806 19.5537 9.61742 18.4428 9.61668H17.1828C16.8801 8.44592 16.316 7.35902 15.5328 6.43768C14.7496 5.51633 13.7677 4.78453 12.6609 4.29729C11.5542 3.81005 10.3514 3.58004 9.14295 3.62457C7.93451 3.66909 6.7519 3.98698 5.68401 4.55435C4.61612 5.12171 3.69074 5.92379 2.97745 6.90026C2.26416 7.87674 1.78152 9.00222 1.56581 10.1921C1.3501 11.3819 1.40694 12.6052 1.73204 13.7699C2.05715 14.9347 2.64207 16.0105 3.44283 16.9167" stroke="white" stroke-width="2" stroke-linecap="round" stroke-linejoin="round"/>
</g>
<defs>
<clipPath id="clip0_5392_40071">
<rect width="24" height="24" fill="white" transform="translate(0.445312 0.617188)"/>
</clipPath>
</defs>
</svg>
