<svg width="21" height="20" viewBox="0 0 21 20" fill="none" xmlns="http://www.w3.org/2000/svg">
<path d="M9.7227 18.9583C9.28104 18.9583 8.83104 18.9249 8.38104 18.8499C4.9727 18.2999 2.1977 15.5333 1.6477 12.1249C0.939372 7.74161 3.76437 3.60828 8.08937 2.72494C8.43104 2.65828 8.75604 2.87494 8.83104 3.20828C8.8977 3.54994 8.68104 3.87494 8.3477 3.94994C4.68937 4.69994 2.28937 8.19994 2.89771 11.9249C3.36437 14.8083 5.70604 17.1499 8.58937 17.6166C12.331 18.2166 15.8227 15.8083 16.5644 12.1333C16.631 11.7916 16.9644 11.5749 17.2977 11.6416C17.6394 11.7083 17.856 12.0416 17.7894 12.3749C16.9977 16.2666 13.5977 18.9583 9.7227 18.9583Z" fill="white"/>
</svg>
