<svg width="17" height="18" viewBox="0 0 17 18" fill="none" xmlns="http://www.w3.org/2000/svg">
<path d="M15.6207 8.90006C15.5895 8.55353 15.422 8.23357 15.1549 8.01059C14.8878 7.7876 14.5431 7.67985 14.1965 7.71104C13.85 7.74223 13.53 7.9098 13.307 8.17689C13.0841 8.44398 12.9763 8.78872 13.0075 9.13526C13.1107 10.3084 12.8 11.4807 12.1294 12.4488C11.4059 13.4763 10.3439 14.2164 9.12944 14.5394C7.84117 14.8805 6.47347 14.7508 5.2723 14.1736C4.00106 13.5629 2.9866 12.5225 2.40819 11.2363C2.81214 12.6695 3.71005 13.9136 4.94303 14.7485C6.243 15.6088 7.80638 15.9793 9.35418 15.7938C10.9807 15.6212 12.4945 14.881 13.6294 13.7032C14.8083 12.4591 15.5131 10.8406 15.6207 9.13003V9.08822C15.6257 9.0256 15.6257 8.96269 15.6207 8.90006ZM3.71481 8.86348C3.61165 7.69031 3.92228 6.51803 4.59286 5.54989C5.3164 4.52243 6.37843 3.78234 7.59286 3.4593C8.88113 3.11821 10.2488 3.24794 11.45 3.82515C12.7212 4.43582 13.7357 5.4762 14.3141 6.76243C13.9102 5.32923 13.0123 4.08511 11.7793 3.25024C10.4793 2.38989 8.91593 2.01942 7.36812 2.20494C5.74157 2.37751 4.22784 3.11772 3.09286 4.29553C1.91397 5.53966 1.20924 7.15814 1.10157 8.86871V8.91052C1.09635 8.97487 1.09635 9.03954 1.10157 9.1039C1.13276 9.45043 1.30033 9.77039 1.56742 9.99337C1.83451 10.2164 2.17925 10.3241 2.52578 10.2929C2.87232 10.2617 3.19228 10.0942 3.41526 9.82707C3.63825 9.55998 3.746 9.21524 3.71481 8.86871V8.86348Z" fill="white"/>
</svg>
