<svg width="52" height="53" viewBox="0 0 52 53" fill="none" xmlns="http://www.w3.org/2000/svg">
<path d="M17.2682 49.7923C11.5916 49.7923 6.97656 45.1773 6.97656 39.5007C6.97656 33.824 11.5916 29.209 17.2682 29.209C22.9449 29.209 27.5599 33.824 27.5599 39.5007C27.5599 45.1773 22.9449 49.7923 17.2682 49.7923ZM17.2682 32.459C13.3899 32.459 10.2266 35.6223 10.2266 39.5007C10.2266 43.379 13.3899 46.5423 17.2682 46.5423C21.1466 46.5423 24.3099 43.379 24.3099 39.5007C24.3099 35.6223 21.1682 32.459 17.2682 32.459Z" fill="#0E0E10"/>
<path d="M25.9336 41.1243C25.0453 41.1243 24.3086 40.3877 24.3086 39.4993V9.16602C24.3086 8.27768 25.0453 7.54102 25.9336 7.54102C26.8219 7.54102 27.5586 8.27768 27.5586 9.16602V39.4993C27.5586 40.3877 26.8436 41.1243 25.9336 41.1243Z" fill="#0E0E10"/>
<path d="M41.4487 22.6654C40.7337 22.6654 39.9754 22.5354 39.2387 22.2971L29.662 19.1121C26.672 18.1154 24.332 14.8654 24.332 11.7238V9.16711C24.332 7.06544 25.1987 5.24544 26.672 4.16211C28.167 3.07878 30.1604 2.86211 32.1537 3.51211L41.7304 6.69711C44.7204 7.69378 47.0604 10.9438 47.0604 14.0854V16.6204C47.0604 18.7221 46.1937 20.5421 44.7204 21.6254C43.7887 22.3404 42.6404 22.6654 41.4487 22.6654ZM29.9437 6.39378C29.4237 6.39378 28.947 6.52378 28.5787 6.80544C27.9287 7.26044 27.582 8.10544 27.582 9.16711V11.7021C27.582 13.4354 29.0337 15.4504 30.6804 16.0138L40.257 19.1988C41.2537 19.5454 42.1854 19.4588 42.8137 19.0038C43.4637 18.5488 43.8104 17.7038 43.8104 16.6421V14.1071C43.8104 12.3738 42.3587 10.3588 40.712 9.79544L31.1354 6.61044C30.7237 6.45878 30.312 6.39378 29.9437 6.39378Z" fill="#0E0E10"/>
</svg>
