<svg width="26" height="26" viewBox="0 0 26 26" fill="none" xmlns="http://www.w3.org/2000/svg">
<path d="M8.26362 11.7235C7.86428 11.0062 7.0984 10.521 6.21919 10.521C4.92776 10.521 3.88086 11.5679 3.88086 12.8593C3.88086 14.1507 4.92776 15.1976 6.21919 15.1976C7.0984 15.1976 7.86428 14.7124 8.26362 13.9951M8.26362 11.7235C8.45085 12.0598 8.55751 12.4471 8.55751 12.8593C8.55751 13.2715 8.45085 13.6588 8.26362 13.9951M8.26362 11.7235L18.2047 6.20069M8.26362 13.9951L18.2047 19.5179M18.2047 19.5179C18.0175 19.8542 17.9108 20.2415 17.9108 20.6537C17.9108 21.9452 18.9577 22.9921 20.2491 22.9921C21.5406 22.9921 22.5875 21.9452 22.5875 20.6537C22.5875 19.3623 21.5406 18.3154 20.2491 18.3154C19.3699 18.3154 18.6041 18.8007 18.2047 19.5179ZM18.2047 6.20069C18.6041 6.91797 19.3699 7.40322 20.2491 7.40322C21.5406 7.40322 22.5875 6.35631 22.5875 5.06489C22.5875 3.77347 21.5406 2.72656 20.2491 2.72656C18.9577 2.72656 17.9108 3.77347 17.9108 5.06489C17.9108 5.4771 18.0175 5.8644 18.2047 6.20069Z" stroke="#F97316" stroke-width="1.87066" stroke-linecap="round" stroke-linejoin="round"/>
</svg>
