<svg width="24" height="24" viewBox="0 0 24 24" fill="none" xmlns="http://www.w3.org/2000/svg">
<path d="M12 7C11.45 7 11 6.55 11 6V2C11 1.45 11.45 1 12 1C12.55 1 13 1.45 13 2V6C13 6.55 12.55 7 12 7ZM12 23C11.45 23 11 22.55 11 22V18C11 17.45 11.45 17 12 17C12.55 17 13 17.45 13 18V22C13 22.55 12.55 23 12 23ZM22 13H18C17.45 13 17 12.55 17 12C17 11.45 17.45 11 18 11H22C22.55 11 23 11.45 23 12C23 12.55 22.55 13 22 13ZM6 13H2C1.45 13 1 12.55 1 12C1 11.45 1.45 11 2 11H6C6.55 11 7 11.45 7 12C7 12.55 6.55 13 6 13ZM19.07 20.07C18.81 20.07 18.56 19.97 18.36 19.78L15.53 16.95C15.4374 16.8574 15.364 16.7475 15.3139 16.6265C15.2638 16.5056 15.238 16.3759 15.238 16.245C15.238 16.1141 15.2638 15.9844 15.3139 15.8635C15.364 15.7425 15.4374 15.6326 15.53 15.54C15.6226 15.4474 15.7325 15.374 15.8535 15.3239C15.9744 15.2738 16.1041 15.248 16.235 15.248C16.3659 15.248 16.4956 15.2738 16.6165 15.3239C16.7375 15.374 16.8474 15.4474 16.94 15.54L19.77 18.37C19.9095 18.5097 20.0044 18.6876 20.0426 18.8813C20.0808 19.075 20.0606 19.2757 19.9845 19.4579C19.9084 19.64 19.7799 19.7955 19.6153 19.9045C19.4507 20.0135 19.2574 20.0711 19.06 20.07H19.07ZM7.76 8.76C7.5 8.76 7.25 8.66 7.05 8.47L4.22 5.64C4.12742 5.54742 4.05398 5.43751 4.00387 5.31654C3.95377 5.19558 3.92798 5.06593 3.92798 4.935C3.92798 4.80407 3.95377 4.67442 4.00387 4.55346C4.05398 4.43249 4.12742 4.32258 4.22 4.23C4.31258 4.13742 4.42249 4.06398 4.54346 4.01387C4.66442 3.96377 4.79407 3.93798 4.925 3.93798C5.05593 3.93798 5.18558 3.96377 5.30654 4.01387C5.42751 4.06398 5.53742 4.13742 5.63 4.23L8.46 7.06C8.59955 7.19965 8.69444 7.37762 8.73264 7.57132C8.77084 7.76501 8.75061 7.96569 8.67452 8.14786C8.59844 8.33003 8.46993 8.48549 8.30532 8.59448C8.14071 8.70347 7.94742 8.76108 7.75 8.76H7.76ZM4.93 20.07C4.67 20.07 4.42 19.97 4.22 19.78C4.1273 19.6875 4.05375 19.5776 4.00357 19.4566C3.95339 19.3357 3.92756 19.206 3.92756 19.075C3.92756 18.944 3.95339 18.8144 4.00357 18.6934C4.05375 18.5724 4.1273 18.4625 4.22 18.37L7.05 15.54C7.14258 15.4474 7.25249 15.374 7.37346 15.3239C7.49442 15.2738 7.62407 15.248 7.755 15.248C7.88593 15.248 8.01558 15.2738 8.13654 15.3239C8.25751 15.374 8.36742 15.4474 8.46 15.54C8.55258 15.6326 8.62602 15.7425 8.67613 15.8635C8.72623 15.9844 8.75202 16.1141 8.75202 16.245C8.75202 16.3759 8.72623 16.5056 8.67613 16.6265C8.62602 16.7475 8.55258 16.8574 8.46 16.95L5.63 19.78C5.43 19.98 5.18 20.07 4.92 20.07H4.93ZM16.24 8.76C15.98 8.76 15.73 8.66 15.53 8.47C15.4373 8.37749 15.3637 8.2676 15.3136 8.14662C15.2634 8.02565 15.2376 7.89597 15.2376 7.765C15.2376 7.63403 15.2634 7.50435 15.3136 7.38338C15.3637 7.2624 15.4373 7.15251 15.53 7.06L18.36 4.23C18.4526 4.13742 18.5625 4.06398 18.6835 4.01387C18.8044 3.96377 18.9341 3.93798 19.065 3.93798C19.1959 3.93798 19.3256 3.96377 19.4465 4.01387C19.5675 4.06398 19.6774 4.13742 19.77 4.23C19.8626 4.32258 19.936 4.43249 19.9861 4.55346C20.0362 4.67442 20.062 4.80407 20.062 4.935C20.062 5.06593 20.0362 5.19558 19.9861 5.31654C19.936 5.43751 19.8626 5.54742 19.77 5.64L16.94 8.47C16.74 8.67 16.49 8.76 16.23 8.76H16.24Z" fill="#3B82F6"/>
</svg>
