<svg width="46" height="46" viewBox="0 0 46 46" fill="none" xmlns="http://www.w3.org/2000/svg">
<g opacity="0.66">
<path fill-rule="evenodd" clip-rule="evenodd" d="M21.9405 6.47506C21.2342 6.18426 20.4223 6.34477 19.8822 6.88482L11.7758 15.7711H6.11094C5.07239 15.7711 4.22266 16.6227 4.22266 17.6594V28.989C4.22266 30.0276 5.07239 30.8773 6.11094 30.8773H11.7758L19.8822 39.7674C20.4223 40.3074 21.2342 40.4698 21.9405 40.1772C22.6467 39.8845 23.1055 39.1952 23.1055 38.4305V8.21795C23.1055 7.45697 22.6467 6.76397 21.9405 6.47506ZM26.8821 10.1061V13.8826C32.0881 13.8826 36.3236 18.12 36.3236 23.3242C36.3236 28.5302 32.0881 32.7656 26.8821 32.7656V36.5422C34.1709 36.5422 40.1001 30.6149 40.1001 23.3242C40.1001 16.0372 34.1709 10.1061 26.8821 10.1061ZM26.8821 17.6592C30.0053 17.6592 32.547 20.2028 32.547 23.3242C32.547 26.4493 30.0053 28.989 26.8821 28.989V25.2125C27.9226 25.2125 28.7704 24.3646 28.7704 23.3242C28.7704 22.2837 27.9226 21.4359 26.8821 21.4359V17.6592Z" fill="#0E0E10"/>
</g>
</svg>
