<svg width="298" height="61" viewBox="0 0 298 61" fill="none" xmlns="http://www.w3.org/2000/svg">
<rect opacity="0.66" x="0.667969" y="28.4297" width="3.77658" height="3.77658" rx="1.88829" fill="#0E0E10"/>
<rect opacity="0.66" x="11.9961" y="22.7656" width="3.77658" height="15.1063" rx="1.88829" fill="#0E0E10"/>
<rect opacity="0.66" x="23.3281" y="17.0996" width="3.77658" height="26.436" rx="1.88829" fill="#0E0E10"/>
<rect opacity="0.66" x="34.6562" y="26.541" width="3.77658" height="7.55315" rx="1.88829" fill="#0E0E10"/>
<rect opacity="0.66" x="45.9883" y="15.2109" width="3.77658" height="30.2126" rx="1.88829" fill="#0E0E10"/>
<rect opacity="0.66" x="57.3164" y="17.0996" width="3.77658" height="26.436" rx="1.88829" fill="#0E0E10"/>
<rect opacity="0.66" x="68.6445" y="20.877" width="3.77658" height="18.8829" rx="1.88829" fill="#0E0E10"/>
<rect opacity="0.66" x="79.9766" y="20.877" width="3.77658" height="18.8829" rx="1.88829" fill="#0E0E10"/>
<rect opacity="0.66" x="91.3047" y="20.877" width="3.77658" height="18.8829" rx="1.88829" fill="#0E0E10"/>
<rect opacity="0.66" x="102.637" y="17.0996" width="3.77658" height="26.436" rx="1.88829" fill="#0E0E10"/>
<rect opacity="0.66" x="113.965" y="20.877" width="3.77658" height="18.8829" rx="1.88829" fill="#0E0E10"/>
<rect opacity="0.66" x="125.295" y="15.2109" width="3.77658" height="30.2126" rx="1.88829" fill="#0E0E10"/>
<rect opacity="0.66" x="136.625" y="20.877" width="3.77658" height="18.8829" rx="1.88829" fill="#0E0E10"/>
<rect opacity="0.66" x="147.955" y="26.541" width="3.77658" height="7.55315" rx="1.88829" fill="#0E0E10"/>
<rect opacity="0.66" x="159.283" y="28.4297" width="3.77658" height="3.77658" rx="1.88829" fill="#0E0E10"/>
</svg>
