<svg width="96" height="96" viewBox="0 0 96 96" fill="none" xmlns="http://www.w3.org/2000/svg">
<path d="M73.4404 90.9999H22.3604C16.2804 90.9999 10.7204 87.9199 7.52044 82.7199C4.32044 77.5199 4.04044 71.1999 6.76044 65.7199L13.6404 51.9199C15.8804 47.4399 19.4804 44.64 23.5204 44.2C27.5604 43.76 31.6804 45.7599 34.8004 49.6399L35.6804 50.7599C37.4404 52.9199 39.4804 54.0799 41.4804 53.8799C43.4804 53.7199 45.3204 52.2799 46.6804 49.8399L54.2404 36.2C57.3604 30.56 61.5204 27.64 66.0404 27.84C70.5204 28.08 74.3604 31.44 76.9204 37.36L89.4404 66.5999C91.7604 71.9999 91.2004 78.1599 87.9604 83.0799C84.7604 88.0799 79.3204 90.9999 73.4404 90.9999ZM24.6404 50.1999C24.4804 50.1999 24.3204 50.2 24.1604 50.24C22.1604 50.44 20.3204 52.0399 19.0004 54.6399L12.1204 68.44C10.3204 72 10.5204 76.1999 12.6004 79.5999C14.6804 82.9999 18.3604 85.0399 22.3604 85.0399H73.4004C77.3204 85.0399 80.8004 83.1599 82.9604 79.8799C85.1204 76.5999 85.4804 72.6799 83.9204 69.0799L71.4004 39.8399C69.8804 36.24 67.7604 34.0399 65.7204 33.9599C63.8404 33.8399 61.4004 35.84 59.4804 39.24L51.9204 52.8799C49.6004 57.0399 45.9604 59.6399 42.0004 59.9999C38.0404 60.3199 34.0004 58.3999 31.0004 54.6399L30.1204 53.5199C28.4404 51.3199 26.5204 50.1999 24.6404 50.1999Z" fill="#99999B"/>
<path d="M27.8809 34.9998C19.6409 34.9998 12.8809 28.2798 12.8809 19.9998C12.8809 11.7198 19.6009 4.99976 27.8809 4.99976C36.1609 4.99976 42.8809 11.7198 42.8809 19.9998C42.8809 28.2798 36.1609 34.9998 27.8809 34.9998ZM27.8809 10.9998C22.9209 10.9998 18.8809 15.0398 18.8809 19.9998C18.8809 24.9598 22.9209 28.9998 27.8809 28.9998C32.8409 28.9998 36.8809 24.9598 36.8809 19.9998C36.8809 15.0398 32.8409 10.9998 27.8809 10.9998Z" fill="#99999B"/>
</svg>
