<svg width="336" height="309" viewBox="0 0 336 309" fill="none" xmlns="http://www.w3.org/2000/svg">
<rect x="1" y="0.5" width="334" height="308" rx="23.5" fill="white"/>
<rect x="1" y="0.5" width="334" height="308" rx="23.5" stroke="#F1BFF5"/>
<rect x="22.5" y="58" width="291" height="53.5522" rx="9.08692" fill="#F97316"/>
<path d="M104.442 90.5261C104.342 90.5261 104.252 90.5061 104.152 90.4661C103.872 90.3561 103.692 90.0761 103.692 89.7761V83.7761C103.692 83.3661 104.032 83.0261 104.442 83.0261C104.852 83.0261 105.192 83.3661 105.192 83.7761V87.9661L105.912 87.2461C106.202 86.9561 106.682 86.9561 106.972 87.2461C107.262 87.5361 107.262 88.0161 106.972 88.3061L104.972 90.3061C104.832 90.4461 104.632 90.5261 104.442 90.5261Z" fill="white"/>
<path d="M104.443 90.5261C104.253 90.5261 104.063 90.4561 103.913 90.3061L101.913 88.3061C101.623 88.0161 101.623 87.5361 101.913 87.2461C102.203 86.9561 102.683 86.9561 102.973 87.2461L104.973 89.2461C105.263 89.5361 105.263 90.0161 104.973 90.3061C104.823 90.4561 104.633 90.5261 104.443 90.5261Z" fill="white"/>
<path d="M110.442 95.5261H104.442C99.0124 95.5261 96.6924 93.2061 96.6924 87.7761V81.7761C96.6924 76.3461 99.0124 74.0261 104.442 74.0261H109.442C109.852 74.0261 110.192 74.3661 110.192 74.7761C110.192 75.1861 109.852 75.5261 109.442 75.5261H104.442C99.8324 75.5261 98.1924 77.1661 98.1924 81.7761V87.7761C98.1924 92.3861 99.8324 94.0261 104.442 94.0261H110.442C115.052 94.0261 116.692 92.3861 116.692 87.7761V82.7761C116.692 82.3661 117.032 82.0261 117.442 82.0261C117.852 82.0261 118.192 82.3661 118.192 82.7761V87.7761C118.192 93.2061 115.872 95.5261 110.442 95.5261Z" fill="white"/>
<path d="M117.442 83.5261H113.442C110.022 83.5261 108.692 82.1961 108.692 78.7761V74.7761C108.692 74.4761 108.872 74.1961 109.152 74.0861C109.432 73.9661 109.752 74.0361 109.972 74.2461L117.972 82.2461C118.182 82.4561 118.252 82.7861 118.132 83.0661C118.012 83.3461 117.742 83.5261 117.442 83.5261ZM110.192 76.5861V78.7761C110.192 81.3561 110.862 82.0261 113.442 82.0261H115.632L110.192 76.5861Z" fill="white"/>
<path d="M132.568 90.2761V79.8952H135.769C135.874 79.8952 136.059 79.8976 136.324 79.9024C136.588 79.9072 136.84 79.9265 137.081 79.9601C137.883 80.0658 138.554 80.359 139.092 80.8396C139.635 81.3154 140.044 81.9209 140.317 82.6563C140.591 83.3916 140.728 84.2014 140.728 85.0857C140.728 85.97 140.591 86.7798 140.317 87.5151C140.044 88.2504 139.635 88.8584 139.092 89.339C138.554 89.8147 137.883 90.1055 137.081 90.2112C136.84 90.2401 136.586 90.2593 136.317 90.2689C136.052 90.2737 135.87 90.2761 135.769 90.2761H132.568ZM133.887 89.0506H135.769C135.951 89.0506 136.156 89.0458 136.381 89.0362C136.607 89.0218 136.804 89.0001 136.973 88.9713C137.54 88.8656 137.999 88.6277 138.349 88.2576C138.7 87.8876 138.957 87.4262 139.121 86.8735C139.284 86.3208 139.366 85.7249 139.366 85.0857C139.366 84.4321 139.282 83.8289 139.114 83.2762C138.95 82.7235 138.693 82.2646 138.342 81.8993C137.991 81.5341 137.535 81.301 136.973 81.2C136.804 81.1664 136.605 81.1448 136.374 81.1352C136.143 81.1256 135.942 81.1207 135.769 81.1207H133.887V89.0506ZM145.698 90.4924C144.924 90.4924 144.256 90.317 143.694 89.9661C143.136 89.6153 142.706 89.1299 142.403 88.5099C142.1 87.89 141.949 87.1787 141.949 86.3761C141.949 85.5591 142.103 84.843 142.41 84.2278C142.718 83.6126 143.153 83.1345 143.715 82.7932C144.278 82.4472 144.938 82.2742 145.698 82.2742C146.476 82.2742 147.147 82.4496 147.709 82.8004C148.271 83.1465 148.701 83.6295 148.999 84.2494C149.302 84.8646 149.454 85.5735 149.454 86.3761C149.454 87.1883 149.302 87.9044 148.999 88.5243C148.697 89.1395 148.264 89.6225 147.702 89.9733C147.14 90.3194 146.471 90.4924 145.698 90.4924ZM145.698 89.2741C146.505 89.2741 147.106 89.0049 147.5 88.4667C147.894 87.9284 148.091 87.2315 148.091 86.3761C148.091 85.4966 147.892 84.7973 147.493 84.2783C147.094 83.7544 146.496 83.4925 145.698 83.4925C145.155 83.4925 144.708 83.615 144.357 83.8602C144.006 84.1053 143.744 84.4441 143.571 84.8766C143.398 85.3092 143.312 85.809 143.312 86.3761C143.312 87.2508 143.513 87.9524 143.917 88.4811C144.321 89.0097 144.914 89.2741 145.698 89.2741ZM152.417 90.2761L150.038 82.4832L151.314 82.4905L153.052 88.1855L154.803 82.4905H155.935L157.68 88.1855L159.424 82.4905H160.693L158.314 90.2761H157.247L155.366 84.3576L153.484 90.2761H152.417ZM167.539 90.2761V86.3761C167.539 86.006 167.505 85.6504 167.438 85.3092C167.375 84.9679 167.262 84.6627 167.099 84.3936C166.94 84.1197 166.724 83.9034 166.45 83.7448C166.181 83.5862 165.84 83.5069 165.426 83.5069C165.104 83.5069 164.811 83.5622 164.547 83.6727C164.287 83.7785 164.064 83.9419 163.877 84.1629C163.689 84.384 163.543 84.6627 163.437 84.9992C163.336 85.3308 163.285 85.7225 163.285 86.1742L162.442 85.9147C162.442 85.1602 162.577 84.5138 162.846 83.9755C163.12 83.4324 163.502 83.0167 163.992 82.7283C164.487 82.4352 165.068 82.2886 165.736 82.2886C166.241 82.2886 166.671 82.3679 167.027 82.5265C167.383 82.6851 167.678 82.8966 167.914 83.1609C168.149 83.4204 168.334 83.7136 168.469 84.0404C168.603 84.3624 168.697 84.6916 168.75 85.028C168.807 85.3596 168.836 85.6744 168.836 85.9724V90.2761H167.539ZM161.988 90.2761V82.4905H163.141V84.5738H163.285V90.2761H161.988ZM170.855 90.2761V79.679H172.138V90.2761H170.855ZM177.617 90.4924C176.843 90.4924 176.175 90.317 175.613 89.9661C175.055 89.6153 174.625 89.1299 174.323 88.5099C174.02 87.89 173.868 87.1787 173.868 86.3761C173.868 85.5591 174.022 84.843 174.33 84.2278C174.637 83.6126 175.072 83.1345 175.635 82.7932C176.197 82.4472 176.858 82.2742 177.617 82.2742C178.396 82.2742 179.066 82.4496 179.628 82.8004C180.191 83.1465 180.621 83.6295 180.919 84.2494C181.222 84.8646 181.373 85.5735 181.373 86.3761C181.373 87.1883 181.222 87.9044 180.919 88.5243C180.616 89.1395 180.183 89.6225 179.621 89.9733C179.059 90.3194 178.391 90.4924 177.617 90.4924ZM177.617 89.2741C178.424 89.2741 179.025 89.0049 179.419 88.4667C179.813 87.9284 180.01 87.2315 180.01 86.3761C180.01 85.4966 179.811 84.7973 179.412 84.2783C179.013 83.7544 178.415 83.4925 177.617 83.4925C177.074 83.4925 176.627 83.615 176.276 83.8602C175.925 84.1053 175.663 84.4441 175.49 84.8766C175.317 85.3092 175.231 85.809 175.231 86.3761C175.231 87.2508 175.433 87.9524 175.836 88.4811C176.24 89.0097 176.834 89.2741 177.617 89.2741ZM185.173 90.4924C184.592 90.4924 184.104 90.3867 183.71 90.1752C183.321 89.9589 183.025 89.6754 182.823 89.3245C182.626 88.9737 182.528 88.5892 182.528 88.1711C182.528 87.7626 182.604 87.4094 182.758 87.1114C182.917 86.8086 183.138 86.5587 183.422 86.3617C183.705 86.1598 184.044 86.0012 184.438 85.8859C184.808 85.7849 185.221 85.6984 185.678 85.6263C186.139 85.5495 186.605 85.4798 187.076 85.4173C187.547 85.3548 187.987 85.2947 188.396 85.2371L187.934 85.5038C187.949 84.8117 187.809 84.2999 187.516 83.9683C187.228 83.6367 186.728 83.4709 186.017 83.4709C185.546 83.4709 185.132 83.579 184.777 83.7953C184.426 84.0067 184.178 84.3528 184.034 84.8334L182.816 84.4657C183.003 83.7833 183.366 83.2474 183.905 82.8581C184.443 82.4688 185.152 82.2742 186.031 82.2742C186.738 82.2742 187.343 82.4015 187.848 82.6563C188.357 82.9062 188.722 83.2858 188.944 83.7953C189.054 84.0356 189.124 84.2975 189.153 84.581C189.181 84.8598 189.196 85.153 189.196 85.4605V90.2761H188.057V88.409L188.324 88.582C188.03 89.2116 187.62 89.6874 187.091 90.0094C186.567 90.3314 185.928 90.4924 185.173 90.4924ZM185.368 89.4183C185.829 89.4183 186.228 89.3366 186.565 89.1732C186.906 89.0049 187.18 88.7863 187.386 88.5171C187.593 88.2432 187.728 87.9452 187.79 87.6232C187.862 87.3829 187.901 87.1162 187.905 86.823C187.915 86.5251 187.92 86.2968 187.92 86.1382L188.367 86.3328C187.949 86.3905 187.538 86.4458 187.134 86.4986C186.73 86.5515 186.348 86.6092 185.988 86.6716C185.627 86.7293 185.303 86.799 185.015 86.8807C184.803 86.948 184.604 87.0345 184.416 87.1402C184.234 87.246 184.085 87.3829 183.969 87.5511C183.859 87.7145 183.804 87.9188 183.804 88.1639C183.804 88.3754 183.856 88.5772 183.962 88.7695C184.073 88.9617 184.241 89.1179 184.467 89.238C184.697 89.3582 184.998 89.4183 185.368 89.4183ZM194.127 90.4924C193.401 90.4924 192.779 90.3122 192.26 89.9517C191.741 89.5865 191.339 89.0939 191.056 88.4739C190.777 87.8539 190.638 87.1546 190.638 86.3761C190.638 85.5975 190.777 84.8982 191.056 84.2783C191.339 83.6583 191.741 83.1705 192.26 82.8149C192.779 82.4544 193.399 82.2742 194.12 82.2742C194.855 82.2742 195.472 82.452 195.972 82.8076C196.472 83.1633 196.849 83.6511 197.104 84.2711C197.364 84.891 197.493 85.5927 197.493 86.3761C197.493 87.1498 197.364 87.8491 197.104 88.4739C196.849 89.0939 196.472 89.5865 195.972 89.9517C195.472 90.3122 194.857 90.4924 194.127 90.4924ZM194.285 89.3173C194.809 89.3173 195.239 89.1924 195.576 88.9425C195.912 88.6877 196.16 88.3393 196.318 87.8972C196.482 87.4502 196.563 86.9432 196.563 86.3761C196.563 85.7994 196.482 85.2923 196.318 84.855C196.16 84.4128 195.915 84.0692 195.583 83.8241C195.251 83.5742 194.831 83.4492 194.321 83.4492C193.793 83.4492 193.355 83.579 193.009 83.8385C192.668 84.098 192.413 84.4489 192.245 84.891C192.082 85.3332 192 85.8282 192 86.3761C192 86.9288 192.084 87.4286 192.252 87.8755C192.421 88.3177 192.673 88.6685 193.009 88.928C193.351 89.1876 193.776 89.3173 194.285 89.3173ZM196.563 90.2761V84.545H196.419V79.8952H197.71V90.2761H196.563ZM205.153 90.2761L201.679 79.8952H203.012L206.033 88.9136L209.082 79.8952H210.416L206.941 90.2761H205.153ZM211.363 81.1135V79.7871H212.646V81.1135H211.363ZM211.363 90.2761V82.4905H212.646V90.2761H211.363ZM217.866 90.4924C217.14 90.4924 216.518 90.3122 215.999 89.9517C215.479 89.5865 215.078 89.0939 214.795 88.4739C214.516 87.8539 214.377 87.1546 214.377 86.3761C214.377 85.5975 214.516 84.8982 214.795 84.2783C215.078 83.6583 215.479 83.1705 215.999 82.8149C216.518 82.4544 217.138 82.2742 217.858 82.2742C218.594 82.2742 219.211 82.452 219.711 82.8076C220.211 83.1633 220.588 83.6511 220.843 84.2711C221.102 84.891 221.232 85.5927 221.232 86.3761C221.232 87.1498 221.102 87.8491 220.843 88.4739C220.588 89.0939 220.211 89.5865 219.711 89.9517C219.211 90.3122 218.596 90.4924 217.866 90.4924ZM218.024 89.3173C218.548 89.3173 218.978 89.1924 219.315 88.9425C219.651 88.6877 219.899 88.3393 220.057 87.8972C220.221 87.4502 220.302 86.9432 220.302 86.3761C220.302 85.7994 220.221 85.2923 220.057 84.855C219.899 84.4128 219.653 84.0692 219.322 83.8241C218.99 83.5742 218.57 83.4492 218.06 83.4492C217.532 83.4492 217.094 83.579 216.748 83.8385C216.407 84.098 216.152 84.4489 215.984 84.891C215.821 85.3332 215.739 85.8282 215.739 86.3761C215.739 86.9288 215.823 87.4286 215.991 87.8755C216.16 88.3177 216.412 88.6685 216.748 88.928C217.089 89.1876 217.515 89.3173 218.024 89.3173ZM220.302 90.2761V84.545H220.158V79.8952H221.449V90.2761H220.302ZM226.842 90.4924C226.078 90.4924 225.41 90.3242 224.838 89.9878C224.271 89.6465 223.829 89.1732 223.512 88.5676C223.194 87.9572 223.036 87.246 223.036 86.4337C223.036 85.5831 223.192 84.8478 223.504 84.2278C223.817 83.603 224.252 83.1224 224.809 82.786C225.371 82.4448 226.03 82.2742 226.784 82.2742C227.568 82.2742 228.233 82.4544 228.781 82.8149C229.334 83.1753 229.747 83.6895 230.021 84.3576C230.3 85.0256 230.42 85.821 230.382 86.7437H229.084V86.2824C229.07 85.326 228.875 84.6123 228.5 84.1413C228.125 83.6655 227.568 83.4276 226.828 83.4276C226.035 83.4276 225.431 83.6823 225.018 84.1918C224.605 84.7012 224.398 85.4317 224.398 86.3833C224.398 87.3012 224.605 88.0125 225.018 88.5171C225.431 89.0218 226.02 89.2741 226.784 89.2741C227.299 89.2741 227.746 89.1563 228.125 88.9208C228.505 88.6853 228.803 88.3465 229.019 87.9044L230.252 88.3297C229.949 89.017 229.493 89.5504 228.882 89.9301C228.277 90.305 227.597 90.4924 226.842 90.4924ZM223.966 86.7437V85.7129H229.718V86.7437H223.966ZM235.303 90.4924C234.529 90.4924 233.861 90.317 233.299 89.9661C232.741 89.6153 232.311 89.1299 232.008 88.5099C231.706 87.89 231.554 87.1787 231.554 86.3761C231.554 85.5591 231.708 84.843 232.015 84.2278C232.323 83.6126 232.758 83.1345 233.32 82.7932C233.883 82.4472 234.543 82.2742 235.303 82.2742C236.081 82.2742 236.752 82.4496 237.314 82.8004C237.876 83.1465 238.307 83.6295 238.604 84.2494C238.907 84.8646 239.059 85.5735 239.059 86.3761C239.059 87.1883 238.907 87.9044 238.604 88.5243C238.302 89.1395 237.869 89.6225 237.307 89.9733C236.745 90.3194 236.077 90.4924 235.303 90.4924ZM235.303 89.2741C236.11 89.2741 236.711 89.0049 237.105 88.4667C237.499 87.9284 237.696 87.2315 237.696 86.3761C237.696 85.4966 237.497 84.7973 237.098 84.2783C236.699 83.7544 236.101 83.4925 235.303 83.4925C234.76 83.4925 234.313 83.615 233.962 83.8602C233.611 84.1053 233.349 84.4441 233.176 84.8766C233.003 85.3092 232.917 85.809 232.917 86.3761C232.917 87.2508 233.118 87.9524 233.522 88.4811C233.926 89.0097 234.519 89.2741 235.303 89.2741Z" fill="white"/>
<rect x="150.5" y="120" width="163" height="132" rx="8" fill="white"/>
<rect x="151" y="120.5" width="162" height="131" rx="7.5" stroke="black" stroke-opacity="0.1"/>
<rect width="163" height="36" transform="translate(150.5 128)" fill="#FADFFC" fill-opacity="0.6"/>
<path d="M217.668 141.296V152H216.196V142.864L213.7 144.384L213.06 143.344L216.372 141.296H217.668ZM223.886 141.136C225.07 141.136 225.961 141.611 226.558 142.56C227.166 143.499 227.47 144.864 227.47 146.656C227.47 148.448 227.166 149.819 226.558 150.768C225.961 151.717 225.07 152.192 223.886 152.192C222.702 152.192 221.806 151.717 221.198 150.768C220.601 149.819 220.302 148.448 220.302 146.656C220.302 144.864 220.601 143.499 221.198 142.56C221.806 141.611 222.702 141.136 223.886 141.136ZM223.886 142.304C223.193 142.304 222.675 142.645 222.334 143.328C222.003 144.011 221.838 145.12 221.838 146.656C221.838 148.192 222.003 149.307 222.334 150C222.675 150.683 223.193 151.024 223.886 151.024C224.569 151.024 225.081 150.683 225.422 150C225.763 149.307 225.934 148.192 225.934 146.656C225.934 145.131 225.763 144.027 225.422 143.344C225.081 142.651 224.569 142.304 223.886 142.304ZM234.184 146.256C235.688 146.864 236.44 147.824 236.44 149.136C236.44 149.723 236.28 150.251 235.96 150.72C235.65 151.179 235.213 151.541 234.648 151.808C234.082 152.064 233.442 152.192 232.728 152.192C232.002 152.192 231.362 152.064 230.808 151.808C230.253 151.552 229.821 151.195 229.512 150.736C229.213 150.277 229.064 149.755 229.064 149.168C229.064 148.507 229.24 147.952 229.592 147.504C229.954 147.056 230.482 146.683 231.176 146.384C230.61 146.096 230.189 145.749 229.912 145.344C229.645 144.928 229.512 144.443 229.512 143.888C229.512 143.312 229.661 142.816 229.96 142.4C230.269 141.984 230.669 141.669 231.16 141.456C231.661 141.243 232.194 141.136 232.76 141.136C233.314 141.136 233.837 141.237 234.328 141.44C234.829 141.643 235.234 141.952 235.544 142.368C235.853 142.773 236.008 143.264 236.008 143.84C236.008 144.373 235.858 144.832 235.56 145.216C235.261 145.6 234.802 145.947 234.184 146.256ZM232.76 142.24C232.205 142.24 231.762 142.384 231.432 142.672C231.112 142.96 230.952 143.371 230.952 143.904C230.952 144.416 231.106 144.805 231.416 145.072C231.736 145.339 232.242 145.584 232.936 145.808L233.208 145.904C233.688 145.627 234.034 145.333 234.248 145.024C234.461 144.715 234.568 144.336 234.568 143.888C234.568 143.387 234.408 142.987 234.088 142.688C233.778 142.389 233.336 142.24 232.76 142.24ZM232.744 151.024C233.405 151.024 233.928 150.853 234.312 150.512C234.706 150.171 234.904 149.717 234.904 149.152C234.904 148.768 234.829 148.448 234.68 148.192C234.53 147.925 234.29 147.696 233.96 147.504C233.629 147.301 233.165 147.099 232.568 146.896L232.168 146.752C231.634 147.008 231.24 147.333 230.984 147.728C230.728 148.112 230.6 148.592 230.6 149.168C230.6 149.755 230.792 150.213 231.176 150.544C231.56 150.864 232.082 151.024 232.744 151.024ZM241.62 141.136C242.804 141.136 243.695 141.611 244.292 142.56C244.9 143.499 245.204 144.864 245.204 146.656C245.204 148.448 244.9 149.819 244.292 150.768C243.695 151.717 242.804 152.192 241.62 152.192C240.436 152.192 239.54 151.717 238.932 150.768C238.335 149.819 238.036 148.448 238.036 146.656C238.036 144.864 238.335 143.499 238.932 142.56C239.54 141.611 240.436 141.136 241.62 141.136ZM241.62 142.304C240.927 142.304 240.41 142.645 240.068 143.328C239.738 144.011 239.572 145.12 239.572 146.656C239.572 148.192 239.738 149.307 240.068 150C240.41 150.683 240.927 151.024 241.62 151.024C242.303 151.024 242.815 150.683 243.156 150C243.498 149.307 243.668 148.192 243.668 146.656C243.668 145.131 243.498 144.027 243.156 143.344C242.815 142.651 242.303 142.304 241.62 142.304ZM251.47 143.376C252.547 143.376 253.337 143.76 253.838 144.528C254.339 145.296 254.59 146.379 254.59 147.776C254.59 149.099 254.302 150.165 253.726 150.976C253.15 151.787 252.334 152.192 251.278 152.192C250.339 152.192 249.603 151.872 249.07 151.232V155.232L247.598 155.408V143.568H248.862L248.974 144.704C249.283 144.277 249.657 143.952 250.094 143.728C250.531 143.493 250.99 143.376 251.47 143.376ZM250.926 150.992C252.313 150.992 253.006 149.92 253.006 147.776C253.006 145.621 252.371 144.544 251.102 144.544C250.686 144.544 250.307 144.667 249.966 144.912C249.625 145.157 249.326 145.472 249.07 145.856V149.968C249.283 150.299 249.55 150.555 249.87 150.736C250.19 150.907 250.542 150.992 250.926 150.992Z" fill="black"/>
<path d="M226.124 176.296V177.4L222.124 187.16L220.78 186.712L224.636 177.496H219.9V176.296H226.124ZM230.023 176.136C230.663 176.136 231.223 176.264 231.703 176.52C232.194 176.776 232.572 177.128 232.839 177.576C233.106 178.013 233.239 178.509 233.239 179.064C233.239 179.715 233.09 180.339 232.791 180.936C232.503 181.533 232.055 182.179 231.447 182.872C230.839 183.565 229.916 184.531 228.679 185.768H233.495L233.319 187H226.999V185.832C228.428 184.349 229.442 183.267 230.039 182.584C230.636 181.891 231.063 181.288 231.319 180.776C231.575 180.264 231.703 179.715 231.703 179.128C231.703 178.573 231.543 178.141 231.223 177.832C230.903 177.512 230.476 177.352 229.943 177.352C229.506 177.352 229.122 177.443 228.791 177.624C228.46 177.805 228.108 178.104 227.735 178.52L226.775 177.752C227.212 177.208 227.698 176.803 228.231 176.536C228.764 176.269 229.362 176.136 230.023 176.136ZM238.761 176.136C239.945 176.136 240.836 176.611 241.433 177.56C242.041 178.499 242.345 179.864 242.345 181.656C242.345 183.448 242.041 184.819 241.433 185.768C240.836 186.717 239.945 187.192 238.761 187.192C237.577 187.192 236.681 186.717 236.073 185.768C235.476 184.819 235.177 183.448 235.177 181.656C235.177 179.864 235.476 178.499 236.073 177.56C236.681 176.611 237.577 176.136 238.761 176.136ZM238.761 177.304C238.068 177.304 237.55 177.645 237.209 178.328C236.878 179.011 236.713 180.12 236.713 181.656C236.713 183.192 236.878 184.307 237.209 185C237.55 185.683 238.068 186.024 238.761 186.024C239.444 186.024 239.956 185.683 240.297 185C240.638 184.307 240.809 183.192 240.809 181.656C240.809 180.131 240.638 179.027 240.297 178.344C239.956 177.651 239.444 177.304 238.761 177.304ZM248.611 178.376C249.688 178.376 250.477 178.76 250.979 179.528C251.48 180.296 251.731 181.379 251.731 182.776C251.731 184.099 251.443 185.165 250.867 185.976C250.291 186.787 249.475 187.192 248.419 187.192C247.48 187.192 246.744 186.872 246.211 186.232V190.232L244.739 190.408V178.568H246.003L246.115 179.704C246.424 179.277 246.797 178.952 247.235 178.728C247.672 178.493 248.131 178.376 248.611 178.376ZM248.067 185.992C249.453 185.992 250.147 184.92 250.147 182.776C250.147 180.621 249.512 179.544 248.243 179.544C247.827 179.544 247.448 179.667 247.107 179.912C246.765 180.157 246.467 180.472 246.211 180.856V184.968C246.424 185.299 246.691 185.555 247.011 185.736C247.331 185.907 247.683 185.992 248.067 185.992Z" fill="black"/>
<path d="M219.1 219.136C219.761 219.136 220.327 219.259 220.796 219.504C221.276 219.749 221.639 220.08 221.884 220.496C222.14 220.912 222.268 221.365 222.268 221.856C222.268 222.507 222.076 223.045 221.692 223.472C221.319 223.888 220.817 224.171 220.188 224.32C220.903 224.384 221.484 224.64 221.932 225.088C222.38 225.536 222.604 226.144 222.604 226.912C222.604 227.531 222.455 228.091 222.156 228.592C221.857 229.093 221.431 229.488 220.876 229.776C220.321 230.053 219.681 230.192 218.956 230.192C218.305 230.192 217.708 230.075 217.164 229.84C216.62 229.595 216.145 229.232 215.74 228.752L216.62 227.936C216.972 228.299 217.329 228.565 217.692 228.736C218.065 228.907 218.471 228.992 218.908 228.992C219.58 228.992 220.108 228.805 220.492 228.432C220.876 228.048 221.068 227.536 221.068 226.896C221.068 226.192 220.887 225.696 220.524 225.408C220.161 225.12 219.633 224.976 218.94 224.976H218.14L218.316 223.84H218.86C219.415 223.84 219.873 223.675 220.236 223.344C220.609 223.013 220.796 222.549 220.796 221.952C220.796 221.451 220.636 221.056 220.316 220.768C219.996 220.469 219.564 220.32 219.02 220.32C218.604 220.32 218.22 220.395 217.868 220.544C217.527 220.693 217.175 220.939 216.812 221.28L216.044 220.4C216.951 219.557 217.969 219.136 219.1 219.136ZM228.412 222.96C228.956 222.96 229.452 223.088 229.9 223.344C230.348 223.6 230.706 223.984 230.972 224.496C231.239 225.008 231.372 225.632 231.372 226.368C231.372 227.125 231.218 227.797 230.908 228.384C230.61 228.96 230.199 229.408 229.676 229.728C229.164 230.037 228.594 230.192 227.964 230.192C226.716 230.192 225.804 229.733 225.228 228.816C224.652 227.888 224.364 226.608 224.364 224.976C224.364 223.813 224.524 222.795 224.844 221.92C225.175 221.035 225.644 220.352 226.252 219.872C226.86 219.381 227.58 219.136 228.412 219.136C229.223 219.136 229.959 219.355 230.62 219.792L230.044 220.768C229.543 220.459 228.994 220.304 228.396 220.304C227.628 220.304 227.02 220.672 226.572 221.408C226.124 222.144 225.879 223.131 225.836 224.368C226.498 223.429 227.356 222.96 228.412 222.96ZM227.964 229.024C228.583 229.024 229.058 228.789 229.388 228.32C229.719 227.851 229.884 227.216 229.884 226.416C229.884 224.891 229.308 224.128 228.156 224.128C227.687 224.128 227.255 224.261 226.86 224.528C226.466 224.784 226.13 225.141 225.852 225.6C225.884 226.773 226.066 227.637 226.396 228.192C226.738 228.747 227.26 229.024 227.964 229.024ZM236.48 219.136C237.664 219.136 238.554 219.611 239.152 220.56C239.76 221.499 240.064 222.864 240.064 224.656C240.064 226.448 239.76 227.819 239.152 228.768C238.554 229.717 237.664 230.192 236.48 230.192C235.296 230.192 234.4 229.717 233.792 228.768C233.194 227.819 232.896 226.448 232.896 224.656C232.896 222.864 233.194 221.499 233.792 220.56C234.4 219.611 235.296 219.136 236.48 219.136ZM236.48 220.304C235.786 220.304 235.269 220.645 234.928 221.328C234.597 222.011 234.432 223.12 234.432 224.656C234.432 226.192 234.597 227.307 234.928 228C235.269 228.683 235.786 229.024 236.48 229.024C237.162 229.024 237.674 228.683 238.016 228C238.357 227.307 238.528 226.192 238.528 224.656C238.528 223.131 238.357 222.027 238.016 221.344C237.674 220.651 237.162 220.304 236.48 220.304ZM246.33 221.376C247.407 221.376 248.196 221.76 248.698 222.528C249.199 223.296 249.45 224.379 249.45 225.776C249.45 227.099 249.162 228.165 248.586 228.976C248.01 229.787 247.194 230.192 246.138 230.192C245.199 230.192 244.463 229.872 243.93 229.232V233.232L242.458 233.408V221.568H243.722L243.834 222.704C244.143 222.277 244.516 221.952 244.954 221.728C245.391 221.493 245.85 221.376 246.33 221.376ZM245.786 228.992C247.172 228.992 247.866 227.92 247.866 225.776C247.866 223.621 247.231 222.544 245.962 222.544C245.546 222.544 245.167 222.667 244.826 222.912C244.484 223.157 244.186 223.472 243.93 223.856V227.968C244.143 228.299 244.41 228.555 244.73 228.736C245.05 228.907 245.402 228.992 245.786 228.992Z" fill="black"/>
</svg>
