<svg width="336" height="308" viewBox="0 0 336 308" fill="none" xmlns="http://www.w3.org/2000/svg">
<rect x="1.5" y="1" width="333" height="306" rx="15" stroke="#F1BFF5" stroke-width="2" stroke-dasharray="16 4"/>
<path d="M188 104V97C188 92.0294 183.971 88 179 88H175C173.343 88 172 86.6569 172 85V81C172 76.0294 167.971 72 163 72H158M176 104L168 96M168 96L160 104M168 96L168 112M164 72H151C149.343 72 148 73.3431 148 75V121C148 122.657 149.343 124 151 124H185C186.657 124 188 122.657 188 121V96C188 82.7452 177.255 72 164 72Z" stroke="#667085" stroke-width="1.5" stroke-linecap="round" stroke-linejoin="round"/>
<path d="M75.2607 183.42C73.2447 183.42 71.5274 182.981 70.1087 182.104C68.6901 181.217 67.6027 179.985 66.8467 178.408C66.1001 176.831 65.7267 175.001 65.7267 172.92C65.7267 170.839 66.1001 169.009 66.8467 167.432C67.6027 165.855 68.6901 164.627 70.1087 163.75C71.5274 162.863 73.2447 162.42 75.2607 162.42C77.5847 162.42 79.5074 163.008 81.0287 164.184C82.5594 165.36 83.6234 166.942 84.2207 168.93L81.2527 169.728C80.8607 168.319 80.1607 167.213 79.1527 166.41C78.1541 165.607 76.8567 165.206 75.2607 165.206C73.8327 165.206 72.6427 165.528 71.6907 166.172C70.7387 166.816 70.0201 167.717 69.5347 168.874C69.0587 170.031 68.8207 171.38 68.8207 172.92C68.8114 174.46 69.0447 175.809 69.5207 176.966C70.0061 178.123 70.7247 179.024 71.6767 179.668C72.6381 180.312 73.8327 180.634 75.2607 180.634C76.8567 180.634 78.1541 180.233 79.1527 179.43C80.1607 178.618 80.8607 177.512 81.2527 176.112L84.2207 176.91C83.6234 178.898 82.5594 180.48 81.0287 181.656C79.5074 182.832 77.5847 183.42 75.2607 183.42ZM97.9118 183V175.566C97.9118 174.978 97.8605 174.376 97.7578 173.76C97.6645 173.135 97.4778 172.556 97.1978 172.024C96.9272 171.492 96.5398 171.063 96.0358 170.736C95.5412 170.409 94.8925 170.246 94.0898 170.246C93.5672 170.246 93.0725 170.335 92.6058 170.512C92.1392 170.68 91.7285 170.955 91.3738 171.338C91.0285 171.721 90.7532 172.225 90.5478 172.85C90.3518 173.475 90.2538 174.236 90.2538 175.132L88.4338 174.446C88.4338 173.074 88.6905 171.865 89.2038 170.82C89.7172 169.765 90.4545 168.944 91.4158 168.356C92.3772 167.768 93.5392 167.474 94.9018 167.474C95.9472 167.474 96.8245 167.642 97.5338 167.978C98.2432 168.314 98.8172 168.757 99.2558 169.308C99.7038 169.849 100.045 170.442 100.278 171.086C100.511 171.73 100.67 172.36 100.754 172.976C100.838 173.592 100.88 174.133 100.88 174.6V183H97.9118ZM87.2858 183V162.84H89.9038V173.718H90.2538V183H87.2858ZM111.092 183.42C109.58 183.42 108.269 183.079 107.158 182.398C106.048 181.717 105.189 180.779 104.582 179.584C103.985 178.38 103.686 176.994 103.686 175.426C103.686 173.849 103.994 172.463 104.61 171.268C105.226 170.064 106.09 169.131 107.2 168.468C108.311 167.796 109.608 167.46 111.092 167.46C112.604 167.46 113.916 167.801 115.026 168.482C116.137 169.163 116.996 170.101 117.602 171.296C118.209 172.491 118.512 173.867 118.512 175.426C118.512 177.003 118.204 178.394 117.588 179.598C116.982 180.793 116.123 181.731 115.012 182.412C113.902 183.084 112.595 183.42 111.092 183.42ZM111.092 180.662C112.539 180.662 113.617 180.177 114.326 179.206C115.045 178.226 115.404 176.966 115.404 175.426C115.404 173.849 115.04 172.589 114.312 171.646C113.594 170.694 112.52 170.218 111.092 170.218C110.112 170.218 109.305 170.442 108.67 170.89C108.036 171.329 107.564 171.94 107.256 172.724C106.948 173.499 106.794 174.399 106.794 175.426C106.794 177.013 107.158 178.282 107.886 179.234C108.614 180.186 109.683 180.662 111.092 180.662ZM128.155 183.42C126.643 183.42 125.332 183.079 124.221 182.398C123.11 181.717 122.252 180.779 121.645 179.584C121.048 178.38 120.749 176.994 120.749 175.426C120.749 173.849 121.057 172.463 121.673 171.268C122.289 170.064 123.152 169.131 124.263 168.468C125.374 167.796 126.671 167.46 128.155 167.46C129.667 167.46 130.978 167.801 132.089 168.482C133.2 169.163 134.058 170.101 134.665 171.296C135.272 172.491 135.575 173.867 135.575 175.426C135.575 177.003 135.267 178.394 134.651 179.598C134.044 180.793 133.186 181.731 132.075 182.412C130.964 183.084 129.658 183.42 128.155 183.42ZM128.155 180.662C129.602 180.662 130.68 180.177 131.389 179.206C132.108 178.226 132.467 176.966 132.467 175.426C132.467 173.849 132.103 172.589 131.375 171.646C130.656 170.694 129.583 170.218 128.155 170.218C127.175 170.218 126.368 170.442 125.733 170.89C125.098 171.329 124.627 171.94 124.319 172.724C124.011 173.499 123.857 174.399 123.857 175.426C123.857 177.013 124.221 178.282 124.949 179.234C125.677 180.186 126.746 180.662 128.155 180.662ZM144.16 183.406C142.321 183.406 140.823 183 139.666 182.188C138.509 181.376 137.799 180.233 137.538 178.758L140.534 178.296C140.721 179.08 141.15 179.701 141.822 180.158C142.503 180.606 143.348 180.83 144.356 180.83C145.271 180.83 145.985 180.643 146.498 180.27C147.021 179.897 147.282 179.383 147.282 178.73C147.282 178.347 147.189 178.039 147.002 177.806C146.825 177.563 146.447 177.335 145.868 177.12C145.289 176.905 144.407 176.639 143.222 176.322C141.925 175.986 140.893 175.627 140.128 175.244C139.372 174.852 138.831 174.399 138.504 173.886C138.187 173.363 138.028 172.733 138.028 171.996C138.028 171.081 138.271 170.283 138.756 169.602C139.241 168.921 139.923 168.393 140.8 168.02C141.687 167.647 142.723 167.46 143.908 167.46C145.065 167.46 146.097 167.642 147.002 168.006C147.907 168.37 148.64 168.888 149.2 169.56C149.76 170.223 150.096 171.002 150.208 171.898L147.212 172.444C147.109 171.716 146.769 171.142 146.19 170.722C145.611 170.302 144.86 170.073 143.936 170.036C143.049 169.999 142.331 170.148 141.78 170.484C141.229 170.811 140.954 171.263 140.954 171.842C140.954 172.178 141.057 172.463 141.262 172.696C141.477 172.929 141.887 173.153 142.494 173.368C143.101 173.583 143.997 173.839 145.182 174.138C146.451 174.465 147.459 174.829 148.206 175.23C148.953 175.622 149.485 176.093 149.802 176.644C150.129 177.185 150.292 177.843 150.292 178.618C150.292 180.111 149.746 181.283 148.654 182.132C147.571 182.981 146.073 183.406 144.16 183.406ZM160.096 183.42C158.593 183.42 157.272 183.093 156.134 182.44C155.004 181.777 154.122 180.858 153.488 179.682C152.862 178.497 152.55 177.125 152.55 175.566C152.55 173.914 152.858 172.481 153.474 171.268C154.099 170.055 154.967 169.117 156.078 168.454C157.188 167.791 158.481 167.46 159.956 167.46C161.496 167.46 162.807 167.819 163.89 168.538C164.972 169.247 165.78 170.26 166.312 171.576C166.853 172.892 167.068 174.455 166.956 176.266H164.03V175.202C164.011 173.447 163.675 172.15 163.022 171.31C162.378 170.47 161.393 170.05 160.068 170.05C158.602 170.05 157.501 170.512 156.764 171.436C156.026 172.36 155.658 173.695 155.658 175.44C155.658 177.101 156.026 178.389 156.764 179.304C157.501 180.209 158.565 180.662 159.956 180.662C160.87 180.662 161.659 180.457 162.322 180.046C162.994 179.626 163.516 179.029 163.89 178.254L166.76 179.164C166.172 180.517 165.28 181.567 164.086 182.314C162.891 183.051 161.561 183.42 160.096 183.42ZM154.706 176.266V173.984H165.5V176.266H154.706ZM179.972 183.42C178.852 183.42 177.914 183.215 177.158 182.804C176.402 182.384 175.828 181.833 175.436 181.152C175.054 180.461 174.862 179.705 174.862 178.884C174.862 178.119 174.998 177.447 175.268 176.868C175.539 176.289 175.94 175.799 176.472 175.398C177.004 174.987 177.658 174.656 178.432 174.404C179.104 174.208 179.865 174.035 180.714 173.886C181.564 173.737 182.455 173.597 183.388 173.466C184.331 173.335 185.264 173.205 186.188 173.074L185.124 173.662C185.143 172.477 184.891 171.599 184.368 171.03C183.855 170.451 182.968 170.162 181.708 170.162C180.915 170.162 180.187 170.349 179.524 170.722C178.862 171.086 178.4 171.693 178.138 172.542L175.408 171.702C175.782 170.405 176.491 169.373 177.536 168.608C178.591 167.843 179.991 167.46 181.736 167.46C183.09 167.46 184.266 167.693 185.264 168.16C186.272 168.617 187.01 169.345 187.476 170.344C187.719 170.839 187.868 171.361 187.924 171.912C187.98 172.463 188.008 173.055 188.008 173.69V183H185.418V179.542L185.922 179.99C185.297 181.147 184.499 182.011 183.528 182.58C182.567 183.14 181.382 183.42 179.972 183.42ZM180.49 181.026C181.321 181.026 182.035 180.881 182.632 180.592C183.23 180.293 183.71 179.915 184.074 179.458C184.438 179.001 184.676 178.525 184.788 178.03C184.947 177.582 185.036 177.078 185.054 176.518C185.082 175.958 185.096 175.51 185.096 175.174L186.048 175.524C185.124 175.664 184.284 175.79 183.528 175.902C182.772 176.014 182.086 176.126 181.47 176.238C180.864 176.341 180.322 176.467 179.846 176.616C179.445 176.756 179.086 176.924 178.768 177.12C178.46 177.316 178.213 177.554 178.026 177.834C177.849 178.114 177.76 178.455 177.76 178.856C177.76 179.248 177.858 179.612 178.054 179.948C178.25 180.275 178.549 180.536 178.95 180.732C179.352 180.928 179.865 181.026 180.49 181.026ZM198.635 183V167.348C198.635 166.965 198.649 166.559 198.677 166.13C198.705 165.691 198.784 165.262 198.915 164.842C199.055 164.413 199.284 164.021 199.601 163.666C199.984 163.246 200.404 162.947 200.861 162.77C201.318 162.593 201.771 162.49 202.219 162.462C202.676 162.434 203.096 162.42 203.479 162.42H205.383V164.828H203.619C202.928 164.828 202.41 165.001 202.065 165.346C201.729 165.682 201.561 166.163 201.561 166.788V183H198.635ZM196.129 170.232V167.88H205.383V170.232H196.129ZM208.323 165.402V162.56H211.249V165.402H208.323ZM208.323 183V167.88H211.249V183H208.323ZM215.74 183V162.42H218.666V183H215.74ZM229.576 183.42C228.073 183.42 226.753 183.093 225.614 182.44C224.485 181.777 223.603 180.858 222.968 179.682C222.343 178.497 222.03 177.125 222.03 175.566C222.03 173.914 222.338 172.481 222.954 171.268C223.579 170.055 224.447 169.117 225.558 168.454C226.669 167.791 227.961 167.46 229.436 167.46C230.976 167.46 232.287 167.819 233.37 168.538C234.453 169.247 235.26 170.26 235.792 171.576C236.333 172.892 236.548 174.455 236.436 176.266H233.51V175.202C233.491 173.447 233.155 172.15 232.502 171.31C231.858 170.47 230.873 170.05 229.548 170.05C228.083 170.05 226.981 170.512 226.244 171.436C225.507 172.36 225.138 173.695 225.138 175.44C225.138 177.101 225.507 178.389 226.244 179.304C226.981 180.209 228.045 180.662 229.436 180.662C230.351 180.662 231.139 180.457 231.802 180.046C232.474 179.626 232.997 179.029 233.37 178.254L236.24 179.164C235.652 180.517 234.761 181.567 233.566 182.314C232.371 183.051 231.041 183.42 229.576 183.42ZM224.186 176.266V173.984H234.98V176.266H224.186Z" fill="#F97316"/>
<path d="M251.749 183.42C250.237 183.42 248.925 183.079 247.815 182.398C246.704 181.717 245.845 180.779 245.239 179.584C244.641 178.38 244.343 176.994 244.343 175.426C244.343 173.849 244.651 172.463 245.267 171.268C245.883 170.064 246.746 169.131 247.857 168.468C248.967 167.796 250.265 167.46 251.749 167.46C253.261 167.46 254.572 167.801 255.683 168.482C256.793 169.163 257.652 170.101 258.259 171.296C258.865 172.491 259.169 173.867 259.169 175.426C259.169 177.003 258.861 178.394 258.245 179.598C257.638 180.793 256.779 181.731 255.669 182.412C254.558 183.084 253.251 183.42 251.749 183.42ZM251.749 180.662C253.195 180.662 254.273 180.177 254.983 179.206C255.701 178.226 256.061 176.966 256.061 175.426C256.061 173.849 255.697 172.589 254.969 171.646C254.25 170.694 253.177 170.218 251.749 170.218C250.769 170.218 249.961 170.442 249.327 170.89C248.692 171.329 248.221 171.94 247.913 172.724C247.605 173.499 247.451 174.399 247.451 175.426C247.451 177.013 247.815 178.282 248.543 179.234C249.271 180.186 250.339 180.662 251.749 180.662ZM262.245 183V167.88H264.849V171.548L264.485 171.072C264.672 170.587 264.914 170.143 265.213 169.742C265.512 169.331 265.857 168.995 266.249 168.734C266.632 168.454 267.056 168.239 267.523 168.09C267.999 167.931 268.484 167.838 268.979 167.81C269.474 167.773 269.95 167.796 270.407 167.88V170.624C269.912 170.493 269.362 170.456 268.755 170.512C268.158 170.568 267.607 170.759 267.103 171.086C266.627 171.394 266.249 171.767 265.969 172.206C265.698 172.645 265.502 173.135 265.381 173.676C265.26 174.208 265.199 174.773 265.199 175.37V183H262.245ZM54.218 219.42C52.8086 219.42 51.5906 219.07 50.564 218.37C49.5466 217.67 48.758 216.718 48.198 215.514C47.6473 214.301 47.372 212.938 47.372 211.426C47.372 209.905 47.652 208.547 48.212 207.352C48.772 206.148 49.5653 205.201 50.592 204.51C51.628 203.81 52.8553 203.46 54.274 203.46C55.702 203.46 56.9013 203.81 57.872 204.51C58.852 205.201 59.5893 206.148 60.084 207.352C60.588 208.556 60.84 209.914 60.84 211.426C60.84 212.938 60.588 214.296 60.084 215.5C59.58 216.704 58.838 217.661 57.858 218.37C56.878 219.07 55.6646 219.42 54.218 219.42ZM54.624 216.774C55.5853 216.774 56.3693 216.545 56.976 216.088C57.5826 215.631 58.026 215.001 58.306 214.198C58.586 213.395 58.726 212.471 58.726 211.426C58.726 210.381 58.5813 209.457 58.292 208.654C58.012 207.851 57.5733 207.226 56.976 206.778C56.388 206.33 55.6366 206.106 54.722 206.106C53.7513 206.106 52.9533 206.344 52.328 206.82C51.7026 207.296 51.236 207.935 50.928 208.738C50.6293 209.541 50.48 210.437 50.48 211.426C50.48 212.425 50.6293 213.33 50.928 214.142C51.236 214.945 51.6933 215.584 52.3 216.06C52.916 216.536 53.6906 216.774 54.624 216.774ZM58.726 219V208.122H58.39V198.84H61.33V219H58.726ZM65.2471 219V203.88H67.8511V207.548L67.4871 207.072C67.6738 206.587 67.9164 206.143 68.2151 205.742C68.5138 205.331 68.8591 204.995 69.2511 204.734C69.6338 204.454 70.0584 204.239 70.5251 204.09C71.0011 203.931 71.4864 203.838 71.9811 203.81C72.4758 203.773 72.9518 203.796 73.4091 203.88V206.624C72.9144 206.493 72.3638 206.456 71.7571 206.512C71.1598 206.568 70.6091 206.759 70.1051 207.086C69.6291 207.394 69.2511 207.767 68.9711 208.206C68.7004 208.645 68.5044 209.135 68.3831 209.676C68.2618 210.208 68.2011 210.773 68.2011 211.37V219H65.2471ZM79.9077 219.42C78.7877 219.42 77.8497 219.215 77.0937 218.804C76.3377 218.384 75.7637 217.833 75.3717 217.152C74.9891 216.461 74.7977 215.705 74.7977 214.884C74.7977 214.119 74.9331 213.447 75.2037 212.868C75.4744 212.289 75.8757 211.799 76.4077 211.398C76.9397 210.987 77.5931 210.656 78.3677 210.404C79.0397 210.208 79.8004 210.035 80.6497 209.886C81.4991 209.737 82.3904 209.597 83.3237 209.466C84.2664 209.335 85.1997 209.205 86.1237 209.074L85.0597 209.662C85.0784 208.477 84.8264 207.599 84.3037 207.03C83.7904 206.451 82.9037 206.162 81.6437 206.162C80.8504 206.162 80.1224 206.349 79.4597 206.722C78.7971 207.086 78.3351 207.693 78.0737 208.542L75.3437 207.702C75.7171 206.405 76.4264 205.373 77.4717 204.608C78.5264 203.843 79.9264 203.46 81.6717 203.46C83.0251 203.46 84.2011 203.693 85.1997 204.16C86.2077 204.617 86.9451 205.345 87.4117 206.344C87.6544 206.839 87.8037 207.361 87.8597 207.912C87.9157 208.463 87.9437 209.055 87.9437 209.69V219H85.3537V215.542L85.8577 215.99C85.2324 217.147 84.4344 218.011 83.4637 218.58C82.5024 219.14 81.3171 219.42 79.9077 219.42ZM80.4257 217.026C81.2564 217.026 81.9704 216.881 82.5677 216.592C83.1651 216.293 83.6457 215.915 84.0097 215.458C84.3737 215.001 84.6117 214.525 84.7237 214.03C84.8824 213.582 84.9711 213.078 84.9897 212.518C85.0177 211.958 85.0317 211.51 85.0317 211.174L85.9837 211.524C85.0597 211.664 84.2197 211.79 83.4637 211.902C82.7077 212.014 82.0217 212.126 81.4057 212.238C80.7991 212.341 80.2577 212.467 79.7817 212.616C79.3804 212.756 79.0211 212.924 78.7037 213.12C78.3957 213.316 78.1484 213.554 77.9617 213.834C77.7844 214.114 77.6957 214.455 77.6957 214.856C77.6957 215.248 77.7937 215.612 77.9897 215.948C78.1857 216.275 78.4844 216.536 78.8857 216.732C79.2871 216.928 79.8004 217.026 80.4257 217.026ZM97.8091 226.14C96.9971 226.14 96.2085 226.014 95.4431 225.762C94.6871 225.51 93.9965 225.137 93.3711 224.642C92.7458 224.157 92.2278 223.555 91.8171 222.836L94.5191 221.464C94.8458 222.108 95.3125 222.579 95.9191 222.878C96.5258 223.177 97.1651 223.326 97.8371 223.326C98.6678 223.326 99.3771 223.177 99.9651 222.878C100.553 222.589 100.996 222.15 101.295 221.562C101.603 220.974 101.752 220.246 101.743 219.378V215.15H102.093V203.88H104.683V219.406C104.683 219.807 104.669 220.19 104.641 220.554C104.613 220.918 104.562 221.282 104.487 221.646C104.272 222.663 103.862 223.503 103.255 224.166C102.658 224.829 101.892 225.323 100.959 225.65C100.035 225.977 98.9851 226.14 97.8091 226.14ZM97.5851 219.42C96.1758 219.42 94.9578 219.07 93.9311 218.37C92.9138 217.67 92.1251 216.718 91.5651 215.514C91.0145 214.301 90.7391 212.938 90.7391 211.426C90.7391 209.905 91.0191 208.547 91.5791 207.352C92.1391 206.148 92.9325 205.201 93.9591 204.51C94.9951 203.81 96.2225 203.46 97.6411 203.46C99.0691 203.46 100.268 203.81 101.239 204.51C102.219 205.201 102.956 206.148 103.451 207.352C103.955 208.556 104.207 209.914 104.207 211.426C104.207 212.938 103.955 214.296 103.451 215.5C102.947 216.704 102.205 217.661 101.225 218.37C100.245 219.07 99.0318 219.42 97.5851 219.42ZM97.9911 216.774C98.9525 216.774 99.7365 216.545 100.343 216.088C100.95 215.631 101.393 215.001 101.673 214.198C101.953 213.395 102.093 212.471 102.093 211.426C102.093 210.381 101.948 209.457 101.659 208.654C101.379 207.851 100.94 207.226 100.343 206.778C99.7551 206.33 99.0038 206.106 98.0891 206.106C97.1185 206.106 96.3205 206.344 95.6951 206.82C95.0698 207.296 94.6031 207.935 94.2951 208.738C93.9965 209.541 93.8471 210.437 93.8471 211.426C93.8471 212.425 93.9965 213.33 94.2951 214.142C94.6031 214.945 95.0605 215.584 95.6671 216.06C96.2831 216.536 97.0578 216.774 97.9911 216.774ZM120.842 219.42C119.712 219.42 118.658 219.257 117.678 218.93C116.698 218.594 115.876 218.071 115.214 217.362C114.7 216.793 114.318 216.167 114.066 215.486C113.823 214.795 113.688 214.063 113.66 213.288C113.66 212.532 113.767 211.799 113.982 211.09C114.206 210.371 114.556 209.732 115.032 209.172C115.246 208.911 115.484 208.687 115.746 208.5C116.007 208.304 116.268 208.131 116.53 207.982C115.932 207.329 115.48 206.708 115.172 206.12C114.864 205.523 114.71 204.818 114.71 204.006C114.71 202.867 115.008 201.845 115.606 200.94C116.203 200.025 117.02 199.367 118.056 198.966C118.532 198.77 119.017 198.639 119.512 198.574C120.006 198.499 120.487 198.462 120.954 198.462C121.794 198.462 122.606 198.583 123.39 198.826C124.174 199.069 124.846 199.465 125.406 200.016C125.76 200.343 126.059 200.711 126.302 201.122C126.554 201.533 126.745 201.953 126.876 202.382L123.992 203.054C123.833 202.606 123.572 202.228 123.208 201.92C122.9 201.649 122.54 201.467 122.13 201.374C121.728 201.271 121.327 201.22 120.926 201.22C120.263 201.22 119.666 201.346 119.134 201.598C118.648 201.831 118.284 202.153 118.042 202.564C117.799 202.965 117.678 203.451 117.678 204.02C117.678 204.524 117.766 204.93 117.944 205.238C118.121 205.546 118.359 205.868 118.658 206.204C118.835 206.4 119.045 206.61 119.288 206.834C119.54 207.058 119.796 207.291 120.058 207.534L125.546 212.644C125.564 212.439 125.578 212.219 125.588 211.986C125.597 211.753 125.602 211.529 125.602 211.314L125.588 208.696H128.206V212.154C128.206 212.742 128.187 213.274 128.15 213.75C128.122 214.217 128.066 214.599 127.982 214.898L130.502 217.236L128.612 219.266L126.582 217.334C126.152 217.763 125.672 218.127 125.14 218.426C124.608 218.715 124.071 218.93 123.53 219.07C123.072 219.21 122.62 219.303 122.172 219.35C121.733 219.397 121.29 219.42 120.842 219.42ZM120.926 216.62C121.299 216.62 121.644 216.601 121.962 216.564C122.279 216.517 122.582 216.433 122.872 216.312C123.264 216.153 123.581 215.99 123.824 215.822C124.076 215.654 124.286 215.491 124.454 215.332L118.714 210.068C118.424 210.171 118.154 210.306 117.902 210.474C117.659 210.633 117.449 210.819 117.272 211.034C117.057 211.305 116.894 211.622 116.782 211.986C116.679 212.341 116.632 212.723 116.642 213.134C116.642 213.582 116.712 213.993 116.852 214.366C117.001 214.73 117.192 215.057 117.426 215.346C117.799 215.794 118.317 216.121 118.98 216.326C119.652 216.522 120.3 216.62 120.926 216.62ZM144.37 219.42C142.961 219.42 141.743 219.07 140.716 218.37C139.699 217.67 138.91 216.718 138.35 215.514C137.8 214.301 137.524 212.938 137.524 211.426C137.524 209.905 137.804 208.547 138.364 207.352C138.924 206.148 139.718 205.201 140.744 204.51C141.78 203.81 143.008 203.46 144.426 203.46C145.854 203.46 147.054 203.81 148.024 204.51C149.004 205.201 149.742 206.148 150.236 207.352C150.74 208.556 150.992 209.914 150.992 211.426C150.992 212.938 150.74 214.296 150.236 215.5C149.732 216.704 148.99 217.661 148.01 218.37C147.03 219.07 145.817 219.42 144.37 219.42ZM144.776 216.774C145.738 216.774 146.522 216.545 147.128 216.088C147.735 215.631 148.178 215.001 148.458 214.198C148.738 213.395 148.878 212.471 148.878 211.426C148.878 210.381 148.734 209.457 148.444 208.654C148.164 207.851 147.726 207.226 147.128 206.778C146.54 206.33 145.789 206.106 144.874 206.106C143.904 206.106 143.106 206.344 142.48 206.82C141.855 207.296 141.388 207.935 141.08 208.738C140.782 209.541 140.632 210.437 140.632 211.426C140.632 212.425 140.782 213.33 141.08 214.142C141.388 214.945 141.846 215.584 142.452 216.06C143.068 216.536 143.843 216.774 144.776 216.774ZM148.878 219V208.122H148.542V198.84H151.482V219H148.878ZM155.399 219V203.88H158.003V207.548L157.639 207.072C157.826 206.587 158.069 206.143 158.367 205.742C158.666 205.331 159.011 204.995 159.403 204.734C159.786 204.454 160.211 204.239 160.677 204.09C161.153 203.931 161.639 203.838 162.133 203.81C162.628 203.773 163.104 203.796 163.561 203.88V206.624C163.067 206.493 162.516 206.456 161.909 206.512C161.312 206.568 160.761 206.759 160.257 207.086C159.781 207.394 159.403 207.767 159.123 208.206C158.853 208.645 158.657 209.135 158.535 209.676C158.414 210.208 158.353 210.773 158.353 211.37V219H155.399ZM172.52 219.42C171.008 219.42 169.697 219.079 168.586 218.398C167.475 217.717 166.617 216.779 166.01 215.584C165.413 214.38 165.114 212.994 165.114 211.426C165.114 209.849 165.422 208.463 166.038 207.268C166.654 206.064 167.517 205.131 168.628 204.468C169.739 203.796 171.036 203.46 172.52 203.46C174.032 203.46 175.343 203.801 176.454 204.482C177.565 205.163 178.423 206.101 179.03 207.296C179.637 208.491 179.94 209.867 179.94 211.426C179.94 213.003 179.632 214.394 179.016 215.598C178.409 216.793 177.551 217.731 176.44 218.412C175.329 219.084 174.023 219.42 172.52 219.42ZM172.52 216.662C173.967 216.662 175.045 216.177 175.754 215.206C176.473 214.226 176.832 212.966 176.832 211.426C176.832 209.849 176.468 208.589 175.74 207.646C175.021 206.694 173.948 206.218 172.52 206.218C171.54 206.218 170.733 206.442 170.098 206.89C169.463 207.329 168.992 207.94 168.684 208.724C168.376 209.499 168.222 210.399 168.222 211.426C168.222 213.013 168.586 214.282 169.314 215.234C170.042 216.186 171.111 216.662 172.52 216.662ZM190.115 219.42C188.668 219.42 187.455 219.07 186.475 218.37C185.495 217.661 184.753 216.704 184.249 215.5C183.745 214.296 183.493 212.938 183.493 211.426C183.493 209.914 183.74 208.556 184.235 207.352C184.739 206.148 185.476 205.201 186.447 204.51C187.427 203.81 188.631 203.46 190.059 203.46C191.477 203.46 192.7 203.81 193.727 204.51C194.763 205.201 195.561 206.148 196.121 207.352C196.681 208.547 196.961 209.905 196.961 211.426C196.961 212.938 196.681 214.301 196.121 215.514C195.57 216.718 194.781 217.67 193.755 218.37C192.737 219.07 191.524 219.42 190.115 219.42ZM183.003 225.72V203.88H185.607V214.758H185.943V225.72H183.003ZM189.709 216.774C190.642 216.774 191.412 216.536 192.019 216.06C192.635 215.584 193.092 214.945 193.391 214.142C193.699 213.33 193.853 212.425 193.853 211.426C193.853 210.437 193.699 209.541 193.391 208.738C193.092 207.935 192.63 207.296 192.005 206.82C191.379 206.344 190.581 206.106 189.611 206.106C188.696 206.106 187.94 206.33 187.343 206.778C186.755 207.226 186.316 207.851 186.027 208.654C185.747 209.457 185.607 210.381 185.607 211.426C185.607 212.471 185.747 213.395 186.027 214.198C186.307 215.001 186.75 215.631 187.357 216.088C187.963 216.545 188.747 216.774 189.709 216.774ZM205.937 201.402V198.56H208.863V201.402H205.937ZM205.937 219V203.88H208.863V219H205.937ZM221.719 219C220.767 219.187 219.834 219.266 218.919 219.238C218.005 219.21 217.188 219.033 216.469 218.706C215.751 218.379 215.209 217.866 214.845 217.166C214.519 216.541 214.341 215.906 214.313 215.262C214.295 214.609 214.285 213.871 214.285 213.05V199.68H217.225V212.91C217.225 213.517 217.23 214.044 217.239 214.492C217.258 214.94 217.356 215.318 217.533 215.626C217.869 216.205 218.401 216.536 219.129 216.62C219.867 216.695 220.73 216.662 221.719 216.522V219ZM211.387 206.232V203.88H221.719V206.232H211.387ZM241.125 219V211.566C241.125 210.978 241.073 210.376 240.971 209.76C240.877 209.135 240.691 208.556 240.411 208.024C240.14 207.492 239.753 207.063 239.249 206.736C238.754 206.409 238.105 206.246 237.303 206.246C236.78 206.246 236.285 206.335 235.819 206.512C235.352 206.68 234.941 206.955 234.587 207.338C234.241 207.721 233.966 208.225 233.761 208.85C233.565 209.475 233.467 210.236 233.467 211.132L231.647 210.446C231.647 209.074 231.903 207.865 232.417 206.82C232.93 205.765 233.667 204.944 234.629 204.356C235.59 203.768 236.752 203.474 238.115 203.474C239.16 203.474 240.037 203.642 240.747 203.978C241.456 204.314 242.03 204.757 242.469 205.308C242.917 205.849 243.257 206.442 243.491 207.086C243.724 207.73 243.883 208.36 243.967 208.976C244.051 209.592 244.093 210.133 244.093 210.6V219H241.125ZM230.499 219V198.84H233.117V209.718H233.467V219H230.499ZM254.445 219.42C252.943 219.42 251.622 219.093 250.483 218.44C249.354 217.777 248.472 216.858 247.837 215.682C247.212 214.497 246.899 213.125 246.899 211.566C246.899 209.914 247.207 208.481 247.823 207.268C248.449 206.055 249.317 205.117 250.427 204.454C251.538 203.791 252.831 203.46 254.305 203.46C255.845 203.46 257.157 203.819 258.239 204.538C259.322 205.247 260.129 206.26 260.661 207.576C261.203 208.892 261.417 210.455 261.305 212.266H258.379V211.202C258.361 209.447 258.025 208.15 257.371 207.31C256.727 206.47 255.743 206.05 254.417 206.05C252.952 206.05 251.851 206.512 251.113 207.436C250.376 208.36 250.007 209.695 250.007 211.44C250.007 213.101 250.376 214.389 251.113 215.304C251.851 216.209 252.915 216.662 254.305 216.662C255.22 216.662 256.009 216.457 256.671 216.046C257.343 215.626 257.866 215.029 258.239 214.254L261.109 215.164C260.521 216.517 259.63 217.567 258.435 218.314C257.241 219.051 255.911 219.42 254.445 219.42ZM249.055 212.266V209.984H259.849V212.266H249.055ZM264.446 219V203.88H267.05V207.548L266.686 207.072C266.873 206.587 267.116 206.143 267.414 205.742C267.713 205.331 268.058 204.995 268.45 204.734C268.833 204.454 269.258 204.239 269.724 204.09C270.2 203.931 270.686 203.838 271.18 203.81C271.675 203.773 272.151 203.796 272.608 203.88V206.624C272.114 206.493 271.563 206.456 270.956 206.512C270.359 206.568 269.808 206.759 269.304 207.086C268.828 207.394 268.45 207.767 268.17 208.206C267.9 208.645 267.704 209.135 267.582 209.676C267.461 210.208 267.4 210.773 267.4 211.37V219H264.446ZM281.707 219.42C280.204 219.42 278.884 219.093 277.745 218.44C276.616 217.777 275.734 216.858 275.099 215.682C274.474 214.497 274.161 213.125 274.161 211.566C274.161 209.914 274.469 208.481 275.085 207.268C275.71 206.055 276.578 205.117 277.689 204.454C278.8 203.791 280.092 203.46 281.567 203.46C283.107 203.46 284.418 203.819 285.501 204.538C286.584 205.247 287.391 206.26 287.923 207.576C288.464 208.892 288.679 210.455 288.567 212.266H285.641V211.202C285.622 209.447 285.286 208.15 284.633 207.31C283.989 206.47 283.004 206.05 281.679 206.05C280.214 206.05 279.112 206.512 278.375 207.436C277.638 208.36 277.269 209.695 277.269 211.44C277.269 213.101 277.638 214.389 278.375 215.304C279.112 216.209 280.176 216.662 281.567 216.662C282.482 216.662 283.27 216.457 283.933 216.046C284.605 215.626 285.128 215.029 285.501 214.254L288.371 215.164C287.783 216.517 286.892 217.567 285.697 218.314C284.502 219.051 283.172 219.42 281.707 219.42ZM276.317 212.266V209.984H287.111V212.266H276.317Z" fill="#2F2F2F"/>
<path d="M107.704 262.261C106.798 262.261 106.03 262.015 105.4 261.523C104.77 261.031 104.338 260.371 104.104 259.543L105.697 259.165C105.793 259.603 106.024 259.975 106.39 260.281C106.762 260.587 107.188 260.74 107.668 260.74C107.98 260.74 108.298 260.665 108.622 260.515C108.946 260.359 109.195 260.107 109.369 259.759C109.489 259.519 109.558 259.255 109.576 258.967C109.594 258.673 109.603 258.328 109.603 257.932V249.04H111.223V257.932C111.223 258.304 111.22 258.637 111.214 258.931C111.214 259.225 111.184 259.507 111.124 259.777C111.07 260.041 110.962 260.311 110.8 260.587C110.476 261.157 110.041 261.58 109.495 261.856C108.955 262.126 108.358 262.261 107.704 262.261ZM113.924 262V249.04H119.045C119.171 249.04 119.321 249.046 119.495 249.058C119.669 249.064 119.837 249.082 119.999 249.112C120.701 249.22 121.289 249.46 121.763 249.832C122.243 250.204 122.603 250.675 122.843 251.245C123.083 251.809 123.203 252.436 123.203 253.126C123.203 253.81 123.08 254.437 122.834 255.007C122.594 255.571 122.234 256.042 121.754 256.42C121.28 256.792 120.695 257.032 119.999 257.14C119.837 257.164 119.669 257.182 119.495 257.194C119.321 257.206 119.171 257.212 119.045 257.212H115.526V262H113.924ZM115.526 255.691H118.991C119.105 255.691 119.234 255.685 119.378 255.673C119.528 255.661 119.669 255.64 119.801 255.61C120.215 255.514 120.551 255.34 120.809 255.088C121.073 254.83 121.265 254.53 121.385 254.188C121.505 253.84 121.565 253.486 121.565 253.126C121.565 252.766 121.505 252.415 121.385 252.073C121.265 251.725 121.073 251.422 120.809 251.164C120.551 250.906 120.215 250.732 119.801 250.642C119.669 250.606 119.528 250.585 119.378 250.579C119.234 250.567 119.105 250.561 118.991 250.561H115.526V255.691ZM124.998 262V249.04H133.188V250.561H126.6V254.62H132.108V256.141H126.6V260.479H133.188V262H124.998ZM140.054 262.27C139.166 262.27 138.356 262.114 137.624 261.802C136.892 261.49 136.262 261.043 135.734 260.461C135.206 259.873 134.798 259.165 134.51 258.337C134.228 257.503 134.087 256.564 134.087 255.52C134.087 254.14 134.333 252.946 134.825 251.938C135.317 250.93 136.01 250.153 136.904 249.607C137.798 249.055 138.848 248.779 140.054 248.779C141.506 248.779 142.676 249.118 143.564 249.796C144.452 250.468 145.064 251.389 145.4 252.559L143.78 252.892C143.51 252.106 143.066 251.479 142.448 251.011C141.83 250.543 141.059 250.309 140.135 250.309C139.169 250.303 138.365 250.519 137.723 250.957C137.087 251.389 136.607 251.998 136.283 252.784C135.959 253.57 135.794 254.482 135.788 255.52C135.782 256.552 135.941 257.458 136.265 258.238C136.589 259.018 137.072 259.63 137.714 260.074C138.362 260.512 139.169 260.734 140.135 260.74C140.969 260.746 141.671 260.587 142.241 260.263C142.811 259.939 143.252 259.471 143.564 258.859C143.876 258.247 144.065 257.512 144.131 256.654H141.377V255.331H145.823C145.841 255.451 145.85 255.595 145.85 255.763C145.856 255.925 145.859 256.036 145.859 256.096C145.859 257.278 145.637 258.337 145.193 259.273C144.755 260.203 144.104 260.935 143.24 261.469C142.382 262.003 141.32 262.27 140.054 262.27ZM146.58 264.016L146.679 263.269C146.931 263.287 147.12 263.239 147.246 263.125C147.372 263.011 147.453 262.855 147.489 262.657C147.525 262.459 147.531 262.24 147.507 262H146.58V259.966H148.344V262.27C148.344 262.9 148.188 263.374 147.876 263.692C147.57 264.01 147.138 264.118 146.58 264.016ZM155.373 262V249.04H160.494C160.62 249.04 160.77 249.046 160.944 249.058C161.118 249.064 161.286 249.082 161.448 249.112C162.15 249.22 162.738 249.46 163.212 249.832C163.692 250.204 164.052 250.675 164.292 251.245C164.532 251.809 164.652 252.436 164.652 253.126C164.652 253.81 164.529 254.437 164.283 255.007C164.043 255.571 163.683 256.042 163.203 256.42C162.729 256.792 162.144 257.032 161.448 257.14C161.286 257.164 161.118 257.182 160.944 257.194C160.77 257.206 160.62 257.212 160.494 257.212H156.975V262H155.373ZM156.975 255.691H160.44C160.554 255.691 160.683 255.685 160.827 255.673C160.977 255.661 161.118 255.64 161.25 255.61C161.664 255.514 162 255.34 162.258 255.088C162.522 254.83 162.714 254.53 162.834 254.188C162.954 253.84 163.014 253.486 163.014 253.126C163.014 252.766 162.954 252.415 162.834 252.073C162.714 251.725 162.522 251.422 162.258 251.164C162 250.906 161.664 250.732 161.25 250.642C161.118 250.606 160.977 250.585 160.827 250.579C160.683 250.567 160.554 250.561 160.44 250.561H156.975V255.691ZM166.448 262V249.04H168.068L174.827 259.165V249.04H176.447V262H174.827L168.068 251.866V262H166.448ZM184.21 262.27C183.322 262.27 182.512 262.114 181.78 261.802C181.048 261.49 180.418 261.043 179.89 260.461C179.362 259.873 178.954 259.165 178.666 258.337C178.384 257.503 178.243 256.564 178.243 255.52C178.243 254.14 178.489 252.946 178.981 251.938C179.473 250.93 180.166 250.153 181.06 249.607C181.954 249.055 183.004 248.779 184.21 248.779C185.662 248.779 186.832 249.118 187.72 249.796C188.608 250.468 189.22 251.389 189.556 252.559L187.936 252.892C187.666 252.106 187.222 251.479 186.604 251.011C185.986 250.543 185.215 250.309 184.291 250.309C183.325 250.303 182.521 250.519 181.879 250.957C181.243 251.389 180.763 251.998 180.439 252.784C180.115 253.57 179.95 254.482 179.944 255.52C179.938 256.552 180.097 257.458 180.421 258.238C180.745 259.018 181.228 259.63 181.87 260.074C182.518 260.512 183.325 260.734 184.291 260.74C185.125 260.746 185.827 260.587 186.397 260.263C186.967 259.939 187.408 259.471 187.72 258.859C188.032 258.247 188.221 257.512 188.287 256.654H185.533V255.331H189.979C189.997 255.451 190.006 255.595 190.006 255.763C190.012 255.925 190.015 256.036 190.015 256.096C190.015 257.278 189.793 258.337 189.349 259.273C188.911 260.203 188.26 260.935 187.396 261.469C186.538 262.003 185.476 262.27 184.21 262.27ZM190.736 264.016L190.835 263.269C191.087 263.287 191.276 263.239 191.402 263.125C191.528 263.011 191.609 262.855 191.645 262.657C191.681 262.459 191.687 262.24 191.663 262H190.736V259.966H192.5V262.27C192.5 262.9 192.344 263.374 192.032 263.692C191.726 264.01 191.294 264.118 190.736 264.016ZM202.869 262V250.561H198.45V249.04H208.89V250.561H204.471V262H202.869ZM210.503 262V249.04H212.105V262H210.503ZM214.805 262V249.04H222.365V250.642H216.407V254.719H221.285V256.321H216.407V262H214.805ZM223.981 262V249.04H231.541V250.642H225.583V254.719H230.461V256.321H225.583V262H223.981Z" fill="#CACACA"/>
</svg>
