<svg width="336" height="308" viewBox="0 0 336 308" fill="none" xmlns="http://www.w3.org/2000/svg">
<rect x="1.52985" y="1.02985" width="332.94" height="305.94" rx="23.6866" fill="white"/>
<rect x="1.52985" y="1.02985" width="332.94" height="305.94" rx="23.6866" stroke="#F1BFF5" stroke-width="2.0597"/>
<path d="M23.6186 99V88.8182H30.0021V90.1406H25.1548V93.2429H29.669V94.5604H25.1548V97.6776H30.0618V99H23.6186ZM33.4213 94.4659V99H31.9348V91.3636H33.3617V92.6065H33.4561C33.6318 92.2022 33.9069 91.8774 34.2814 91.6321C34.6593 91.3868 35.1349 91.2642 35.7083 91.2642C36.2286 91.2642 36.6844 91.3736 37.0755 91.5923C37.4666 91.8078 37.7698 92.1293 37.9853 92.5568C38.2007 92.9844 38.3084 93.513 38.3084 94.1428V99H36.8219V94.3217C36.8219 93.7682 36.6777 93.3357 36.3894 93.0241C36.101 92.7093 35.705 92.5518 35.2012 92.5518C34.8565 92.5518 34.5499 92.6264 34.2814 92.7756C34.0163 92.9247 33.8058 93.1435 33.65 93.4318C33.4976 93.7169 33.4213 94.0616 33.4213 94.4659ZM43.8667 91.3636V92.5568H39.6955V91.3636H43.8667ZM40.8141 89.5341H42.3006V96.7578C42.3006 97.0462 42.3437 97.2633 42.4299 97.4091C42.516 97.5516 42.6271 97.6494 42.763 97.7024C42.9022 97.7521 43.053 97.777 43.2154 97.777C43.3347 97.777 43.4391 97.7687 43.5286 97.7521C43.6181 97.7356 43.6877 97.7223 43.7374 97.7124L44.0059 98.9403C43.9197 98.9735 43.7971 99.0066 43.638 99.0398C43.4789 99.0762 43.28 99.0961 43.0414 99.0994C42.6503 99.1061 42.2857 99.0365 41.9476 98.8906C41.6096 98.7448 41.3361 98.5194 41.1273 98.2145C40.9185 97.9096 40.8141 97.5268 40.8141 97.0661V89.5341ZM48.7202 99.1541C47.9678 99.1541 47.3198 98.9934 46.7763 98.6719C46.236 98.3471 45.8184 97.8913 45.5234 97.3047C45.2318 96.7147 45.0859 96.0237 45.0859 95.2315C45.0859 94.4493 45.2318 93.7599 45.5234 93.1634C45.8184 92.5668 46.2294 92.1011 46.7564 91.7663C47.2867 91.4316 47.9065 91.2642 48.6158 91.2642C49.0466 91.2642 49.4643 91.3355 49.8686 91.478C50.273 91.6205 50.6359 91.8442 50.9574 92.1491C51.2789 92.4541 51.5324 92.8501 51.718 93.3374C51.9036 93.8213 51.9964 94.4096 51.9964 95.1023V95.6293H45.9261V94.5156H50.5398C50.5398 94.1245 50.4602 93.7782 50.3011 93.4766C50.142 93.1716 49.9183 92.9313 49.63 92.7557C49.3449 92.58 49.0102 92.4922 48.6257 92.4922C48.2081 92.4922 47.8435 92.5949 47.532 92.8004C47.2237 93.0026 46.9851 93.2678 46.8161 93.5959C46.6503 93.9207 46.5675 94.2737 46.5675 94.6548V95.5249C46.5675 96.0353 46.657 96.4695 46.8359 96.8274C47.0182 97.1854 47.2718 97.4588 47.5966 97.6477C47.9214 97.8333 48.3009 97.9261 48.7351 97.9261C49.0168 97.9261 49.2737 97.8864 49.5057 97.8068C49.7377 97.724 49.9382 97.6013 50.1072 97.4389C50.2763 97.2765 50.4055 97.076 50.495 96.8374L51.902 97.0909C51.7893 97.5052 51.5871 97.8681 51.2955 98.1797C51.0071 98.4879 50.6442 98.7282 50.2067 98.9006C49.7725 99.0696 49.277 99.1541 48.7202 99.1541ZM53.6458 99V91.3636H55.0826V92.5767H55.1621C55.3013 92.1657 55.5466 91.8426 55.8979 91.6072C56.2525 91.3686 56.6536 91.2493 57.101 91.2493C57.1938 91.2493 57.3032 91.2526 57.4292 91.2592C57.5584 91.2659 57.6595 91.2741 57.7324 91.2841V92.706C57.6728 92.6894 57.5667 92.6712 57.4142 92.6513C57.2618 92.6281 57.1093 92.6165 56.9569 92.6165C56.6055 92.6165 56.2923 92.6911 56.0172 92.8402C55.7454 92.986 55.53 93.1899 55.3709 93.4517C55.2118 93.7102 55.1323 94.0052 55.1323 94.3366V99H53.6458ZM68.3965 91.4929C68.3435 91.0223 68.1247 90.6577 67.7402 90.3991C67.3558 90.1373 66.8719 90.0064 66.2885 90.0064C65.8709 90.0064 65.5096 90.0727 65.2047 90.2053C64.8998 90.3345 64.6628 90.5135 64.4938 90.7422C64.3281 90.9676 64.2452 91.2244 64.2452 91.5128C64.2452 91.7547 64.3016 91.9635 64.4142 92.1392C64.5302 92.3149 64.681 92.4624 64.8667 92.5817C65.0556 92.6977 65.2578 92.7955 65.4732 92.875C65.6886 92.9512 65.8958 93.0142 66.0946 93.0639L67.089 93.3224C67.4138 93.402 67.7469 93.5097 68.0882 93.6456C68.4296 93.7815 68.7462 93.9605 69.0378 94.1825C69.3295 94.4046 69.5648 94.6797 69.7438 95.0078C69.9261 95.3359 70.0172 95.7287 70.0172 96.1861C70.0172 96.7628 69.8681 97.2749 69.5698 97.7223C69.2748 98.1697 68.8456 98.5227 68.2821 98.7812C67.722 99.0398 67.0442 99.169 66.2488 99.169C65.4864 99.169 64.8269 99.0481 64.2701 98.8061C63.7132 98.5642 63.2774 98.2211 62.9625 97.777C62.6477 97.3295 62.4737 96.7992 62.4405 96.1861H63.9817C64.0115 96.554 64.1309 96.8606 64.3397 97.1058C64.5518 97.3478 64.8219 97.5284 65.15 97.6477C65.4815 97.7637 65.8444 97.8217 66.2388 97.8217C66.673 97.8217 67.0591 97.7538 67.3972 97.6179C67.7386 97.4787 68.007 97.2865 68.2026 97.0412C68.3981 96.7926 68.4959 96.5026 68.4959 96.1712C68.4959 95.8696 68.4097 95.6226 68.2374 95.4304C68.0684 95.2382 67.838 95.0791 67.5463 94.9531C67.258 94.8272 66.9315 94.7161 66.5669 94.62L65.3638 94.2919C64.5485 94.0698 63.9022 93.7434 63.4249 93.3125C62.9509 92.8816 62.714 92.3116 62.714 91.6023C62.714 91.0156 62.873 90.5036 63.1912 90.0661C63.5094 89.6286 63.9403 89.2888 64.4838 89.0469C65.0274 88.8016 65.6406 88.679 66.3233 88.679C67.0127 88.679 67.6209 88.8 68.1479 89.0419C68.6782 89.2839 69.0958 89.617 69.4007 90.0412C69.7057 90.4621 69.8648 90.946 69.878 91.4929H68.3965ZM74.9503 99.1541C74.2112 99.1541 73.5748 98.9867 73.0412 98.652C72.5109 98.3139 72.1032 97.8482 71.8182 97.255C71.5331 96.6617 71.3906 95.9822 71.3906 95.2166C71.3906 94.4411 71.5365 93.7566 71.8281 93.1634C72.1198 92.5668 72.5308 92.1011 73.0611 91.7663C73.5914 91.4316 74.2161 91.2642 74.9354 91.2642C75.5154 91.2642 76.0324 91.3719 76.4865 91.5874C76.9406 91.7995 77.3068 92.0978 77.5852 92.4822C77.867 92.8667 78.0343 93.3158 78.0874 93.8295H76.6406C76.5611 93.4716 76.3788 93.1634 76.0938 92.9048C75.812 92.6463 75.4342 92.517 74.9602 92.517C74.5459 92.517 74.183 92.6264 73.8714 92.8452C73.5632 93.0606 73.3229 93.3688 73.1506 93.7699C72.9782 94.1676 72.892 94.6383 72.892 95.1818C72.892 95.7386 72.9766 96.2192 73.1456 96.6236C73.3146 97.0279 73.5533 97.3411 73.8615 97.5632C74.1731 97.7853 74.5393 97.8963 74.9602 97.8963C75.242 97.8963 75.4972 97.8449 75.7259 97.7422C75.9579 97.6361 76.1518 97.4853 76.3075 97.2898C76.4666 97.0942 76.5777 96.8589 76.6406 96.5838H78.0874C78.0343 97.0777 77.8736 97.5185 77.6051 97.9062C77.3366 98.294 76.977 98.599 76.5263 98.821C76.0788 99.0431 75.5535 99.1541 74.9503 99.1541ZM79.677 99V91.3636H81.1138V92.5767H81.1934C81.3326 92.1657 81.5778 91.8426 81.9292 91.6072C82.2838 91.3686 82.6848 91.2493 83.1323 91.2493C83.2251 91.2493 83.3345 91.2526 83.4604 91.2592C83.5897 91.2659 83.6908 91.2741 83.7637 91.2841V92.706C83.704 92.6894 83.598 92.6712 83.4455 92.6513C83.293 92.6281 83.1406 92.6165 82.9881 92.6165C82.6368 92.6165 82.3236 92.6911 82.0485 92.8402C81.7767 92.986 81.5613 93.1899 81.4022 93.4517C81.2431 93.7102 81.1635 94.0052 81.1635 94.3366V99H79.677ZM85.0501 99V91.3636H86.5366V99H85.0501ZM85.8008 90.1854C85.5423 90.1854 85.3202 90.0992 85.1346 89.9268C84.9523 89.7512 84.8612 89.5424 84.8612 89.3004C84.8612 89.0552 84.9523 88.8464 85.1346 88.674C85.3202 88.4983 85.5423 88.4105 85.8008 88.4105C86.0593 88.4105 86.2797 88.4983 86.462 88.674C86.6476 88.8464 86.7404 89.0552 86.7404 89.3004C86.7404 89.5424 86.6476 89.7512 86.462 89.9268C86.2797 90.0992 86.0593 90.1854 85.8008 90.1854ZM88.5364 101.864V91.3636H89.9881V92.6016H90.1124C90.1986 92.4425 90.3229 92.2585 90.4853 92.0497C90.6477 91.8409 90.873 91.6586 91.1614 91.5028C91.4498 91.3438 91.8309 91.2642 92.3049 91.2642C92.9213 91.2642 93.4715 91.42 93.9554 91.7315C94.4393 92.0431 94.8188 92.4922 95.0939 93.0788C95.3723 93.6655 95.5115 94.3714 95.5115 95.1967C95.5115 96.022 95.374 96.7296 95.0989 97.3196C94.8238 97.9062 94.446 98.3587 93.9654 98.6768C93.4848 98.9917 92.9363 99.1491 92.3198 99.1491C91.8558 99.1491 91.4763 99.0713 91.1813 98.9155C90.8896 98.7597 90.6609 98.5774 90.4952 98.3686C90.3295 98.1598 90.2019 97.9742 90.1124 97.8118H90.0229V101.864H88.5364ZM89.9931 95.1818C89.9931 95.7187 90.071 96.1894 90.2267 96.5938C90.3825 96.9981 90.6079 97.3146 90.9029 97.5433C91.1979 97.7687 91.5591 97.8814 91.9867 97.8814C92.4308 97.8814 92.802 97.7637 93.1003 97.5284C93.3986 97.2898 93.624 96.9666 93.7765 96.5589C93.9322 96.1513 94.0101 95.6922 94.0101 95.1818C94.0101 94.678 93.9339 94.2256 93.7814 93.8246C93.6323 93.4235 93.4069 93.107 93.1053 92.875C92.807 92.643 92.4341 92.527 91.9867 92.527C91.5558 92.527 91.1912 92.638 90.8929 92.8601C90.598 93.0821 90.3742 93.392 90.2218 93.7898C90.0693 94.1875 89.9931 94.6515 89.9931 95.1818ZM100.742 91.3636V92.5568H96.5705V91.3636H100.742ZM97.6891 89.5341H99.1756V96.7578C99.1756 97.0462 99.2187 97.2633 99.3049 97.4091C99.391 97.5516 99.5021 97.6494 99.638 97.7024C99.7772 97.7521 99.928 97.777 100.09 97.777C100.21 97.777 100.314 97.7687 100.404 97.7521C100.493 97.7356 100.563 97.7223 100.612 97.7124L100.881 98.9403C100.795 98.9735 100.672 99.0066 100.513 99.0398C100.354 99.0762 100.155 99.0961 99.9164 99.0994C99.5253 99.1061 99.1607 99.0365 98.8226 98.8906C98.4846 98.7448 98.2111 98.5194 98.0023 98.2145C97.7935 97.9096 97.6891 97.5268 97.6891 97.0661V89.5341Z" fill="black"/>
<rect x="23" y="110.5" width="290" height="107" rx="9.5" stroke="#CBD5E1"/>
<path d="M37.6186 168.5V158.318H44.0021V159.641H39.1548V162.743H43.669V164.06H39.1548V167.178H44.0618V168.5H37.6186ZM47.4213 163.966V168.5H45.9348V160.864H47.3617V162.107H47.4561C47.6318 161.702 47.9069 161.377 48.2814 161.132C48.6593 160.887 49.1349 160.764 49.7083 160.764C50.2286 160.764 50.6844 160.874 51.0755 161.092C51.4666 161.308 51.7698 161.629 51.9853 162.057C52.2007 162.484 52.3084 163.013 52.3084 163.643V168.5H50.8219V163.822C50.8219 163.268 50.6777 162.836 50.3894 162.524C50.101 162.209 49.705 162.052 49.2012 162.052C48.8565 162.052 48.5499 162.126 48.2814 162.276C48.0163 162.425 47.8058 162.643 47.65 162.932C47.4976 163.217 47.4213 163.562 47.4213 163.966ZM57.8667 160.864V162.057H53.6955V160.864H57.8667ZM54.8141 159.034H56.3006V166.258C56.3006 166.546 56.3437 166.763 56.4299 166.909C56.516 167.052 56.6271 167.149 56.763 167.202C56.9022 167.252 57.053 167.277 57.2154 167.277C57.3347 167.277 57.4391 167.269 57.5286 167.252C57.6181 167.236 57.6877 167.222 57.7374 167.212L58.0059 168.44C57.9197 168.473 57.7971 168.507 57.638 168.54C57.4789 168.576 57.28 168.596 57.0414 168.599C56.6503 168.606 56.2857 168.536 55.9476 168.391C55.6096 168.245 55.3361 168.019 55.1273 167.714C54.9185 167.41 54.8141 167.027 54.8141 166.566V159.034ZM62.7202 168.654C61.9678 168.654 61.3198 168.493 60.7763 168.172C60.236 167.847 59.8184 167.391 59.5234 166.805C59.2318 166.215 59.0859 165.524 59.0859 164.732C59.0859 163.949 59.2318 163.26 59.5234 162.663C59.8184 162.067 60.2294 161.601 60.7564 161.266C61.2867 160.932 61.9065 160.764 62.6158 160.764C63.0466 160.764 63.4643 160.835 63.8686 160.978C64.273 161.121 64.6359 161.344 64.9574 161.649C65.2789 161.954 65.5324 162.35 65.718 162.837C65.9036 163.321 65.9964 163.91 65.9964 164.602V165.129H59.9261V164.016H64.5398C64.5398 163.625 64.4602 163.278 64.3011 162.977C64.142 162.672 63.9183 162.431 63.63 162.256C63.3449 162.08 63.0102 161.992 62.6257 161.992C62.2081 161.992 61.8435 162.095 61.532 162.3C61.2237 162.503 60.9851 162.768 60.8161 163.096C60.6503 163.421 60.5675 163.774 60.5675 164.155V165.025C60.5675 165.535 60.657 165.969 60.8359 166.327C61.0182 166.685 61.2718 166.959 61.5966 167.148C61.9214 167.333 62.3009 167.426 62.7351 167.426C63.0168 167.426 63.2737 167.386 63.5057 167.307C63.7377 167.224 63.9382 167.101 64.1072 166.939C64.2763 166.777 64.4055 166.576 64.495 166.337L65.902 166.591C65.7893 167.005 65.5871 167.368 65.2955 167.68C65.0071 167.988 64.6442 168.228 64.2067 168.401C63.7725 168.57 63.277 168.654 62.7202 168.654ZM67.6458 168.5V160.864H69.0826V162.077H69.1621C69.3013 161.666 69.5466 161.343 69.8979 161.107C70.2525 160.869 70.6536 160.749 71.101 160.749C71.1938 160.749 71.3032 160.753 71.4292 160.759C71.5584 160.766 71.6595 160.774 71.7324 160.784V162.206C71.6728 162.189 71.5667 162.171 71.4142 162.151C71.2618 162.128 71.1093 162.116 70.9569 162.116C70.6055 162.116 70.2923 162.191 70.0172 162.34C69.7454 162.486 69.53 162.69 69.3709 162.952C69.2118 163.21 69.1323 163.505 69.1323 163.837V168.5H67.6458ZM77.6635 171.364C77.4415 171.364 77.2393 171.345 77.057 171.309C76.8747 171.276 76.7388 171.239 76.6493 171.2L77.0073 169.982C77.2791 170.054 77.521 170.086 77.7331 170.076C77.9453 170.066 78.1325 169.987 78.2949 169.837C78.4606 169.688 78.6065 169.445 78.7324 169.107L78.9164 168.599L76.1223 160.864H77.7132L79.6472 166.79H79.7267L81.6607 160.864H83.2566L80.1096 169.519C79.9637 169.917 79.7781 170.253 79.5527 170.528C79.3274 170.807 79.0589 171.016 78.7473 171.155C78.4358 171.294 78.0745 171.364 77.6635 171.364ZM87.6104 168.654C86.8945 168.654 86.2698 168.49 85.7362 168.162C85.2025 167.834 84.7882 167.375 84.4933 166.785C84.1983 166.195 84.0508 165.505 84.0508 164.717C84.0508 163.924 84.1983 163.232 84.4933 162.638C84.7882 162.045 85.2025 161.585 85.7362 161.256C86.2698 160.928 86.8945 160.764 87.6104 160.764C88.3263 160.764 88.9511 160.928 89.4847 161.256C90.0183 161.585 90.4326 162.045 90.7276 162.638C91.0226 163.232 91.1701 163.924 91.1701 164.717C91.1701 165.505 91.0226 166.195 90.7276 166.785C90.4326 167.375 90.0183 167.834 89.4847 168.162C88.9511 168.49 88.3263 168.654 87.6104 168.654ZM87.6154 167.406C88.0794 167.406 88.4639 167.284 88.7688 167.038C89.0737 166.793 89.2991 166.467 89.445 166.059C89.5941 165.651 89.6687 165.202 89.6687 164.712C89.6687 164.224 89.5941 163.777 89.445 163.369C89.2991 162.958 89.0737 162.629 88.7688 162.38C88.4639 162.131 88.0794 162.007 87.6154 162.007C87.1481 162.007 86.7603 162.131 86.4521 162.38C86.1471 162.629 85.9201 162.958 85.771 163.369C85.6251 163.777 85.5522 164.224 85.5522 164.712C85.5522 165.202 85.6251 165.651 85.771 166.059C85.9201 166.467 86.1471 166.793 86.4521 167.038C86.7603 167.284 87.1481 167.406 87.6154 167.406ZM97.6667 165.333V160.864H99.1582V168.5H97.6966V167.178H97.617C97.4413 167.585 97.1596 167.925 96.7718 168.197C96.3874 168.465 95.9084 168.599 95.335 168.599C94.8445 168.599 94.4103 168.492 94.0325 168.276C93.658 168.058 93.363 167.734 93.1475 167.307C92.9354 166.879 92.8294 166.351 92.8294 165.721V160.864H94.3159V165.542C94.3159 166.062 94.46 166.477 94.7484 166.785C95.0368 167.093 95.4113 167.247 95.872 167.247C96.1504 167.247 96.4271 167.178 96.7022 167.038C96.9806 166.899 97.211 166.689 97.3933 166.407C97.5789 166.125 97.67 165.767 97.6667 165.333ZM101.156 168.5V160.864H102.592V162.077H102.672C102.811 161.666 103.056 161.343 103.408 161.107C103.762 160.869 104.163 160.749 104.611 160.749C104.704 160.749 104.813 160.753 104.939 160.759C105.068 160.766 105.169 160.774 105.242 160.784V162.206C105.183 162.189 105.076 162.171 104.924 162.151C104.772 162.128 104.619 162.116 104.467 162.116C104.115 162.116 103.802 162.191 103.527 162.34C103.255 162.486 103.04 162.69 102.881 162.952C102.722 163.21 102.642 163.505 102.642 163.837V168.5H101.156ZM115.956 162.728L114.609 162.967C114.552 162.794 114.463 162.63 114.34 162.474C114.221 162.319 114.058 162.191 113.853 162.092C113.647 161.992 113.391 161.942 113.082 161.942C112.661 161.942 112.31 162.037 112.028 162.226C111.747 162.411 111.606 162.652 111.606 162.947C111.606 163.202 111.7 163.407 111.889 163.563C112.078 163.719 112.383 163.847 112.804 163.946L114.017 164.224C114.72 164.387 115.243 164.637 115.588 164.975C115.933 165.313 116.105 165.752 116.105 166.293C116.105 166.75 115.973 167.158 115.707 167.516C115.446 167.87 115.079 168.149 114.609 168.351C114.141 168.553 113.599 168.654 112.983 168.654C112.128 168.654 111.43 168.472 110.89 168.107C110.35 167.739 110.018 167.217 109.896 166.541L111.332 166.322C111.422 166.697 111.606 166.98 111.884 167.173C112.163 167.362 112.526 167.456 112.973 167.456C113.46 167.456 113.85 167.355 114.141 167.153C114.433 166.947 114.579 166.697 114.579 166.402C114.579 166.163 114.489 165.963 114.31 165.8C114.135 165.638 113.865 165.515 113.5 165.433L112.207 165.149C111.495 164.987 110.968 164.728 110.626 164.374C110.288 164.019 110.119 163.57 110.119 163.026C110.119 162.576 110.245 162.181 110.497 161.843C110.749 161.505 111.097 161.241 111.541 161.053C111.985 160.86 112.494 160.764 113.067 160.764C113.893 160.764 114.542 160.943 115.016 161.301C115.49 161.656 115.804 162.131 115.956 162.728ZM120.956 168.654C120.217 168.654 119.581 168.487 119.047 168.152C118.517 167.814 118.109 167.348 117.824 166.755C117.539 166.162 117.396 165.482 117.396 164.717C117.396 163.941 117.542 163.257 117.834 162.663C118.126 162.067 118.537 161.601 119.067 161.266C119.597 160.932 120.222 160.764 120.941 160.764C121.521 160.764 122.038 160.872 122.492 161.087C122.946 161.299 123.313 161.598 123.591 161.982C123.873 162.367 124.04 162.816 124.093 163.33H122.646C122.567 162.972 122.385 162.663 122.1 162.405C121.818 162.146 121.44 162.017 120.966 162.017C120.552 162.017 120.189 162.126 119.877 162.345C119.569 162.561 119.329 162.869 119.156 163.27C118.984 163.668 118.898 164.138 118.898 164.682C118.898 165.239 118.982 165.719 119.151 166.124C119.32 166.528 119.559 166.841 119.867 167.063C120.179 167.285 120.545 167.396 120.966 167.396C121.248 167.396 121.503 167.345 121.732 167.242C121.964 167.136 122.158 166.985 122.313 166.79C122.472 166.594 122.584 166.359 122.646 166.084H124.093C124.04 166.578 123.879 167.018 123.611 167.406C123.343 167.794 122.983 168.099 122.532 168.321C122.085 168.543 121.559 168.654 120.956 168.654ZM125.683 168.5V160.864H127.12V162.077H127.199C127.338 161.666 127.584 161.343 127.935 161.107C128.29 160.869 128.691 160.749 129.138 160.749C129.231 160.749 129.34 160.753 129.466 160.759C129.596 160.766 129.697 160.774 129.77 160.784V162.206C129.71 162.189 129.604 162.171 129.451 162.151C129.299 162.128 129.146 162.116 128.994 162.116C128.643 162.116 128.329 162.191 128.054 162.34C127.783 162.486 127.567 162.69 127.408 162.952C127.249 163.21 127.169 163.505 127.169 163.837V168.5H125.683ZM131.056 168.5V160.864H132.542V168.5H131.056ZM131.807 159.685C131.548 159.685 131.326 159.599 131.14 159.427C130.958 159.251 130.867 159.042 130.867 158.8C130.867 158.555 130.958 158.346 131.14 158.174C131.326 157.998 131.548 157.911 131.807 157.911C132.065 157.911 132.286 157.998 132.468 158.174C132.653 158.346 132.746 158.555 132.746 158.8C132.746 159.042 132.653 159.251 132.468 159.427C132.286 159.599 132.065 159.685 131.807 159.685ZM134.542 171.364V160.864H135.994V162.102H136.118C136.204 161.942 136.329 161.759 136.491 161.55C136.654 161.341 136.879 161.159 137.167 161.003C137.456 160.844 137.837 160.764 138.311 160.764C138.927 160.764 139.477 160.92 139.961 161.232C140.445 161.543 140.825 161.992 141.1 162.579C141.378 163.165 141.517 163.871 141.517 164.697C141.517 165.522 141.38 166.23 141.105 166.82C140.83 167.406 140.452 167.859 139.971 168.177C139.491 168.492 138.942 168.649 138.326 168.649C137.862 168.649 137.482 168.571 137.187 168.415C136.895 168.26 136.667 168.077 136.501 167.869C136.335 167.66 136.208 167.474 136.118 167.312H136.029V171.364H134.542ZM135.999 164.682C135.999 165.219 136.077 165.689 136.233 166.094C136.388 166.498 136.614 166.815 136.909 167.043C137.204 167.269 137.565 167.381 137.993 167.381C138.437 167.381 138.808 167.264 139.106 167.028C139.404 166.79 139.63 166.467 139.782 166.059C139.938 165.651 140.016 165.192 140.016 164.682C140.016 164.178 139.94 163.726 139.787 163.325C139.638 162.924 139.413 162.607 139.111 162.375C138.813 162.143 138.44 162.027 137.993 162.027C137.562 162.027 137.197 162.138 136.899 162.36C136.604 162.582 136.38 162.892 136.228 163.29C136.075 163.687 135.999 164.152 135.999 164.682ZM146.748 160.864V162.057H142.576V160.864H146.748ZM143.695 159.034H145.181V166.258C145.181 166.546 145.225 166.763 145.311 166.909C145.397 167.052 145.508 167.149 145.644 167.202C145.783 167.252 145.934 167.277 146.096 167.277C146.216 167.277 146.32 167.269 146.409 167.252C146.499 167.236 146.569 167.222 146.618 167.212L146.887 168.44C146.801 168.473 146.678 168.507 146.519 168.54C146.36 168.576 146.161 168.596 145.922 168.599C145.531 168.606 145.167 168.536 144.828 168.391C144.49 168.245 144.217 168.019 144.008 167.714C143.799 167.41 143.695 167.027 143.695 166.566V159.034ZM153.583 163.966V168.5H152.097V158.318H153.564V162.107H153.658C153.837 161.696 154.11 161.369 154.478 161.127C154.846 160.885 155.327 160.764 155.92 160.764C156.444 160.764 156.901 160.872 157.292 161.087C157.687 161.303 157.992 161.624 158.207 162.052C158.426 162.476 158.535 163.006 158.535 163.643V168.5H157.049V163.822C157.049 163.262 156.904 162.827 156.616 162.519C156.328 162.208 155.927 162.052 155.413 162.052C155.062 162.052 154.747 162.126 154.468 162.276C154.193 162.425 153.976 162.643 153.817 162.932C153.661 163.217 153.583 163.562 153.583 163.966ZM163.81 168.654C163.058 168.654 162.41 168.493 161.866 168.172C161.326 167.847 160.908 167.391 160.613 166.805C160.322 166.215 160.176 165.524 160.176 164.732C160.176 163.949 160.322 163.26 160.613 162.663C160.908 162.067 161.319 161.601 161.846 161.266C162.377 160.932 162.996 160.764 163.706 160.764C164.136 160.764 164.554 160.835 164.958 160.978C165.363 161.121 165.726 161.344 166.047 161.649C166.369 161.954 166.622 162.35 166.808 162.837C166.993 163.321 167.086 163.91 167.086 164.602V165.129H161.016V164.016H165.63C165.63 163.625 165.55 163.278 165.391 162.977C165.232 162.672 165.008 162.431 164.72 162.256C164.435 162.08 164.1 161.992 163.716 161.992C163.298 161.992 162.933 162.095 162.622 162.3C162.314 162.503 162.075 162.768 161.906 163.096C161.74 163.421 161.657 163.774 161.657 164.155V165.025C161.657 165.535 161.747 165.969 161.926 166.327C162.108 166.685 162.362 166.959 162.686 167.148C163.011 167.333 163.391 167.426 163.825 167.426C164.107 167.426 164.364 167.386 164.596 167.307C164.828 167.224 165.028 167.101 165.197 166.939C165.366 166.777 165.495 166.576 165.585 166.337L166.992 166.591C166.879 167.005 166.677 167.368 166.385 167.68C166.097 167.988 165.734 168.228 165.297 168.401C164.862 168.57 164.367 168.654 163.81 168.654ZM168.736 168.5V160.864H170.172V162.077H170.252C170.391 161.666 170.636 161.343 170.988 161.107C171.342 160.869 171.743 160.749 172.191 160.749C172.284 160.749 172.393 160.753 172.519 160.759C172.648 160.766 172.749 160.774 172.822 160.784V162.206C172.763 162.189 172.657 162.171 172.504 162.151C172.352 162.128 172.199 162.116 172.047 162.116C171.695 162.116 171.382 162.191 171.107 162.34C170.835 162.486 170.62 162.69 170.461 162.952C170.302 163.21 170.222 163.505 170.222 163.837V168.5H168.736ZM177.126 168.654C176.374 168.654 175.726 168.493 175.183 168.172C174.642 167.847 174.225 167.391 173.93 166.805C173.638 166.215 173.492 165.524 173.492 164.732C173.492 163.949 173.638 163.26 173.93 162.663C174.225 162.067 174.636 161.601 175.163 161.266C175.693 160.932 176.313 160.764 177.022 160.764C177.453 160.764 177.871 160.835 178.275 160.978C178.679 161.121 179.042 161.344 179.364 161.649C179.685 161.954 179.939 162.35 180.124 162.837C180.31 163.321 180.403 163.91 180.403 164.602V165.129H174.332V164.016H178.946C178.946 163.625 178.866 163.278 178.707 162.977C178.548 162.672 178.325 162.431 178.036 162.256C177.751 162.08 177.416 161.992 177.032 161.992C176.614 161.992 176.25 162.095 175.938 162.3C175.63 162.503 175.391 162.768 175.222 163.096C175.057 163.421 174.974 163.774 174.974 164.155V165.025C174.974 165.535 175.063 165.969 175.242 166.327C175.424 166.685 175.678 166.959 176.003 167.148C176.328 167.333 176.707 167.426 177.141 167.426C177.423 167.426 177.68 167.386 177.912 167.307C178.144 167.224 178.344 167.101 178.513 166.939C178.683 166.777 178.812 166.576 178.901 166.337L180.308 166.591C180.196 167.005 179.993 167.368 179.702 167.68C179.413 167.988 179.05 168.228 178.613 168.401C178.179 168.57 177.683 168.654 177.126 168.654ZM183.031 168.594C182.76 168.594 182.526 168.498 182.33 168.306C182.135 168.111 182.037 167.875 182.037 167.6C182.037 167.328 182.135 167.096 182.33 166.904C182.526 166.709 182.76 166.611 183.031 166.611C183.303 166.611 183.537 166.709 183.732 166.904C183.928 167.096 184.026 167.328 184.026 167.6C184.026 167.782 183.979 167.95 183.887 168.102C183.797 168.251 183.678 168.371 183.529 168.46C183.379 168.55 183.214 168.594 183.031 168.594ZM186.996 168.594C186.724 168.594 186.491 168.498 186.295 168.306C186.1 168.111 186.002 167.875 186.002 167.6C186.002 167.328 186.1 167.096 186.295 166.904C186.491 166.709 186.724 166.611 186.996 166.611C187.268 166.611 187.502 166.709 187.697 166.904C187.893 167.096 187.991 167.328 187.991 167.6C187.991 167.782 187.944 167.95 187.851 168.102C187.762 168.251 187.643 168.371 187.493 168.46C187.344 168.55 187.179 168.594 186.996 168.594ZM190.961 168.594C190.689 168.594 190.456 168.498 190.26 168.306C190.065 168.111 189.967 167.875 189.967 167.6C189.967 167.328 190.065 167.096 190.26 166.904C190.456 166.709 190.689 166.611 190.961 166.611C191.233 166.611 191.467 166.709 191.662 166.904C191.858 167.096 191.955 167.328 191.955 167.6C191.955 167.782 191.909 167.95 191.816 168.102C191.727 168.251 191.607 168.371 191.458 168.46C191.309 168.55 191.143 168.594 190.961 168.594Z" fill="#333333" fill-opacity="0.2"/>
</svg>
