<svg width="64" height="64" viewBox="0 0 64 64" fill="none" xmlns="http://www.w3.org/2000/svg">
<path d="M36 24C34.9391 24 33.9217 23.5786 33.1716 22.8284C32.4214 22.0783 32 21.0609 32 20C32 18.9391 32.4214 17.9217 33.1716 17.1716C33.9217 16.4214 34.9391 16 36 16C37.0609 16 38.0783 16.4214 38.8284 17.1716C39.5786 17.9217 40 18.9391 40 20C40 21.0609 39.5786 22.0783 38.8284 22.8284C38.0783 23.5786 37.0609 24 36 24Z" fill="#D8D8FF"/>
<path d="M50.6654 5.33398H13.332C11.2122 5.34032 9.18109 6.1852 7.68217 7.68412C6.18325 9.18304 5.33836 11.2142 5.33203 13.334V36.9607L15.6787 26.614C17.2032 25.1629 19.2273 24.3537 21.332 24.3537C23.4367 24.3537 25.4608 25.1629 26.9854 26.614L34.6414 34.3127L37.0094 31.9447C38.5123 30.4501 40.5458 29.6112 42.6654 29.6112C44.785 29.6112 46.8184 30.4501 48.3214 31.9447L58.6654 42.294V13.334C58.659 11.2142 57.8141 9.18304 56.3152 7.68412C54.8163 6.1852 52.7851 5.34032 50.6654 5.33398ZM35.9987 24.0007C34.9378 24.0007 33.9204 23.5792 33.1703 22.8291C32.4201 22.0789 31.9987 21.0615 31.9987 20.0007C31.9987 18.9398 32.4201 17.9224 33.1703 17.1722C33.9204 16.4221 34.9378 16.0007 35.9987 16.0007C37.0596 16.0007 38.077 16.4221 38.8271 17.1722C39.5773 17.9224 39.9987 18.9398 39.9987 20.0007C39.9987 21.0615 39.5773 22.0789 38.8271 22.8291C38.077 23.5792 37.0596 24.0007 35.9987 24.0007Z" fill="#B2B1FF"/>
<path d="M26.9854 26.6138C25.4608 25.1628 23.4367 24.3535 21.332 24.3535C19.2273 24.3535 17.2032 25.1628 15.6787 26.6138L5.33203 36.9605V50.6672C5.33836 52.787 6.18325 54.8181 7.68217 56.317C9.18109 57.816 11.2122 58.6608 13.332 58.6672H50.6654C52.8387 58.6672 54.9187 57.7792 56.4254 56.2138L26.9854 26.6138Z" fill="#6563FF"/>
<path d="M58.6646 42.2869L48.3206 31.9429C46.8176 30.4483 44.7842 29.6094 42.6646 29.6094C40.545 29.6094 38.5116 30.4483 37.0086 31.9429L34.6406 34.3109L56.414 56.2015C57.8593 54.7215 58.6673 52.7349 58.6646 50.6655V42.2869Z" fill="#D8D8FF"/>
</svg>
