<svg width="64" height="64" viewBox="0 0 64 64" fill="none" xmlns="http://www.w3.org/2000/svg">
<path d="M56 58V6C56 2.6 53.4 0 50 0H6C9.4 0 12 2.6 12 6V58C12 61.4 14.6 64 18 64H62C58.6 64 56 61.4 56 58Z" fill="#D52C2C"/>
<path d="M6 0C2.6 0 0 2.6 0 6V12H12V6C12 2.6 9.4 0 6 0ZM13.8 62.2C14.8 63.4 16.4 64 18 64H24V52L13.8 62.2Z" fill="#BF0202"/>
<path d="M24 52V58C24 61.4 21.4 64 18 64H58C61.4 64 64 61.4 64 58V52H24Z" fill="#BF0202"/>
<path d="M24.7992 29.5996C24.5992 29.5996 24.3992 29.5996 24.3992 29.5996C24.1992 29.5996 23.9992 29.5996 23.9992 29.5996V33.3996H22.1992V23.5996H24.9992C25.3992 23.5996 25.7992 23.5996 26.1992 23.5996C26.5992 23.5996 26.7992 23.7996 27.1992 23.7996C27.7992 23.9996 28.3992 24.3996 28.7992 24.7996C29.1992 25.1996 29.3992 25.7996 29.3992 26.5996C29.3992 26.9996 29.3992 27.3996 29.1992 27.7996C28.9992 28.1996 28.7992 28.3996 28.3992 28.7996C27.9992 29.1996 27.5992 29.1996 26.9992 29.3996C26.1992 29.5996 25.5992 29.5996 24.7992 29.5996ZM23.9992 27.9996C24.1992 27.9996 24.1992 27.9996 24.3992 27.9996C24.5992 27.9996 24.7992 27.9996 24.7992 27.9996C25.1992 27.9996 25.5992 27.9996 25.9992 27.7996C26.3992 27.5996 26.5992 27.5996 26.7992 27.3996C26.9992 27.1996 27.1992 26.9996 27.1992 26.7996C27.1992 26.5996 27.3992 26.3996 27.3992 26.1996C27.3992 25.9996 27.3992 25.5996 27.1992 25.3996C26.9992 25.1996 26.7992 24.9996 26.5992 24.9996C26.3992 24.9996 26.1992 24.7996 25.9992 24.7996C25.7992 24.7996 25.3992 24.7996 24.9992 24.7996H23.9992V27.9996ZM31.1992 33.3996V23.5996H33.7992C33.9992 23.5996 34.1992 23.5996 34.5992 23.5996C34.7992 23.5996 34.9992 23.5996 35.1992 23.5996C35.3992 23.5996 35.5992 23.5996 35.7992 23.7996C35.9992 23.9996 36.1992 23.7996 36.3992 23.9996C36.9992 24.1996 37.3992 24.3996 37.7992 24.5996C38.1992 24.7996 38.5992 25.1996 38.7992 25.5996C38.9992 25.9996 39.1992 26.3996 39.3992 26.7996C39.5992 27.1996 39.5992 27.7996 39.5992 28.3996C39.5992 28.9996 39.5992 29.3996 39.3992 29.7996C39.1992 30.1996 39.1992 30.5996 38.7992 30.9996C38.5992 31.3996 38.1992 31.7996 37.7992 31.9996C37.3992 32.1996 36.9992 32.5996 36.5992 32.7996C36.1992 32.9996 35.7992 32.9996 35.1992 33.1996C34.5992 33.3996 33.9992 33.3996 33.3992 33.3996H31.1992ZM33.5992 31.9996C34.5992 31.9996 35.3992 31.7996 35.9992 31.5996C36.5992 31.3996 36.9992 30.9996 37.1992 30.3996C37.3992 29.9996 37.5992 29.1996 37.5992 28.5996C37.5992 28.1996 37.5992 27.7996 37.3992 27.5996C37.1992 27.3996 37.1992 26.9996 36.9992 26.7996C36.7992 26.5996 36.5992 26.3996 36.3992 26.1996C36.1992 25.9996 35.7992 25.7996 35.5992 25.7996C35.3992 25.5996 34.9992 25.5996 34.5992 25.5996C34.1992 25.5996 33.7992 25.5996 33.3992 25.5996H32.5992V31.9996H33.5992ZM43.1992 33.3996H41.3992V23.5996H47.5992V25.1996H43.1992V27.7996H46.9992V29.3996H43.1992V33.3996Z" fill="#E6E6E6"/>
</svg>
