<svg width="64" height="64" viewBox="0 0 64 64" fill="none" xmlns="http://www.w3.org/2000/svg">
<path d="M52.1399 5.99998H11.8599C10.5424 5.96016 9.23078 6.19267 8.00719 6.68297C6.78361 7.17327 5.67437 7.91081 4.74888 8.84944C3.82339 9.78807 3.10156 10.9076 2.62856 12.138C2.15556 13.3684 1.94156 14.6831 1.99995 16V42C1.93408 43.3306 2.14765 44.6603 2.62689 45.9034C3.10613 47.1465 3.84043 48.2754 4.78248 49.2174C5.72454 50.1595 6.85346 50.8938 8.09655 51.373C9.33963 51.8523 10.6693 52.0658 11.9999 52H42.2599L38.5 53.26C38.1436 53.3759 37.8269 53.5895 37.5861 53.8766C37.3453 54.1637 37.19 54.5127 37.1378 54.8838C37.0857 55.2549 37.1389 55.6331 37.2913 55.9755C37.4438 56.3178 37.6893 56.6104 38 56.82L48.2999 63.58C48.625 63.7964 49.0063 63.9129 49.3968 63.9151C49.7873 63.9173 50.1699 63.8052 50.4974 63.5925C50.825 63.3798 51.083 63.0759 51.2399 62.7183C51.3967 62.3607 51.4454 61.965 51.38 61.58L50 52H52C53.3306 52.0658 54.6603 51.8523 55.9034 51.373C57.1464 50.8938 58.2754 50.1595 59.2174 49.2174C60.1595 48.2754 60.8938 47.1465 61.373 45.9034C61.8523 44.6603 62.0658 43.3306 62 42V16C62.0583 14.6831 61.8443 13.3684 61.3713 12.138C60.8983 10.9076 60.1765 9.78807 59.251 8.84944C58.3255 7.91081 57.2163 7.17327 55.9927 6.68297C54.7691 6.19267 53.4575 5.96016 52.1399 5.99998ZM35 38H16.9999C16.2043 38 15.4412 37.6839 14.8786 37.1213C14.316 36.5587 13.9999 35.7956 13.9999 35C13.9999 34.2043 14.316 33.4413 14.8786 32.8787C15.4412 32.3161 16.2043 32 16.9999 32H35C35.7956 32 36.5587 32.3161 37.1213 32.8787C37.6839 33.4413 38 34.2043 38 35C38 35.7956 37.6839 36.5587 37.1213 37.1213C36.5587 37.6839 35.7956 38 35 38ZM47 26H16.9999C16.2043 26 15.4412 25.6839 14.8786 25.1213C14.316 24.5587 13.9999 23.7956 13.9999 23C13.9999 22.2043 14.316 21.4413 14.8786 20.8787C15.4412 20.316 16.2043 20 16.9999 20H47C47.7956 20 48.5587 20.316 49.1213 20.8787C49.6839 21.4413 50 22.2043 50 23C50 23.7956 49.6839 24.5587 49.1213 25.1213C48.5587 25.6839 47.7956 26 47 26Z" fill="#FBAC37"/>
</svg>
