<svg width="64" height="64" viewBox="0 0 64 64" fill="none" xmlns="http://www.w3.org/2000/svg">
<g clip-path="url(#clip0_745_12779)">
<path d="M57.3101 63.0625H6.69001C5.93342 63.0614 5.18446 62.9112 4.48591 62.6206C3.78735 62.33 3.15288 61.9046 2.6187 61.3688C2.08453 60.833 1.66113 60.1973 1.37267 59.4978C1.08421 58.7984 0.93634 58.049 0.937507 57.2924V6.70762C0.93634 5.95105 1.0842 5.20165 1.37266 4.50221C1.66111 3.80278 2.0845 3.16701 2.61866 2.6312C3.15282 2.0954 3.78728 1.67005 4.48582 1.37944C5.18436 1.08884 5.9333 0.938665 6.68988 0.9375H15.2365C15.9923 0.937693 16.7407 1.08708 17.4387 1.37708C18.1367 1.66709 18.7706 2.09202 19.304 2.6275L25.4053 8.74763C25.672 9.01537 25.9889 9.22784 26.3379 9.37284C26.6869 9.51784 27.0611 9.59253 27.439 9.59262H57.3103C58.0668 9.59381 58.8158 9.74399 59.5143 10.0346C60.2128 10.3252 60.8473 10.7506 61.3814 11.2864C61.9156 11.8222 62.339 12.458 62.6274 13.1575C62.9158 13.8569 63.0637 14.6063 63.0625 15.3629V57.2924C63.0637 58.049 62.9158 58.7984 62.6274 59.4978C62.3389 60.1972 61.9155 60.833 61.3814 61.3688C60.8472 61.9046 60.2127 62.3299 59.5142 62.6206C58.8157 62.9112 58.0667 63.0613 57.3101 63.0625Z" fill="#B3E0FF"/>
<path d="M63.0625 29.7881V57.2923C63.0637 58.0489 62.9158 58.7983 62.6274 59.4977C62.3389 60.1972 61.9155 60.8329 61.3814 61.3687C60.8472 61.9045 60.2127 62.3299 59.5142 62.6205C58.8157 62.9111 58.0667 63.0613 57.3101 63.0624H6.69001C5.93342 63.0613 5.18446 62.9111 4.48591 62.6205C3.78735 62.3299 3.15288 61.9046 2.6187 61.3688C2.08453 60.833 1.66113 60.1972 1.37267 59.4978C1.08421 58.7983 0.93634 58.0489 0.937507 57.2923V29.7881C0.93634 29.0315 1.0842 28.2821 1.37266 27.5827C1.66111 26.8832 2.0845 26.2475 2.61866 25.7116C3.15282 25.1758 3.78728 24.7505 4.48582 24.4599C5.18436 24.1693 5.9333 24.0191 6.68988 24.0179H57.3103C58.8382 24.0203 60.3026 24.6296 61.3814 25.7117C62.4602 26.7938 63.0649 28.2601 63.0625 29.7881Z" fill="#66C1FF"/>
<path d="M33.8744 56.523C41.0225 56.523 46.8171 50.7104 46.8171 43.5402C46.8171 36.3701 41.0225 30.5575 33.8744 30.5575C26.7263 30.5575 20.9316 36.3701 20.9316 43.5402C20.9316 50.7104 26.7263 56.523 33.8744 56.523Z" fill="#4EB7FF"/>
<path d="M31.9994 56.523C39.1475 56.523 44.9421 50.7104 44.9421 43.5402C44.9421 36.3701 39.1475 30.5575 31.9994 30.5575C24.8513 30.5575 19.0566 36.3701 19.0566 43.5402C19.0566 50.7104 24.8513 56.523 31.9994 56.523Z" fill="#63EA86"/>
<path d="M32 30.5575C31.3725 30.5576 30.7459 30.6031 30.125 30.6936C33.2027 31.1541 36.0129 32.7043 38.0441 35.062C40.0752 37.4197 41.1925 40.4282 41.1925 43.5402C41.1925 46.6522 40.0752 49.6608 38.0441 52.0185C36.0129 54.3762 33.2027 55.9264 30.125 56.3869C30.7459 56.4774 31.3725 56.523 32 56.5231C39.1481 56.5231 44.9427 50.7104 44.9427 43.5402C44.9427 36.3701 39.1481 30.5575 32 30.5575Z" fill="#3CE568"/>
<path d="M30.0759 38.2935L37.1732 43.0607C37.2517 43.1136 37.3161 43.185 37.3606 43.2686C37.4051 43.3523 37.4284 43.4455 37.4284 43.5402C37.4284 43.635 37.4051 43.7282 37.3606 43.8119C37.3161 43.8955 37.2517 43.9669 37.1732 44.0197L30.0759 48.787C29.9892 48.8451 29.8884 48.8785 29.7841 48.8836C29.6799 48.8888 29.5762 48.8655 29.4842 48.8162C29.3923 48.7669 29.3154 48.6935 29.2619 48.6039C29.2084 48.5143 29.1804 48.4119 29.1807 48.3075V38.773C29.1804 38.6686 29.2084 38.5662 29.2619 38.4766C29.3154 38.3869 29.3923 38.3136 29.4842 38.2643C29.5762 38.215 29.6799 38.1917 29.7841 38.1969C29.8884 38.202 29.9892 38.2354 30.0759 38.2935Z" fill="white"/>
<path d="M19.9375 15.7679H47.8125C48.8071 15.7679 49.7609 16.163 50.4641 16.8663C51.1674 17.5696 51.5625 18.5234 51.5625 19.5179V24.0179H16.1875V19.5179C16.1875 18.5234 16.5826 17.5696 17.2858 16.8663C17.9891 16.163 18.9429 15.7679 19.9375 15.7679Z" fill="#8CD0FF"/>
<path d="M18.0625 15.7679H45.9375C46.9321 15.7679 47.8859 16.163 48.5891 16.8663C49.2924 17.5696 49.6875 18.5234 49.6875 19.5179V24.0179H14.3125V19.5179C14.3125 18.5234 14.7076 17.5696 15.4108 16.8663C16.1141 16.163 17.0679 15.7679 18.0625 15.7679Z" fill="#D9F0FF"/>
<path d="M45.9375 20.8304H18.0625C17.8139 20.8304 17.5754 20.7317 17.3996 20.5559C17.2238 20.38 17.125 20.1416 17.125 19.8929C17.125 19.6443 17.2238 19.4058 17.3996 19.23C17.5754 19.0542 17.8139 18.9554 18.0625 18.9554H45.9375C46.1861 18.9554 46.4246 19.0542 46.6004 19.23C46.7762 19.4058 46.875 19.6443 46.875 19.8929C46.875 20.1416 46.7762 20.38 46.6004 20.5559C46.4246 20.7317 46.1861 20.8304 45.9375 20.8304Z" fill="#B3E0FF"/>
</g>
<defs>
<clipPath id="clip0_745_12779">
<rect width="64" height="64" fill="white"/>
</clipPath>
</defs>
</svg>
