<svg width="64" height="64" viewBox="0 0 64 64" fill="none" xmlns="http://www.w3.org/2000/svg">
<path fill-rule="evenodd" clip-rule="evenodd" d="M61.28 16.24C59.544 13.152 57.66 12.584 53.824 12.368C49.992 12.108 40.356 12 32.008 12C23.644 12 14.004 12.108 10.176 12.364C6.348 12.584 4.46 13.148 2.708 16.24C0.92 19.324 0 24.636 0 33.988V34.02C0 43.332 0.92 48.684 2.708 51.736C4.46 54.824 6.344 55.384 10.172 55.644C14.004 55.868 23.644 56 32.008 56C40.356 56 49.992 55.868 53.828 55.648C57.664 55.388 59.548 54.828 61.284 51.74C63.088 48.688 64 43.336 64 34.024V33.992C64 24.636 63.088 19.324 61.28 16.24Z" fill="#F44336"/>
<path fill-rule="evenodd" clip-rule="evenodd" d="M24 46V22L44 34L24 46Z" fill="#FAFAFA"/>
</svg>
